<svg width="143" height="36" viewBox="0 0 143 36" fill="none" xmlns="http://www.w3.org/2000/svg">
<path d="M18 36L22.8616 22.8616L36 18L22.8616 13.1384L18 0L13.1384 13.1384L0 18L13.1384 22.8616L18 36Z" fill="#D90368"/>
<path d="M71 34.5592L75.3927 22.6881L75.4725 22.4725L75.6881 22.3927L87.5592 18L75.6881 13.6073L75.4725 13.5275L75.3927 13.3119L71 1.44077L66.6073 13.3119L66.5275 13.5275L66.3119 13.6073L54.4408 18L66.3119 22.3927L66.5275 22.4725L66.6073 22.6881L71 34.5592Z" stroke="#D90368"/>
<path d="M124.5 34.5934L129.029 22.6839L129.111 22.4691L129.327 22.3912L141.524 18L129.327 13.6088L129.111 13.5309L129.029 13.3161L124.5 1.40658L119.971 13.3161L119.889 13.5309L119.673 13.6088L107.476 18L119.673 22.3912L119.889 22.4691L119.971 22.6839L124.5 34.5934Z" stroke="#D90368"/>
</svg>
