<svg width="104" height="96" viewBox="0 0 104 96" fill="none" xmlns="http://www.w3.org/2000/svg">
<g clip-path="url(#clip0_42_3)">
<path d="M47.6558 95.5179C73.9753 95.5179 95.3115 74.1355 95.3115 47.759C95.3115 21.3824 73.9753 0 47.6558 0C21.3362 0 0 21.3824 0 47.759C0 74.1355 21.3362 95.5179 47.6558 95.5179Z" fill="url(#paint0_linear_42_3)"/>
<path d="M66.8065 68.5179C66.8065 68.5179 67.0342 62.2296 65.2561 62.5825C64.3671 62.759 64.1824 62.759 64.2253 62.7159C64.2683 62.6729 64.526 62.5825 64.526 62.5825C62.443 63.1162 61.1245 63.4089 61.1245 63.4089L61.3864 69.34L66.8065 68.5179Z" fill="white" stroke="#102771" stroke-width="2.21" stroke-miterlimit="10"/>
<path d="M27.6675 73.6786H26.9245C26.9245 73.6786 26.0655 72.8651 26.16 65.7073C26.16 65.7073 26.933 64.3515 33.4827 64.9412V73.4892L27.6632 73.6786H27.6675Z" fill="white" stroke="#102771" stroke-width="2.21" stroke-miterlimit="10"/>
<path d="M66.8924 49.8809C68.5331 62.3544 59.8746 71.5782 45.9292 72.5079C32.6968 73.3903 24.3347 63.2453 24.966 49.8809C25.4599 39.396 32.976 31.8981 45.9292 32.0875C58.7709 32.2726 65.5138 39.3917 66.8924 49.8809Z" fill="white" stroke="#102771" stroke-width="2.21" stroke-miterlimit="10"/>
<path d="M64.9597 51.5725C66.4414 61.2913 58.6205 68.4792 46.0194 69.2023C34.0668 69.8867 26.5121 61.9842 27.079 51.5725C27.5257 43.4032 34.3159 37.5581 46.0194 37.7045C57.6241 37.8508 63.7142 43.3946 64.9597 51.5725Z" fill="#102771" stroke="#0D2051" stroke-width="2.21" stroke-miterlimit="10"/>
<path d="M26.5981 61.076C26.5981 61.076 23.5745 62.5567 22.0241 61.076C20.2245 56.6944 18.7084 54.8436 22.0241 47.8666C22.0241 47.8666 23.145 47.6212 24.6396 47.8666C24.3733 50.3156 25.0433 59.5352 25.9195 60.2195L26.6024 61.076H26.5981Z" fill="white" stroke="#102771" stroke-width="2.21" stroke-miterlimit="10"/>
<path d="M65.9261 60C65.9261 60 69.0399 61.2869 70.4915 59.7073C72.0076 55.2181 73.4034 53.2726 69.654 46.5237C69.654 46.5237 68.5202 46.3472 67.047 46.6915C67.4679 49.1191 67.3863 58.3601 66.5574 59.1004L65.9304 60H65.9261Z" fill="white" stroke="#102771" stroke-width="2.21" stroke-miterlimit="10"/>
<path d="M33.0403 40.8035C31.9666 38.6212 30.0125 37.7045 30.0125 37.7045L33.0403 40.8035Z" fill="white"/>
<path d="M33.0403 40.8035C31.9666 38.6212 30.0125 37.7045 30.0125 37.7045" stroke="#102771" stroke-width="2.21" stroke-miterlimit="10"/>
<path d="M57.2849 40.4419C58.0579 38.1693 60.2741 36.736 60.2741 36.736L57.2849 40.4419Z" fill="white"/>
<path d="M57.2849 40.4419C58.0579 38.1693 60.2741 36.736 60.2741 36.736" stroke="#102771" stroke-width="2.21" stroke-miterlimit="10"/>
<path d="M44.0266 31.6055C44.658 27.9082 41.235 22.9498 41.235 22.9498C38.6194 20.1435 36.3517 21.0301 35.4713 21.8049C34.5865 22.5796 33.6503 23.7418 33.6503 23.7418C35.9695 25.1277 39.0618 25.0717 39.7833 24.6284C40.5049 24.1851 41.0546 23.5222 41.0546 23.5222" stroke="#009D47" stroke-width="1.47" stroke-miterlimit="10"/>
<path d="M46.4446 17.957C44.7095 17.6514 42.5835 18.4605 41.7589 19.5366C40.9343 20.6126 40.8484 21.043 40.8484 21.043C40.8484 21.043 41.3251 22.2611 42.0638 22.2181C42.8026 22.175 45.2721 20.8494 46.0538 20.0574C46.8354 19.2654 47.7459 18.396 47.7459 18.396L46.4446 17.9613V17.957Z" stroke="#009D47" stroke-width="1.47" stroke-miterlimit="10"/>
<path d="M77.4449 36.8953L80.8936 60.2927L82.4999 59.9828L77.4449 32.2425H76.5472L77.4449 36.8953Z" fill="#102771" stroke="black" stroke-width="1.47" stroke-miterlimit="10"/>
<path d="M76.8393 32.0832C77.3422 32.0832 77.7499 31.6747 77.7499 31.1707C77.7499 30.6668 77.3422 30.2583 76.8393 30.2583C76.3365 30.2583 75.9288 30.6668 75.9288 31.1707C75.9288 31.6747 76.3365 32.0832 76.8393 32.0832Z" fill="#009D47" stroke="black" stroke-width="1.47" stroke-miterlimit="10"/>
<path d="M78.3812 37.2095C80.5243 34.1664 80.2881 34.33 83.9688 33.5337C87.0267 32.8709 89.0539 36.3056 94.3022 36.0947C99.5505 35.8838 101.11 34.8594 101.11 34.8594L103.407 50.7245C94.7145 46.7776 85.3947 47.9957 82.2637 52.3171C81.744 53.0316 81.5808 53.6858 81.5808 53.6858L78.3812 37.2052V37.2095Z" fill="#163072" stroke="black" stroke-width="2.21" stroke-miterlimit="10"/>
<path d="M68.9883 25.5495L69.0656 26.2597L69.7227 25.9756L69.1472 26.3974L69.7227 26.8235L69.0656 26.5352L68.9883 27.2453L68.911 26.5352L68.2539 26.8235L68.8294 26.3974L68.2539 25.9756L68.911 26.2597L68.9883 25.5495Z" fill="white"/>
<path d="M75.9288 15.3702L76.0061 16.0804L76.6589 15.7963L76.0834 16.2181L76.6589 16.6442L76.0061 16.3558L75.9288 17.066L75.8472 16.3558L75.1944 16.6442L75.7699 16.2181L75.1944 15.7963L75.8472 16.0804L75.9288 15.3702Z" fill="white"/>
<path d="M37.1033 14.8106L37.1849 15.5208L37.8377 15.2324L37.2622 15.6585L37.8377 16.0804L37.1849 15.7963L37.1033 16.5065L37.026 15.7963L36.3732 16.0804L36.9487 15.6585L36.3732 15.2324L37.026 15.5208L37.1033 14.8106Z" fill="white"/>
<path d="M24.9317 9.86514L24.9918 10.3989L25.4814 10.1837L25.0477 10.5022L25.4814 10.8207L24.9918 10.6055L24.9317 11.1392L24.8716 10.6055L24.382 10.8207L24.8114 10.5022L24.382 10.1837L24.8716 10.3989L24.9317 9.86514Z" fill="white"/>
<path d="M23.4671 21.3616L23.3039 21.0947L23.0033 21.1679L23.2696 21.0043L23.1966 20.703L23.3598 20.9699L23.6604 20.8967L23.3941 21.0603L23.4671 21.3616Z" fill="white"/>
<path d="M61.0815 17.3931L60.9226 17.1306L60.6219 17.2037L60.8839 17.0402L60.8152 16.7389L60.9741 17.0057L61.2748 16.9326L61.0085 17.0918L61.0815 17.3931Z" fill="white"/>
<path d="M16.5481 47.3845L16.3849 47.122L16.0842 47.1951L16.3505 47.0316L16.2775 46.7303L16.4364 46.9971L16.737 46.924L16.4751 47.0832L16.5481 47.3845Z" fill="white"/>
<path d="M44.237 9.7274L44.0738 9.46054L43.7732 9.53371L44.0395 9.37446L43.9665 9.07317L44.1297 9.33572L44.4303 9.26255L44.164 9.42611L44.237 9.7274Z" fill="white"/>
<path d="M66.3899 78.792C71.5137 80.109 77.1142 78.8049 78.9009 77.9311C80.6875 77.0574 83.7626 73.6657 83.7626 73.6657L79.6782 65.0918L75.1042 67.3343C75.1042 67.3343 64.9211 71.8235 61.103 66.8608C53.2649 73.9455 43.4554 72.6241 43.4554 72.6241C37.4941 72.5079 33.457 69.3142 33.457 69.3142C25.4213 73.3257 22.475 83.1736 22.475 83.1736C21.7835 84.8178 21.251 87.4864 21.251 87.4864C28.8314 92.2597 34.7239 93.7662 34.7239 93.7662C42.7296 95.9742 51.01 95.4835 51.01 95.4835C62.9798 94.7131 68.8767 90.1464 68.8767 90.1464C68.8767 90.1464 68.3913 81.0172 64.9855 76.2439" fill="white"/>
<path d="M66.3899 78.792C71.5137 80.109 77.1142 78.8049 78.9009 77.9311C80.6875 77.0574 83.7626 73.6657 83.7626 73.6657L79.6782 65.0918L75.1042 67.3343C75.1042 67.3343 64.9211 71.8235 61.103 66.8608C53.2649 73.9455 43.4554 72.6241 43.4554 72.6241C37.4941 72.5079 33.457 69.3142 33.457 69.3142C25.4213 73.3257 22.475 83.1736 22.475 83.1736C21.7835 84.8178 21.251 87.4864 21.251 87.4864C28.8314 92.2597 34.7239 93.7662 34.7239 93.7662C42.7296 95.9742 51.01 95.4835 51.01 95.4835C62.9798 94.7131 68.8767 90.1464 68.8767 90.1464C68.8767 90.1464 68.3913 81.0172 64.9855 76.2439" stroke="#102771" stroke-width="2.21" stroke-miterlimit="10"/>
<path opacity="0.5" d="M23.0977 82.7604C44.4432 95.4103 67.833 86.9225 67.9274 86.6083L68.3956 89.9828C59.866 95.4491 45.9678 95.561 46.0924 94.9455C33.3367 94.4634 25.2924 89.1951 25.2924 89.1951L21.7534 87.3142L23.0977 82.7604Z" fill="#B9BDD4"/>
<path d="M88.3323 66.8608C88.3323 70.3773 86.069 74.1822 83.2773 74.1822C80.4856 74.1822 77.7498 70.3773 77.7498 66.8608C77.7498 63.3443 80.4899 60.495 83.2773 60.495C86.0647 60.495 88.3323 63.3443 88.3323 66.8608Z" fill="white" stroke="#102771" stroke-width="2.21" stroke-miterlimit="10"/>
<path d="M21.0319 81.4605C24.5408 81.4605 28.3375 83.7288 28.3375 86.5265C28.3375 89.3243 24.5408 92.066 21.0319 92.066C17.523 92.066 14.6798 89.3199 14.6798 86.5265C14.6798 83.7331 17.523 81.4605 21.0319 81.4605Z" fill="white" stroke="#102771" stroke-width="2.21" stroke-miterlimit="10"/>
<path d="M35.2694 77.363C33.2809 81.4519 34.2172 87.7618 34.2172 87.7618H59.1273C60.5318 82.67 58.4273 77.1176 58.4273 77.1176L35.2737 77.3587L35.2694 77.363Z" stroke="#0D2051" stroke-width="2.21" stroke-miterlimit="10"/>
<path d="M36.7597 80.3156C35.0289 83.0574 35.8449 87.2884 35.8449 87.2884H57.5382C58.7623 83.8752 56.9284 80.1521 56.9284 80.1521L36.7597 80.3156Z" fill="#102771" stroke="#0D2051" stroke-width="2.21" stroke-miterlimit="10"/>
<path opacity="0.5" d="M60.5317 48.5725C57.5167 43.4161 52.2813 41.5696 47.4581 42.5208C42.6393 43.472 49.7817 46.1148 50.7051 46.3644C51.6285 46.6141 55.7 49.9024 56.4731 50.6384C57.2461 51.3745 59.7844 53.2209 60.8366 53.7202C61.8889 54.2195 63.1773 53.307 62.4085 51.594L60.5317 48.5725Z" fill="#6E7CA7"/>
<path opacity="0.5" d="M44.5849 43.8852C44.5849 44.6944 43.305 45.3486 42.4976 45.3486C41.6901 45.3486 40.6207 45.1636 40.6207 44.3544C40.6207 43.5452 41.6944 42.4175 42.4976 42.4175C43.3007 42.4175 44.5849 43.0717 44.5849 43.8809V43.8852Z" fill="#6E7CA7"/>
<path d="M45.2935 46.3558C45.5734 46.3558 45.8003 46.1284 45.8003 45.8479C45.8003 45.5674 45.5734 45.34 45.2935 45.34C45.0136 45.34 44.7867 45.5674 44.7867 45.8479C44.7867 46.1284 45.0136 46.3558 45.2935 46.3558Z" fill="#1A7FD3"/>
<path d="M48.373 84.7661C48.3558 84.7188 48.3386 84.6757 48.3258 84.6284C48.3258 84.6284 48.3258 84.6284 48.3258 84.6241C48.3129 84.594 48.3043 84.5638 48.2914 84.5337C48.2871 84.5208 48.2828 84.5079 48.2785 84.4993C48.2785 84.4907 48.2699 84.4778 48.2656 84.4692V84.4605C48.2613 84.4476 48.257 84.4347 48.2527 84.4218C48.2527 84.4218 48.2399 84.3831 48.2313 84.3615C48.2313 84.3615 48.2313 84.3572 48.2313 84.3529C48.2227 84.3271 48.2098 84.297 48.2012 84.2712C48.2012 84.2712 48.2012 84.2669 48.2012 84.2626C48.1797 84.2109 48.1583 84.1549 48.1368 84.1033C48.1368 84.1033 48.1368 84.099 48.1368 84.0947V84.0775C48.1368 84.0775 48.1282 84.0732 48.1282 84.0689C48.1282 84.0603 48.1239 84.056 48.1196 84.0473C48.1196 84.0387 48.1153 84.0344 48.111 84.0258C48.111 84.0258 48.1067 84.0086 48.1024 84.0043C48.0852 83.9613 48.0681 83.9182 48.0509 83.8752C48.0509 83.8752 48.0509 83.8709 48.0509 83.8666C48.0509 83.8623 48.0509 83.858 48.0466 83.8494C48.0466 83.8494 48.0466 83.845 48.0466 83.8407C48.038 83.8235 48.0337 83.8063 48.0251 83.7891C48.0251 83.7891 48.0251 83.7848 48.0251 83.7805C48.0208 83.7633 48.0122 83.7504 48.0079 83.7331C48.0165 83.7331 48.0294 83.7288 48.038 83.7288C48.0595 83.7288 48.0852 83.7288 48.1067 83.7288C48.1411 83.7288 48.1711 83.7288 48.2055 83.7288C48.2227 83.7288 48.2399 83.7288 48.257 83.7288C48.2656 83.7288 48.2742 83.7288 48.2828 83.7288C48.3043 83.7288 48.3258 83.7288 48.3429 83.7288C48.3601 83.7288 48.3816 83.7288 48.3988 83.7288C48.4074 83.7288 48.4117 83.7288 48.4202 83.7288C48.4245 83.7288 48.4288 83.7288 48.4374 83.7288C48.4546 83.7288 48.4761 83.7288 48.4933 83.7288C48.5104 83.7288 48.5276 83.7288 48.5448 83.7288C48.5577 83.7288 48.5706 83.7288 48.5877 83.7288C48.6006 83.7288 48.6135 83.7288 48.6221 83.7288C48.6307 83.7288 48.6393 83.7288 48.6479 83.7288C48.6608 83.7288 48.6736 83.7288 48.6822 83.7288C48.6994 83.7288 48.7123 83.7288 48.7295 83.7288C48.7467 83.7288 48.7595 83.7288 48.7767 83.7288C48.7853 83.7288 48.7982 83.7288 48.8068 83.7288H48.8368C48.8368 83.7288 48.8583 83.7288 48.8669 83.7288C48.8669 83.7288 48.8669 83.7288 48.8712 83.7288C48.8712 83.7288 48.8712 83.7288 48.8755 83.7288C48.8927 83.7288 48.9099 83.7288 48.927 83.7331C48.9399 83.7331 48.9528 83.7331 48.9657 83.7374C48.9829 83.7374 49 83.7374 49.0172 83.7374H49.0258C49.0387 83.7374 49.0516 83.7374 49.0602 83.7417C49.0688 83.7417 49.0817 83.7418 49.0902 83.7461H49.0988C49.1074 83.7461 49.116 83.7461 49.1246 83.7504H49.1332C49.1418 83.7504 49.1504 83.7504 49.159 83.7547H49.1675H49.189L49.1976 83.759C49.2062 83.759 49.2105 83.759 49.2191 83.7633C49.2406 83.7633 49.262 83.7719 49.2792 83.7762C49.2835 83.7762 49.2878 83.7762 49.2921 83.7762C49.3093 83.7762 49.3265 83.7848 49.3436 83.7891H49.3522C49.3522 83.7891 49.3522 83.7891 49.3565 83.7891C49.3565 83.7891 49.3608 83.7891 49.3651 83.7891C49.3823 83.7977 49.3952 83.802 49.4124 83.8106C49.4295 83.8192 49.4467 83.8235 49.4639 83.8321C49.4639 83.8321 49.4639 83.8321 49.4682 83.8321C49.4682 83.8321 49.4983 83.8623 49.5111 83.8752C49.5111 83.8752 49.5111 83.8752 49.5111 83.8795C49.5111 83.8795 49.5154 83.8881 49.5197 83.8924C49.5197 83.8924 49.5197 83.8924 49.5197 83.8967C49.5369 83.9311 49.5584 83.9699 49.5756 84.0043C49.5841 84.0215 49.5884 84.0387 49.597 84.0559C49.597 84.0559 49.597 84.0646 49.597 84.0689C49.597 84.0689 49.597 84.0861 49.6013 84.0947C49.6013 84.0947 49.6013 84.0947 49.6013 84.099C49.6099 84.1205 49.6185 84.142 49.6271 84.1679C49.6314 84.1851 49.6357 84.198 49.64 84.2152C49.6486 84.2539 49.6615 84.297 49.67 84.3357C49.6829 84.396 49.6958 84.4605 49.7044 84.5208C49.713 84.5595 49.7173 84.5983 49.7259 84.6413C49.7259 84.6671 49.7345 84.6887 49.7388 84.7145C49.7388 84.7145 49.7388 84.7145 49.7388 84.7188C49.7388 84.7446 49.7474 84.7661 49.7474 84.792C49.7474 84.8135 49.7516 84.835 49.7516 84.8522C49.7516 84.878 49.7516 84.9039 49.7559 84.9254V84.934C49.7559 84.9813 49.7645 85.033 49.7645 85.0803C49.7645 85.0803 49.7645 85.089 49.7688 85.0933C49.7688 85.0933 49.7688 85.1234 49.7645 85.1406C49.7645 85.175 49.7645 85.2138 49.7645 85.2482C49.7559 85.2568 49.7516 85.2654 49.7431 85.2697C49.7001 85.2956 49.6615 85.3257 49.6185 85.3515C49.4854 85.4247 49.3522 85.4978 49.2191 85.5667C49.0301 85.6657 48.8368 85.7647 48.6436 85.8594C48.5534 85.9024 48.4589 85.9455 48.3687 85.9842C48.3515 85.9928 48.3386 85.9971 48.3172 85.9971C48.3386 85.9713 48.3601 85.9412 48.373 85.911C48.3988 85.8465 48.4245 85.7776 48.4374 85.7088C48.446 85.6743 48.4503 85.6399 48.4589 85.6055C48.4632 85.5753 48.4675 85.5452 48.4718 85.5151C48.4761 85.4591 48.4847 85.4075 48.489 85.3515C48.489 85.2912 48.489 85.2267 48.489 85.1664C48.489 85.132 48.4761 85.0933 48.4675 85.0588C48.4675 85.0588 48.4675 85.0588 48.4675 85.0545C48.4675 85.0502 48.4675 85.0459 48.4675 85.0416C48.4675 85.0416 48.4675 85.0416 48.4675 85.0373V85.0287C48.4675 85.0287 48.4675 85.0244 48.4675 85.0201C48.4675 85.0158 48.4675 85.0115 48.4675 85.0072C48.4675 85.0072 48.4675 85.0072 48.4675 85.0029C48.4675 84.9943 48.4632 84.9813 48.4589 84.9727C48.4589 84.9727 48.4589 84.9641 48.4589 84.9598C48.4589 84.9598 48.4589 84.9598 48.4589 84.9555V84.9469C48.4589 84.9469 48.4589 84.9469 48.4589 84.9426C48.4374 84.8737 48.4117 84.8049 48.3902 84.7317C48.3902 84.7317 48.3902 84.7317 48.3902 84.7274L48.373 84.7661Z" fill="#009D47"/>
<path d="M45.5513 83.9354C45.5513 83.9354 45.5427 83.9354 45.5384 83.9354C45.5341 83.9354 45.5298 83.9354 45.5212 83.9354C45.4998 83.9354 45.4826 83.9354 45.4611 83.9311C45.4439 83.9225 45.431 83.9225 45.4139 83.9311C45.4053 83.9311 45.401 83.9397 45.3924 83.9397C45.3924 83.9397 45.3881 83.9397 45.3838 83.9441C45.3838 83.9441 45.3838 83.9441 45.3795 83.9441C45.3709 83.9527 45.3623 83.9613 45.3537 83.9699C45.3537 83.9699 45.3537 83.9699 45.3537 83.9742C45.328 84.0043 45.3108 84.0387 45.2979 84.0732C45.2979 84.0732 45.2979 84.0775 45.2936 84.0818C45.2936 84.0818 45.2936 84.0818 45.2936 84.0861C45.285 84.1076 45.2764 84.1291 45.2721 84.1506C45.2721 84.1593 45.2721 84.1636 45.2721 84.1722C45.2721 84.1722 45.2721 84.1722 45.2721 84.1765C45.2721 84.1851 45.2678 84.198 45.2635 84.2066C45.2635 84.2066 45.2635 84.2066 45.2635 84.2109C45.2635 84.2109 45.2635 84.2109 45.2635 84.2152C45.2635 84.2152 45.2635 84.2152 45.2635 84.2195C45.2593 84.241 45.255 84.2626 45.2464 84.2841C45.2378 84.3271 45.2292 84.3659 45.2206 84.4089C45.2163 84.4304 45.212 84.4562 45.2077 84.4778C45.2077 84.4864 45.2077 84.495 45.2077 84.5036C45.2077 84.5036 45.2077 84.5036 45.2077 84.5079C45.2034 84.5423 45.1991 84.5768 45.1948 84.6112C45.1948 84.6327 45.1905 84.6585 45.1862 84.6801C45.1776 84.6887 45.1691 84.6887 45.1562 84.6887C45.1433 84.6801 45.1304 84.6844 45.1218 84.6887C45.1218 84.6887 45.1218 84.6887 45.1175 84.6887C45.1046 84.6887 45.0918 84.6887 45.0832 84.6887C45.066 84.6887 45.0445 84.6887 45.0273 84.6887C44.9629 84.6887 44.9028 84.6887 44.8384 84.6887C44.8255 84.6887 44.8126 84.6887 44.804 84.6887C44.7911 84.6887 44.7782 84.6887 44.7696 84.6887C44.7653 84.6887 44.761 84.6887 44.7568 84.6887C44.7439 84.6887 44.731 84.6887 44.7224 84.6887C44.7138 84.6887 44.7095 84.6887 44.7009 84.6887C44.6966 84.6887 44.6923 84.6887 44.6837 84.6887C44.6752 84.6887 44.6709 84.6887 44.6623 84.6887C44.658 84.6887 44.6537 84.6887 44.6494 84.6887H44.6408C44.6365 84.6887 44.6322 84.6887 44.6236 84.6887H44.615C44.615 84.6887 44.615 84.6887 44.6107 84.6887C44.6021 84.6887 44.5978 84.6887 44.5893 84.6844C44.5807 84.6844 44.5764 84.6844 44.5678 84.6801C44.5635 84.6801 44.5592 84.6801 44.5549 84.6801C44.5377 84.6758 44.5248 84.6671 44.5076 84.6628C44.5076 84.6628 44.5034 84.6628 44.4991 84.6628C44.4819 84.6542 44.469 84.6499 44.4518 84.6413C44.4518 84.6413 44.4518 84.6413 44.4475 84.6413C44.4475 84.6413 44.4432 84.6413 44.4389 84.637C44.4218 84.6241 44.4046 84.6112 44.3874 84.6026C44.3874 84.6026 44.3874 84.6026 44.3831 84.6026C44.3702 84.594 44.3616 84.5811 44.3487 84.5725C44.3487 84.5725 44.3487 84.5725 44.3487 84.5682C44.3015 84.5122 44.2671 84.4476 44.2328 84.3831C44.2199 84.3616 44.2156 84.3357 44.207 84.3099C44.207 84.3099 44.207 84.3099 44.207 84.3056C44.207 84.297 44.2027 84.2884 44.1984 84.2798C44.1984 84.2798 44.1984 84.2798 44.1984 84.2755V84.2669C44.1984 84.2669 44.1984 84.2669 44.1984 84.2626C44.1984 84.2583 44.1984 84.2539 44.1941 84.2453C44.1941 84.2281 44.1855 84.2152 44.1812 84.198C44.1812 84.198 44.1812 84.198 44.1812 84.1937C44.1812 84.1808 44.1769 84.1722 44.1727 84.1593C44.1727 84.1507 44.1684 84.1463 44.1641 84.1377C44.1641 84.1291 44.1641 84.1205 44.1641 84.1119C44.1727 84.1033 44.1769 84.0947 44.1727 84.0818C44.1727 84.056 44.1855 84.0301 44.1941 84.0043C44.207 83.9656 44.2242 83.9311 44.2457 83.8967C44.2543 83.8795 44.2671 83.858 44.28 83.8407C44.28 83.8407 44.28 83.8408 44.28 83.8364C44.3015 83.802 44.323 83.7676 44.3444 83.7375C44.3444 83.7375 44.3444 83.7374 44.3444 83.7331C44.3831 83.6815 44.4218 83.6298 44.4604 83.5825C44.4604 83.5825 44.4604 83.5825 44.4604 83.5782C44.4776 83.561 44.4948 83.5395 44.5119 83.5179C44.4991 83.5093 44.4905 83.505 44.4776 83.5007C44.4776 83.5007 44.4776 83.5007 44.4733 83.5007C44.4733 83.5007 44.469 83.5007 44.4647 83.4964C44.4475 83.4878 44.4303 83.4749 44.4132 83.4663C44.4132 83.4663 44.4132 83.4663 44.4089 83.4663C44.4089 83.4663 44.4046 83.4663 44.4003 83.462C44.3831 83.4534 44.3659 83.4405 44.3487 83.4319C44.3487 83.4319 44.3487 83.4319 44.3444 83.4319C44.3444 83.4319 44.3402 83.4319 44.3359 83.4276C44.3187 83.4189 44.3015 83.406 44.2843 83.3974C44.2843 83.3974 44.2843 83.3974 44.28 83.3974C44.28 83.3974 44.2757 83.3974 44.2714 83.3931C44.2585 83.3845 44.2457 83.3802 44.2371 83.3716C44.2371 83.3716 44.2371 83.363 44.2414 83.363C44.2714 83.363 44.3015 83.3544 44.3316 83.3501C44.3702 83.3458 44.4089 83.3372 44.4475 83.3329C44.4862 83.3286 44.5248 83.32 44.5592 83.3156C44.6064 83.307 44.658 83.3027 44.7052 83.2941C44.7224 83.2941 44.7396 83.2941 44.7568 83.2812C44.7653 83.2769 44.7782 83.2812 44.7868 83.2812C44.8341 83.2726 44.8856 83.2683 44.9328 83.2597C44.9887 83.2511 45.0488 83.2382 45.1046 83.2296C45.1519 83.221 45.2034 83.2167 45.2507 83.208C45.3022 83.1994 45.358 83.1908 45.4096 83.1822C45.4096 83.1822 45.4268 83.2123 45.4353 83.2296C45.4439 83.2511 45.4525 83.2726 45.4611 83.2941C45.4611 83.2941 45.4611 83.2941 45.4611 83.2984C45.4611 83.2984 45.4611 83.3027 45.4654 83.307C45.474 83.3286 45.4869 83.3501 45.4955 83.3716C45.5041 83.3931 45.5126 83.4146 45.5212 83.4362C45.5212 83.4362 45.5212 83.4362 45.5212 83.4405C45.5212 83.4405 45.5212 83.4405 45.5255 83.4448C45.5341 83.4663 45.547 83.4878 45.5556 83.5093C45.5642 83.5309 45.5728 83.5524 45.5814 83.5739C45.5814 83.5739 45.5814 83.5739 45.5814 83.5782C45.5814 83.5782 45.5814 83.5782 45.5857 83.5825C45.5942 83.604 45.6071 83.6255 45.6157 83.6471C45.6243 83.6686 45.6329 83.6901 45.6415 83.7116C45.6415 83.7116 45.6415 83.7116 45.6415 83.7159C45.6415 83.7159 45.6415 83.7159 45.6458 83.7202C45.663 83.7633 45.6844 83.802 45.7016 83.8407C45.7016 83.8407 45.7016 83.8451 45.7016 83.8494C45.7016 83.8494 45.7016 83.8494 45.7016 83.8537C45.7016 83.8537 45.7016 83.8537 45.7059 83.858C45.7231 83.901 45.7446 83.9441 45.7618 83.9871C45.7618 83.9871 45.7618 83.9871 45.7618 83.9914C45.7618 83.9914 45.7617 83.9914 45.766 83.9957C45.7789 84.0215 45.7875 84.0517 45.8004 84.0775H45.7918C45.7618 84.0646 45.736 84.0517 45.7059 84.0344H45.6973C45.6844 84.0344 45.6759 84.0258 45.663 84.0215C45.663 84.0215 45.6544 84.0215 45.6501 84.0215H45.6415H45.6329H45.6243H45.6157C45.6114 84.0215 45.6071 84.0215 45.6028 84.0215C45.6028 84.0215 45.5943 84.0215 45.5943 84.0172L45.5513 83.9354Z" fill="#019D47"/>
<path d="M45.65 86.109H45.6414C45.6328 86.109 45.6285 86.109 45.6199 86.109H45.6113C45.6028 86.109 45.5985 86.109 45.5899 86.109C45.5856 86.109 45.5813 86.109 45.577 86.109C45.5684 86.109 45.5641 86.109 45.5555 86.109H45.5469C45.5383 86.109 45.534 86.109 45.5254 86.109C45.5212 86.109 45.5169 86.109 45.5126 86.109C45.504 86.109 45.4997 86.109 45.4911 86.109C45.4868 86.109 45.4825 86.109 45.4782 86.109C45.4696 86.109 45.461 86.109 45.4524 86.109C45.4481 86.109 45.4438 86.109 45.4353 86.109C45.4267 86.109 45.4224 86.109 45.4138 86.109C45.4052 86.109 45.4009 86.109 45.3923 86.109C45.388 86.109 45.3837 86.109 45.3751 86.109C45.3622 86.109 45.3494 86.109 45.3408 86.1133C45.3408 86.1133 45.3408 86.1133 45.3365 86.1177C45.3236 86.1177 45.315 86.1177 45.3021 86.1177C45.2935 86.1177 45.2892 86.1177 45.2806 86.1177C45.2635 86.1177 45.2506 86.1176 45.2334 86.122H45.2248C45.2076 86.122 45.1862 86.122 45.169 86.122C45.1561 86.122 45.1475 86.122 45.1346 86.122C45.1217 86.122 45.1088 86.122 45.096 86.122C45.0788 86.122 45.0659 86.122 45.0487 86.122C45.0401 86.122 45.0272 86.122 45.0187 86.122C45.0058 86.122 44.9929 86.122 44.9757 86.122C44.9714 86.122 44.9671 86.1177 44.9628 86.1133C44.9628 86.1133 44.9628 86.1133 44.9628 86.109C44.9628 86.109 44.9585 86.1004 44.9542 86.0961C44.9542 86.0961 44.9542 86.0961 44.9542 86.0918C44.9371 86.066 44.9242 86.0445 44.907 86.0187C44.907 86.0187 44.907 86.0144 44.9027 86.01C44.9027 86.01 44.9027 86.0057 44.9027 86.0014C44.9027 86.0014 44.9027 85.9971 44.8984 85.9928C44.8984 85.9928 44.8984 85.9885 44.8941 85.9842C44.8941 85.9842 44.8941 85.9799 44.8941 85.9756C44.8941 85.967 44.8855 85.9627 44.8812 85.9541C44.8812 85.9541 44.8812 85.9498 44.8769 85.9455C44.8769 85.9455 44.8769 85.9412 44.8769 85.9369C44.8769 85.9283 44.8683 85.924 44.864 85.9154C44.864 85.9154 44.864 85.911 44.8597 85.9067C44.8597 85.9067 44.8597 85.9067 44.8597 85.9024C44.8597 85.8938 44.8512 85.8895 44.8469 85.8809C44.8469 85.8809 44.8469 85.8766 44.8426 85.8723C44.8426 85.8723 44.8426 85.868 44.8426 85.8637C44.8254 85.8336 44.8125 85.8077 44.7953 85.7776C44.7953 85.7776 44.7953 85.7733 44.791 85.769C44.791 85.769 44.791 85.7647 44.791 85.7604C44.7824 85.7432 44.7739 85.726 44.7653 85.7088C44.7653 85.7088 44.7653 85.7045 44.761 85.7001C44.761 85.7001 44.761 85.6958 44.761 85.6915C44.7524 85.6743 44.7438 85.6571 44.7352 85.6399C44.7352 85.6399 44.7352 85.6356 44.7309 85.6313C44.7309 85.6313 44.7309 85.627 44.7309 85.6227C44.7137 85.5925 44.7008 85.5624 44.6837 85.5323C44.6837 85.5323 44.6837 85.528 44.6794 85.5237C44.6794 85.5237 44.6794 85.5194 44.6794 85.5151C44.6794 85.5108 44.6751 85.5022 44.6708 85.4979C44.6708 85.4979 44.6708 85.4979 44.6708 85.4935C44.6493 85.4505 44.6235 85.4075 44.6021 85.3601C44.5892 85.3386 44.5806 85.3128 44.5677 85.2869C44.5677 85.2869 44.5677 85.2869 44.5677 85.2826C44.5376 85.2224 44.5076 85.1664 44.4775 85.1062C44.4689 85.0846 44.4603 85.0631 44.4474 85.0416C44.4474 85.0416 44.4474 85.0416 44.4474 85.0373C44.4346 85.0072 44.4174 84.977 44.4045 84.9469C44.3873 84.9125 44.3701 84.8737 44.353 84.8393C44.353 84.8393 44.353 84.835 44.353 84.8307C44.3401 84.8049 44.3272 84.7747 44.3143 84.7489C44.3143 84.7489 44.3143 84.7446 44.3143 84.7403C44.31 84.7274 44.3057 84.7145 44.3014 84.7016C44.3014 84.693 44.3014 84.6844 44.2971 84.6715C44.3229 84.7016 44.3572 84.7188 44.3916 84.7317C44.4131 84.7403 44.4346 84.7489 44.4517 84.7575C44.456 84.7575 44.4646 84.7575 44.4689 84.7575C44.4689 84.7575 44.4732 84.7575 44.4775 84.7575C44.5033 84.7661 44.529 84.7748 44.5505 84.7791C44.5634 84.7791 44.5763 84.7791 44.5849 84.7834C44.5849 84.7834 44.5935 84.7834 44.5978 84.7834H44.6063C44.6106 84.7834 44.6149 84.7834 44.6192 84.7834C44.6278 84.7834 44.6321 84.7834 44.6407 84.7877C44.6579 84.7877 44.6794 84.7963 44.6965 84.7963C44.7051 84.7963 44.718 84.7963 44.7266 84.8006H44.7352C44.7438 84.8006 44.7524 84.8006 44.761 84.8049H44.7696C44.7824 84.8049 44.7953 84.8049 44.8039 84.8092H44.8125C44.834 84.8178 44.8512 84.8135 44.8726 84.8178C44.8898 84.8178 44.9113 84.8178 44.9285 84.8221C44.9456 84.8221 44.9671 84.8221 44.9843 84.8221C44.9929 84.8221 45.0058 84.8221 45.0144 84.8221C45.0315 84.8221 45.0487 84.8221 45.0659 84.8221C45.0788 84.8221 45.0917 84.8221 45.1088 84.8178C45.1217 84.8178 45.1346 84.8135 45.1475 84.8092C45.1518 84.8092 45.1561 84.8092 45.1604 84.8092C45.1604 84.8092 45.169 84.8092 45.1733 84.8092C45.1733 84.8092 45.1776 84.8092 45.1819 84.8092C45.2162 84.8006 45.2463 84.792 45.2806 84.7834C45.2806 84.7834 45.2849 84.7834 45.2892 84.7834C45.3665 84.7575 45.4396 84.736 45.5126 84.7102C45.6543 84.6585 45.7917 84.6112 45.9292 84.5552C46.0151 84.5251 46.0967 84.4907 46.1783 84.4562C46.277 84.4175 46.3758 84.3788 46.4746 84.3357C46.5176 84.3185 46.5605 84.3013 46.6035 84.2841H46.612C46.612 84.3443 46.612 84.4046 46.612 84.4605C46.612 84.5552 46.612 84.6499 46.6035 84.7446C46.5949 84.8953 46.5863 85.0459 46.5734 85.2009C46.5734 85.2353 46.5648 85.2697 46.5648 85.3042V85.3128C46.5648 85.3214 46.5648 85.3343 46.5648 85.3429V85.3515C46.5562 85.3989 46.5519 85.4462 46.5433 85.4935C46.5347 85.5409 46.5261 85.5882 46.5176 85.6356C46.5176 85.6356 46.5047 85.6743 46.5004 85.6915C46.4875 85.7389 46.4617 85.7776 46.4231 85.8078C46.4231 85.8078 46.4188 85.8121 46.4145 85.8164C46.4145 85.8164 46.4145 85.8164 46.4102 85.8207C46.393 85.8336 46.3715 85.8465 46.3544 85.8551C46.3544 85.8551 46.3501 85.8551 46.3458 85.8594C46.3458 85.8594 46.3458 85.8594 46.3415 85.8594C46.3286 85.868 46.3114 85.8723 46.2985 85.8809C46.2985 85.8809 46.2942 85.8809 46.2899 85.8852C46.2642 85.8938 46.2384 85.9067 46.2126 85.9154C46.2126 85.9154 46.2083 85.9154 46.204 85.9154C46.1783 85.924 46.1525 85.9326 46.1267 85.9412C46.1224 85.9412 46.1181 85.9412 46.1138 85.9455C46.101 85.9455 46.0881 85.9541 46.0795 85.9584C46.0752 85.9584 46.0709 85.9584 46.0623 85.9584C46.0623 85.9584 46.0623 85.9584 46.058 85.9584C46.0537 85.9584 46.0494 85.9584 46.0451 85.9584C46.0365 85.9584 46.0322 85.9584 46.0237 85.9627C46.0194 85.9627 46.0151 85.9627 46.0065 85.9627C46.0065 85.9627 46.0065 85.9627 46.0022 85.9627C45.9979 85.9627 45.9936 85.9627 45.985 85.9627C45.985 85.9627 45.985 85.9627 45.9807 85.9627C45.9764 85.9627 45.9721 85.9627 45.9635 85.9627C45.9635 85.9627 45.9635 85.9627 45.9592 85.9627C45.9549 85.9627 45.9463 85.9627 45.9421 85.9627C45.9421 85.9627 45.9378 85.9627 45.9335 85.9627C45.9292 85.9627 45.9249 85.9627 45.9206 85.9627C45.9206 85.9627 45.9206 85.9627 45.9163 85.9627C45.912 85.9627 45.9077 85.9627 45.8991 85.9627C45.8991 85.9627 45.8991 85.9627 45.8948 85.9627C45.8862 85.9627 45.8819 85.9627 45.8733 85.967C45.8733 85.967 45.8733 85.967 45.869 85.967C45.8604 85.967 45.8562 85.967 45.8476 85.9713C45.8476 85.9713 45.8476 85.9713 45.8433 85.9713C45.839 85.9713 45.8347 85.9713 45.8261 85.9713C45.8261 85.9713 45.8261 85.9713 45.8218 85.9713C45.8132 85.9713 45.8046 85.9713 45.796 85.9713C45.796 85.9713 45.796 85.9713 45.7917 85.9713C45.7874 85.9713 45.7831 85.9713 45.7746 85.9713H45.766C45.7617 85.9713 45.7574 85.9713 45.7488 85.9713C45.7445 85.9713 45.7402 85.9713 45.7359 85.9713C45.7316 85.9713 45.7273 85.9713 45.7187 85.9713L45.65 86.109Z" fill="#009D47"/>
<path d="M46.1053 81.1593C46.1053 81.1593 46.1311 81.1593 46.1397 81.1593C46.144 81.1593 46.1483 81.1593 46.1569 81.1593H46.1655C46.1698 81.1593 46.174 81.1593 46.1826 81.1636H46.1912C46.2084 81.1679 46.2256 81.1722 46.2428 81.1765C46.2642 81.1808 46.2814 81.1851 46.3029 81.1894H46.3115C46.3115 81.1894 46.3115 81.1894 46.3158 81.1894C46.3158 81.1894 46.3201 81.1894 46.3244 81.1894C46.333 81.1894 46.3458 81.1937 46.3544 81.198H46.363C46.363 81.198 46.363 81.198 46.3673 81.198C46.3673 81.198 46.3716 81.198 46.3759 81.198C46.4017 81.2066 46.4317 81.2152 46.4575 81.2195H46.4661C46.4661 81.2195 46.4661 81.2195 46.4704 81.2195C46.4704 81.2195 46.4747 81.2195 46.479 81.2195C46.4919 81.2238 46.509 81.2324 46.5219 81.2367C46.5606 81.2496 46.5992 81.2583 46.6336 81.2712C46.6508 81.2755 46.668 81.2798 46.6851 81.2841C46.6851 81.2841 46.6894 81.2841 46.6937 81.2841C46.7066 81.2927 46.7195 81.297 46.7324 81.297H46.741C46.7582 81.3013 46.7753 81.3099 46.7882 81.3142C46.8398 81.3314 46.8956 81.3486 46.9471 81.3659C47.0287 81.3917 47.1103 81.4175 47.1876 81.4433C47.2649 81.4692 47.3465 81.4993 47.4239 81.5294C47.4324 81.5294 47.441 81.5337 47.4496 81.538C47.4496 81.538 47.4496 81.538 47.4539 81.538C47.4797 81.5466 47.5055 81.5595 47.5269 81.5681C47.5613 81.5811 47.5956 81.5983 47.63 81.6155C47.6257 81.6155 47.6214 81.6155 47.6171 81.6198C47.6085 81.6198 47.6042 81.6198 47.5956 81.6241C47.5914 81.6241 47.5871 81.6241 47.5785 81.6284C47.5613 81.6284 47.5441 81.6413 47.5269 81.6456C47.5226 81.6456 47.514 81.6456 47.5098 81.6499H47.5012C47.4711 81.6671 47.441 81.6801 47.411 81.6973C47.411 81.6973 47.4067 81.6973 47.4024 81.7016C47.4024 81.7016 47.4024 81.7016 47.3981 81.7016C47.3981 81.7016 47.3895 81.7016 47.3895 81.7059C47.3895 81.7059 47.3852 81.7059 47.3809 81.7102C47.3809 81.7102 47.3809 81.7102 47.3766 81.7145C47.368 81.7188 47.3594 81.7231 47.3508 81.7317C47.3508 81.7317 47.3465 81.7317 47.3423 81.736C47.3423 81.736 47.3423 81.736 47.338 81.7403C47.338 81.7403 47.3337 81.7403 47.3294 81.7446C47.3294 81.7446 47.3294 81.7446 47.3251 81.7446C47.3251 81.7446 47.3208 81.7446 47.3165 81.7489C47.3165 81.7489 47.3165 81.7489 47.3122 81.7489C47.3122 81.7489 47.3079 81.7489 47.3036 81.7532C47.3036 81.7532 47.3036 81.7532 47.2993 81.7532C47.2907 81.7575 47.2821 81.7661 47.2735 81.7704C47.2735 81.7704 47.2735 81.7705 47.2692 81.7748C47.2606 81.7791 47.2564 81.7834 47.2478 81.792C47.2478 81.792 47.2435 81.792 47.2392 81.7963C47.2392 81.7963 47.2392 81.7963 47.2349 81.7963C47.2349 81.7963 47.2349 81.7963 47.2306 81.8006C47.2306 81.8006 47.2263 81.8006 47.222 81.8049C47.2177 81.8049 47.2091 81.8135 47.2048 81.8178C47.2048 81.8178 47.2048 81.8178 47.2005 81.8221C47.1962 81.8221 47.1876 81.8307 47.1833 81.835C47.1833 81.835 47.1833 81.835 47.179 81.8393C47.1748 81.8436 47.1662 81.8479 47.1619 81.8522C47.1533 81.8608 47.1404 81.8694 47.1318 81.8781C47.1318 81.8781 47.1318 81.8781 47.1318 81.8824C47.1146 81.8953 47.1017 81.9125 47.0846 81.9254C47.0846 81.9254 47.0846 81.9254 47.0803 81.9254C47.0803 81.9254 47.0803 81.9254 47.076 81.9254C47.0588 81.9426 47.0459 81.9555 47.0287 81.9727C47.0287 81.9727 47.0287 81.9727 47.0287 81.9771C47.0287 81.9771 47.0287 81.977 47.0287 81.9814C47.0287 81.9814 47.0287 81.9813 47.0287 81.9857C47.0201 81.9943 47.0115 82.0072 47.003 82.0158C47.003 82.0158 47.003 82.0158 47.003 82.0201C47.003 82.0201 47.003 82.0201 47.003 82.0244C46.9944 82.033 46.9858 82.0459 46.9815 82.0545C46.9815 82.0545 46.9815 82.0545 46.9815 82.0588C46.9815 82.0588 46.9815 82.0674 46.9772 82.0674C46.9772 82.0674 46.9772 82.0717 46.9729 82.076C46.9729 82.076 46.9729 82.076 46.9729 82.0803C46.9729 82.0803 46.9729 82.089 46.9686 82.089C46.9428 82.1363 46.9171 82.1793 46.8913 82.2267C46.8526 82.3085 46.814 82.3859 46.771 82.4677C46.771 82.472 46.7667 82.4806 46.7624 82.4849C46.7624 82.4849 46.7624 82.4892 46.7582 82.4935C46.7496 82.5151 46.7367 82.5366 46.7281 82.5624C46.7281 82.5624 46.7281 82.5667 46.7238 82.571C46.7238 82.571 46.7238 82.571 46.7238 82.5753C46.7152 82.5925 46.7109 82.6098 46.7023 82.627C46.7023 82.627 46.7023 82.6313 46.698 82.6356C46.6894 82.6528 46.6851 82.6657 46.6765 82.6829C46.6765 82.6829 46.6765 82.6872 46.6723 82.6915C46.6723 82.6915 46.6723 82.6915 46.6723 82.6958C46.668 82.7088 46.6637 82.726 46.6551 82.7389C46.6551 82.7389 46.6551 82.7432 46.6551 82.7475C46.6508 82.7604 46.6422 82.7733 46.6379 82.7862C46.6379 82.7862 46.6379 82.7905 46.6336 82.7948C46.6336 82.7948 46.6336 82.7948 46.6336 82.7991C46.6336 82.8077 46.625 82.8207 46.6207 82.8293C46.6207 82.8293 46.6207 82.8336 46.6207 82.8379C46.6164 82.8508 46.6121 82.8637 46.6035 82.8766C46.6035 82.8766 46.6035 82.8809 46.6035 82.8852C46.5864 82.9197 46.5735 82.9584 46.5563 82.9928C46.5563 82.9928 46.5563 82.9971 46.5563 83.0014C46.5563 83.01 46.5477 83.0187 46.5434 83.0273C46.5434 83.0273 46.5434 83.0316 46.5391 83.0359C46.5391 83.0359 46.5391 83.0359 46.5391 83.0402C46.5305 83.0617 46.5219 83.0832 46.5133 83.1004C46.5048 83.122 46.4962 83.1435 46.4876 83.165C46.4876 83.165 46.4876 83.165 46.4876 83.1693C46.4876 83.1693 46.4876 83.1693 46.4876 83.1736C46.4876 83.1822 46.4876 83.1865 46.4833 83.1951C46.4833 83.1951 46.4833 83.1951 46.4833 83.1994C46.4833 83.1994 46.4833 83.1994 46.4833 83.2037C46.4833 83.2123 46.4833 83.2166 46.479 83.2253C46.479 83.2253 46.479 83.2296 46.479 83.2339C46.4618 83.2726 46.4446 83.307 46.4317 83.3458C46.4317 83.3458 46.4317 83.3458 46.4317 83.3501C46.4317 83.3501 46.4317 83.3501 46.4317 83.3544C46.4274 83.3716 46.4232 83.3845 46.4146 83.4017C46.4146 83.4017 46.4146 83.4017 46.4146 83.406C46.4146 83.406 46.4146 83.406 46.4146 83.4103C46.4146 83.4189 46.4146 83.4232 46.4103 83.4319C46.4103 83.4319 46.4103 83.4319 46.406 83.4362C46.406 83.4362 46.406 83.4362 46.4017 83.4362C46.4017 83.4362 46.3974 83.4319 46.3931 83.4276C46.3845 83.4189 46.3802 83.4103 46.3716 83.406C46.3716 83.406 46.3716 83.4017 46.3716 83.3974C46.3716 83.3974 46.3716 83.3974 46.3716 83.3931C46.3716 83.3931 46.3716 83.3931 46.3716 83.3888C46.3716 83.3888 46.3716 83.3888 46.3716 83.3845C46.3716 83.3845 46.3716 83.3845 46.3716 83.3802C46.3716 83.3802 46.3716 83.3802 46.3716 83.3759C46.3373 83.3415 46.2986 83.3027 46.2642 83.2683C46.2642 83.2683 46.2642 83.264 46.2642 83.2597C46.2642 83.2597 46.2599 83.2554 46.2557 83.2511C46.2557 83.2511 46.2557 83.2511 46.2557 83.2468C46.2385 83.2296 46.2213 83.2123 46.1998 83.1951C46.1998 83.1951 46.1998 83.1908 46.1998 83.1865C46.1869 83.1736 46.1783 83.1607 46.1655 83.1478C46.1655 83.1478 46.1655 83.1478 46.1612 83.1435C46.1612 83.1435 46.1612 83.1392 46.1569 83.1349C46.1569 83.1349 46.1569 83.1349 46.1569 83.1306C46.1569 83.1306 46.1569 83.1306 46.1569 83.1263C46.1483 83.1133 46.1354 83.1047 46.1268 83.0961C46.1139 83.0832 46.1053 83.0703 46.0924 83.0574C46.0839 83.0488 46.0753 83.0402 46.0667 83.0316C46.0667 83.0316 46.0667 83.0316 46.0667 83.0273C46.0581 83.0187 46.0495 83.01 46.0409 83.0014C46.0409 83.0014 46.0409 83.0014 46.0409 82.9971C46.0409 82.9971 46.0409 82.9971 46.0409 82.9928C46.0366 82.9842 46.028 82.9799 46.0237 82.9713C46.0237 82.9713 46.0237 82.9713 46.0237 82.967C46.0194 82.9584 46.0108 82.9541 46.0066 82.9455C46.0066 82.9455 46.0066 82.9455 46.0066 82.9412C46.0023 82.9326 45.9937 82.9283 45.9894 82.9197C45.9894 82.9197 45.9722 82.8981 45.9636 82.8895C45.9636 82.8895 45.9636 82.8895 45.9636 82.8852C45.9593 82.8766 45.9507 82.8723 45.9464 82.8637C45.9464 82.8637 45.9464 82.8637 45.9464 82.8594C45.9421 82.8551 45.9378 82.8465 45.9335 82.8422C45.9335 82.8422 45.9335 82.8422 45.9335 82.8379C45.9292 82.8336 45.9249 82.825 45.9207 82.8207C45.9207 82.8207 45.9207 82.8207 45.9207 82.8164C45.9164 82.8121 45.9121 82.8034 45.9078 82.7991V82.7948C45.9078 82.7948 45.9035 82.7862 45.8992 82.7819C45.882 82.7561 45.8605 82.7303 45.8433 82.7088C45.8433 82.7088 45.8433 82.7045 45.8391 82.7001C45.8391 82.7001 45.8391 82.7001 45.8391 82.6958C45.8348 82.6872 45.8305 82.6829 45.8219 82.6743C45.8219 82.6743 45.8219 82.67 45.8176 82.6657C45.8176 82.6657 45.8176 82.6657 45.8176 82.6614C45.8176 82.6614 45.8176 82.6571 45.8133 82.6528C45.8133 82.6528 45.8133 82.6485 45.8133 82.6442C45.8047 82.6356 45.8004 82.6227 45.7918 82.6141C45.7918 82.6141 45.7918 82.6098 45.7875 82.6055C45.7875 82.6055 45.7875 82.6055 45.7875 82.6012C45.766 82.5581 45.7446 82.5194 45.7231 82.4763C45.7102 82.4462 45.7102 82.4118 45.7102 82.3773C45.7102 82.3472 45.7188 82.3128 45.7274 82.2826C45.7274 82.2826 45.7274 82.274 45.7274 82.2697C45.736 82.2525 45.7403 82.231 45.7489 82.2138C45.7489 82.2052 45.7532 82.2009 45.7574 82.1923C45.7574 82.188 45.7617 82.1836 45.766 82.1793C45.7832 82.132 45.8047 82.0933 45.8262 82.0502C45.839 82.0244 45.8519 82.0029 45.8648 81.9771C45.8648 81.9771 45.8648 81.977 45.8648 81.9727C45.8777 81.9512 45.8906 81.9297 45.9035 81.9039C45.9035 81.9039 45.9035 81.9039 45.9035 81.8996C45.9035 81.8996 45.9164 81.8781 45.9249 81.8651C45.9249 81.8651 45.9249 81.8651 45.9249 81.8608C45.9249 81.8608 45.9249 81.8565 45.9249 81.8522C45.9249 81.8522 45.9249 81.8522 45.9249 81.8479C45.9421 81.8178 45.9636 81.792 45.9808 81.7618C45.9808 81.7618 45.9808 81.7618 45.9808 81.7575C45.9808 81.7575 45.9808 81.7532 45.9851 81.7489C45.9851 81.7489 45.9851 81.7489 45.9851 81.7446C45.9937 81.7317 46.0065 81.7188 46.0151 81.7016C46.0151 81.7016 46.0151 81.7016 46.0151 81.6973C46.0151 81.6973 46.0151 81.6973 46.0151 81.693C46.028 81.6758 46.0366 81.6628 46.0495 81.6456C46.0495 81.6456 46.0495 81.6456 46.0495 81.6413C46.0495 81.6413 46.0538 81.6327 46.0581 81.6284C46.0581 81.6284 46.0581 81.6284 46.0581 81.6241C46.0581 81.6241 46.0624 81.6155 46.0667 81.6112C46.0667 81.6112 46.0667 81.6112 46.0667 81.6069C46.0667 81.6069 46.071 81.5983 46.0753 81.594C46.0753 81.594 46.0753 81.594 46.0753 81.5897C46.0753 81.5897 46.0967 81.5638 46.1053 81.5509C46.1053 81.5509 46.1053 81.5509 46.1053 81.5466C46.1139 81.5337 46.1268 81.5208 46.1354 81.5079C46.1354 81.5079 46.1354 81.5079 46.1354 81.5036C46.1354 81.5036 46.144 81.4907 46.1483 81.4864C46.1483 81.4864 46.1483 81.4864 46.1483 81.4821C46.1483 81.4821 46.1483 81.4821 46.1483 81.4778C46.1526 81.4692 46.1612 81.4649 46.1655 81.4562C46.1655 81.4562 46.174 81.4433 46.1783 81.439C46.1783 81.439 46.1783 81.439 46.1783 81.4347C46.1783 81.4347 46.1783 81.4347 46.1783 81.4304C46.1869 81.4175 46.1955 81.4089 46.2084 81.396C46.217 81.3831 46.2256 81.3745 46.2385 81.3616C46.2514 81.3486 46.2599 81.3357 46.2728 81.3228C46.2728 81.3228 46.2728 81.3228 46.2728 81.3185C46.2728 81.3185 46.2728 81.3142 46.2728 81.3099C46.2857 81.297 46.2943 81.2884 46.3072 81.2755C46.3244 81.2583 46.3416 81.2453 46.3587 81.2324L46.1053 81.1593Z" fill="#009D47"/>
<path d="M48.7466 82.6571C48.7466 82.6571 48.7251 82.6872 48.7122 82.7044C48.7122 82.7044 48.7122 82.7045 48.7122 82.7088C48.7122 82.7088 48.6908 82.7432 48.6779 82.7561C48.6779 82.7561 48.6779 82.7561 48.6779 82.7604C48.6564 82.7905 48.6392 82.8164 48.6178 82.8465C48.6178 82.8465 48.6178 82.8465 48.6178 82.8508C48.6049 82.868 48.5963 82.8809 48.5834 82.8981C48.5834 82.8981 48.5834 82.8981 48.5834 82.9024C48.5705 82.9197 48.5619 82.9326 48.549 82.9498C48.549 82.9498 48.549 82.9498 48.549 82.9541C48.549 82.9541 48.5276 82.9885 48.5147 83.0014C48.5147 83.0014 48.5147 83.0014 48.5147 83.0057C48.5018 83.023 48.4932 83.0359 48.4803 83.0531C48.4803 83.0531 48.4803 83.0531 48.4803 83.0574C48.4588 83.0875 48.4417 83.1133 48.4202 83.1435C48.4202 83.1435 48.4202 83.1435 48.4202 83.1478C48.4202 83.1478 48.4202 83.1478 48.4202 83.1521C48.4073 83.1693 48.3987 83.1822 48.3858 83.1994C48.3858 83.1994 48.3858 83.1994 48.3858 83.2037C48.373 83.2209 48.3644 83.2339 48.3515 83.2511C48.3515 83.2511 48.3515 83.2511 48.3515 83.2554C48.3515 83.2554 48.33 83.2898 48.3171 83.3027C48.3171 83.3027 48.3171 83.3027 48.3171 83.307C48.3042 83.3243 48.2956 83.3372 48.2828 83.3544C48.2828 83.3544 48.2828 83.3544 48.2828 83.3587C48.2699 83.3759 48.2613 83.3888 48.2484 83.406C48.2484 83.406 48.2484 83.406 48.2484 83.4103C48.2484 83.4103 48.2312 83.4405 48.214 83.4319H48.2054C48.141 83.406 48.0723 83.3845 48.0079 83.3587H47.9993C47.9349 83.3329 47.8662 83.3113 47.8017 83.2855H47.7931C47.7287 83.2597 47.66 83.2382 47.5956 83.2123H47.587C47.5226 83.1865 47.4538 83.165 47.3894 83.1392H47.3808C47.3508 83.1306 47.3207 83.1176 47.2906 83.109C47.2864 83.109 47.2778 83.109 47.2821 83.0961C47.2821 83.0961 47.2906 83.0961 47.2949 83.0961C47.3207 83.0875 47.3508 83.0789 47.3765 83.0703C47.4152 83.0531 47.4539 83.0273 47.4925 83.01C47.5011 83.0057 47.5054 82.9971 47.514 82.9928C47.514 82.9928 47.514 82.9928 47.5183 82.9928C47.5183 82.9928 47.5269 82.9885 47.5312 82.9842C47.5312 82.9842 47.5312 82.9842 47.5355 82.9842C47.5483 82.9713 47.5655 82.9627 47.5784 82.9498C47.6042 82.924 47.6085 82.8895 47.6042 82.8594C47.6042 82.8379 47.5956 82.8121 47.5913 82.7905C47.5913 82.7905 47.5913 82.7819 47.5913 82.7776C47.5913 82.7776 47.5913 82.7776 47.5913 82.7733C47.5827 82.7518 47.5784 82.7303 47.5698 82.7131C47.5526 82.6786 47.5355 82.6442 47.514 82.6055C47.514 82.6055 47.514 82.6011 47.5097 82.5968C47.5097 82.5968 47.5097 82.5925 47.5097 82.5882C47.4968 82.5667 47.4839 82.5495 47.4753 82.528C47.4753 82.528 47.4753 82.5237 47.471 82.5194C47.471 82.5194 47.471 82.5151 47.471 82.5108C47.4624 82.4979 47.4539 82.4849 47.4453 82.472C47.4453 82.472 47.4453 82.4677 47.441 82.4634C47.441 82.4634 47.441 82.4634 47.441 82.4591C47.4281 82.4419 47.4152 82.4204 47.4023 82.4032C47.4023 82.4032 47.4023 82.4032 47.4023 82.3989C47.4023 82.3989 47.4023 82.3946 47.398 82.3902C47.398 82.3902 47.398 82.3902 47.398 82.3859C47.3937 82.3773 47.3894 82.373 47.3851 82.3644C47.3851 82.3644 47.3851 82.3601 47.3808 82.3558V82.3515C47.3808 82.3515 47.3765 82.3429 47.3722 82.3386C47.3722 82.3386 47.3722 82.3386 47.3722 82.3343C47.3722 82.3343 47.368 82.3257 47.3637 82.3214C47.3637 82.3214 47.3637 82.3214 47.3637 82.3171C47.3637 82.3171 47.3594 82.3085 47.3551 82.3042V82.2999C47.3551 82.2999 47.3508 82.2912 47.3465 82.2869C47.3465 82.2869 47.3465 82.2869 47.3465 82.2826C47.3465 82.2826 47.3465 82.2826 47.3422 82.2783C47.3422 82.2783 47.3422 82.274 47.3379 82.2697C47.3336 82.2654 47.3293 82.2568 47.325 82.2525C47.325 82.2525 47.325 82.2525 47.325 82.2482C47.3164 82.2353 47.325 82.231 47.3293 82.2224C47.3336 82.2138 47.3422 82.2095 47.3465 82.2009C47.3465 82.2009 47.3465 82.2009 47.3465 82.1966C47.3465 82.1966 47.3465 82.1966 47.3465 82.1923C47.3551 82.1837 47.3637 82.1707 47.3765 82.1621C47.3765 82.1621 47.3765 82.1621 47.3765 82.1578V82.1492C47.398 82.1277 47.4195 82.1062 47.441 82.0847C47.441 82.0847 47.441 82.0847 47.441 82.0803C47.4538 82.0674 47.4667 82.0545 47.4796 82.0459C47.4968 82.0287 47.514 82.0115 47.5312 81.9943C47.5312 81.9943 47.5355 81.9943 47.5397 81.9943C47.5483 81.9857 47.5569 81.9814 47.5612 81.9727C47.5698 81.9641 47.5784 81.9555 47.5913 81.9469C47.5913 81.9469 47.5913 81.9469 47.5956 81.9469C47.6128 81.934 47.6299 81.9211 47.6471 81.9082C47.6471 81.9082 47.6471 81.9082 47.6514 81.9082C47.6643 81.8996 47.6772 81.891 47.6901 81.8824C47.6901 81.8824 47.6901 81.8824 47.6944 81.8824C47.6944 81.8824 47.703 81.8824 47.7072 81.8781C47.7373 81.8565 47.7717 81.8436 47.806 81.8307H47.8146C47.8232 81.8307 47.8361 81.8264 47.8447 81.8221H47.8533C47.8833 81.8221 47.9134 81.8135 47.9435 81.8092C47.9606 81.8092 47.9778 81.8092 47.995 81.8092C47.995 81.8092 48.0294 81.8092 48.0465 81.8135C48.0723 81.8135 48.0938 81.8221 48.1153 81.8307C48.1453 81.8393 48.1754 81.8479 48.2054 81.8608C48.257 81.8824 48.3042 81.9082 48.3558 81.934C48.3558 81.934 48.3558 81.934 48.3601 81.934C48.3601 81.934 48.3644 81.934 48.3687 81.9383C48.373 81.9383 48.3815 81.9469 48.3901 81.9512C48.4202 81.9641 48.446 81.9857 48.4674 82.0115C48.4674 82.0115 48.4674 82.0115 48.4674 82.0158C48.4717 82.0244 48.476 82.0287 48.4803 82.0373C48.4803 82.0373 48.4803 82.0416 48.4803 82.0459C48.4889 82.0631 48.4975 82.0804 48.5061 82.0976C48.519 82.1449 48.5362 82.1923 48.549 82.2396C48.5576 82.2783 48.5662 82.3171 48.5748 82.3558C48.5834 82.3945 48.592 82.429 48.5963 82.4677C48.6049 82.5323 48.6092 82.5968 48.6178 82.6657C48.6178 82.6743 48.6263 82.6743 48.6306 82.6657C48.6435 82.6657 48.6564 82.6614 48.665 82.6571C48.665 82.6571 48.6693 82.6571 48.6736 82.6571C48.6994 82.6528 48.7251 82.6442 48.7509 82.6399C48.7509 82.6399 48.7552 82.6399 48.7595 82.6399C48.7595 82.6399 48.7681 82.6399 48.7724 82.6399H48.781C48.8067 82.6356 48.8325 82.627 48.8583 82.6227C48.8583 82.6227 48.8626 82.6227 48.8669 82.6227C48.8669 82.6227 48.8754 82.6227 48.8797 82.6227H48.8883C48.9055 82.6227 48.9227 82.6141 48.9399 82.6098C48.9399 82.6098 48.9399 82.6098 48.9442 82.6098C48.9442 82.6098 48.9442 82.6098 48.9442 82.6141C48.9399 82.6227 48.9356 82.627 48.9313 82.6356C48.9313 82.6356 48.9313 82.6356 48.9313 82.6399C48.9184 82.6571 48.9098 82.67 48.8969 82.6872C48.8969 82.6872 48.8969 82.6872 48.8969 82.6915C48.8969 82.6915 48.8754 82.726 48.8626 82.7389C48.8626 82.7389 48.8626 82.7389 48.8626 82.7432L48.7466 82.6571Z" fill="#019D47"/>
<path d="M47.6386 86.2812C47.6386 86.2812 47.63 86.2812 47.6257 86.2812C47.6128 86.2812 47.5999 86.2726 47.587 86.2683H47.5785C47.5699 86.2683 47.557 86.2597 47.5484 86.2554C47.5484 86.2554 47.5441 86.2554 47.5398 86.2554C47.5312 86.2554 47.5226 86.2468 47.514 86.2425C47.514 86.2425 47.5097 86.2425 47.5054 86.2382C47.5054 86.2382 47.5011 86.2382 47.4968 86.2339C47.4968 86.2339 47.4926 86.2339 47.4883 86.2296C47.4883 86.2296 47.484 86.2296 47.4797 86.2253C47.4797 86.2253 47.4754 86.2253 47.4711 86.221C47.4625 86.2166 47.4496 86.208 47.441 86.2037C47.441 86.2037 47.441 86.2037 47.4367 86.2037C47.4367 86.2037 47.4324 86.2037 47.4281 86.1994C47.4281 86.1994 47.4195 86.1994 47.4195 86.1951C47.4195 86.1951 47.4195 86.1951 47.4152 86.1951C47.4152 86.1951 47.411 86.1951 47.4067 86.1908C47.3981 86.1865 47.3895 86.1822 47.3809 86.1736C47.3809 86.1736 47.3809 86.1736 47.3766 86.1736C47.3766 86.1736 47.3723 86.1693 47.368 86.1693C47.368 86.1693 47.368 86.1693 47.3637 86.1693C47.3637 86.1693 47.3594 86.1693 47.3551 86.165C47.3551 86.165 47.3551 86.165 47.3508 86.165C47.3508 86.165 47.3465 86.165 47.3422 86.1607C47.3422 86.1607 47.3422 86.1607 47.3379 86.1607C47.3379 86.1607 47.3336 86.1564 47.3293 86.1521C47.3208 86.1478 47.3165 86.1435 47.3079 86.1349C47.3079 86.1349 47.3079 86.1349 47.3036 86.1349C47.3036 86.1349 47.2993 86.1349 47.295 86.1306C47.2864 86.1263 47.2821 86.122 47.2735 86.1134C47.2735 86.1134 47.2735 86.1134 47.2692 86.1134C47.2692 86.1134 47.2606 86.109 47.2563 86.1047C47.2563 86.1047 47.2563 86.1047 47.252 86.1047C47.2392 86.0961 47.2263 86.0875 47.2134 86.0746C47.2134 86.0746 47.2134 86.0746 47.2091 86.0746C47.2048 86.0703 47.1962 86.066 47.1919 86.0617C47.1919 86.0617 47.1919 86.0617 47.1876 86.0617C47.179 86.0574 47.1747 86.0488 47.1661 86.0445C47.1576 86.0402 47.1533 86.0316 47.1447 86.0273C47.1447 86.0273 47.1447 86.0273 47.1404 86.0273C47.1318 86.0187 47.1232 86.01 47.1146 86.0014C47.106 86.0187 47.0974 86.0316 47.0888 86.0445C47.0888 86.0445 47.0888 86.0445 47.0888 86.0488C47.0888 86.0488 47.0888 86.0574 47.0845 86.0574C47.076 86.0746 47.0631 86.0918 47.0545 86.109C47.0545 86.109 47.0545 86.109 47.0545 86.1134C47.0545 86.1134 47.0545 86.122 47.0502 86.122C47.0416 86.1392 47.0287 86.1564 47.0201 86.1736C47.0201 86.1736 47.0201 86.1736 47.0201 86.1779C47.0201 86.1779 47.0201 86.1865 47.0158 86.1865C47.0072 86.2037 46.9944 86.221 46.9858 86.2382C46.9858 86.2382 46.9858 86.2382 46.9858 86.2425C46.9858 86.2425 46.9858 86.2511 46.9815 86.2511C46.9772 86.2597 46.9686 86.2683 46.96 86.2812C46.9557 86.2511 46.9514 86.2253 46.9471 86.2037C46.9385 86.1521 46.9299 86.1047 46.9213 86.0531C46.917 86.0143 46.9127 85.9799 46.9042 85.9412C46.8999 85.9024 46.8913 85.868 46.8827 85.8293C46.8784 85.7905 46.8741 85.7561 46.8655 85.7174C46.8612 85.6786 46.8526 85.6442 46.844 85.6055C46.844 85.5796 46.8354 85.5538 46.8354 85.528C46.8311 85.4892 46.8226 85.4548 46.8183 85.4161C46.814 85.3902 46.8097 85.3601 46.8054 85.3343C46.7968 85.2869 46.7882 85.2396 46.7796 85.188C46.7753 85.1578 46.771 85.1234 46.7667 85.0933C46.7667 85.0933 46.7667 85.0933 46.771 85.089C46.7968 85.076 46.8183 85.0674 46.844 85.0545H46.8526C46.8741 85.0459 46.8956 85.0373 46.9128 85.0244C46.9299 85.0158 46.9471 85.0072 46.9643 84.9986C46.9643 84.9986 46.9686 84.9986 46.9729 84.9986C46.9729 84.9986 46.9772 84.9986 46.9815 84.9986H46.9901C47.0201 84.9857 47.0545 84.9684 47.0845 84.9555C47.1661 84.9168 47.2477 84.8824 47.3251 84.8436C47.3723 84.8221 47.4195 84.8006 47.4668 84.7791C47.514 84.7575 47.5613 84.736 47.6085 84.7145C47.63 84.7059 47.6515 84.6973 47.6686 84.6887C47.6686 84.6887 47.6729 84.6887 47.6772 84.6887C47.6729 84.6973 47.6686 84.7059 47.6644 84.7145C47.6644 84.7145 47.6644 84.7188 47.6644 84.7231C47.6644 84.7231 47.6644 84.7274 47.6644 84.7317C47.6644 84.7317 47.6644 84.7317 47.6644 84.736C47.6644 84.736 47.6644 84.736 47.6644 84.7403C47.6644 84.7403 47.6644 84.7403 47.6644 84.7446V84.7532V84.7618C47.6644 84.7618 47.6644 84.7618 47.6644 84.7661C47.6601 84.7834 47.6558 84.7963 47.6515 84.8135C47.6515 84.8135 47.6515 84.8135 47.6515 84.8178C47.6515 84.8221 47.6515 84.8307 47.6515 84.835C47.6472 84.835 47.6386 84.8393 47.6429 84.8479C47.6429 84.8694 47.6343 84.891 47.63 84.9082C47.63 84.9125 47.63 84.9168 47.6257 84.9254C47.6257 84.9469 47.6257 84.9727 47.6214 84.9943C47.6214 85.0373 47.6386 85.0631 47.6729 85.0846C47.6729 85.0846 47.6729 85.0846 47.6772 85.0846C47.6987 85.1062 47.7288 85.1191 47.7545 85.132C47.7932 85.1492 47.8276 85.1664 47.8662 85.175C47.9392 85.1966 48.0165 85.2181 48.0895 85.231C48.1325 85.2396 48.1711 85.2482 48.2141 85.2568C48.2399 85.2611 48.2699 85.2654 48.2957 85.2654C48.3258 85.2654 48.3601 85.274 48.3902 85.2783C48.3902 85.2783 48.3902 85.2869 48.3902 85.2956C48.3902 85.3171 48.3945 85.3386 48.3945 85.3644C48.4031 85.4849 48.4031 85.6055 48.3945 85.7303C48.3945 85.7604 48.3859 85.7862 48.3816 85.8164C48.3816 85.8379 48.3773 85.8594 48.373 85.8766C48.3343 86.0574 48.2227 86.1822 48.0595 86.2597C47.9951 86.2898 47.9263 86.3113 47.8576 86.3329C47.8361 86.3415 47.8104 86.3458 47.7889 86.3544C47.7717 86.3544 47.7502 86.3544 47.7331 86.3544L47.6386 86.2812Z" fill="#009D47"/>
<path d="M90.8749 46.2181C93.1638 46.2181 95.0194 44.3585 95.0194 42.0646C95.0194 39.7706 93.1638 37.911 90.8749 37.911C88.5859 37.911 86.7303 39.7706 86.7303 42.0646C86.7303 44.3585 88.5859 46.2181 90.8749 46.2181Z" stroke="#009D47" stroke-width="1.47" stroke-miterlimit="10"/>
<path d="M90.3681 37.9455C89.8312 38.7159 89.8957 39.6069 89.8957 39.6069C90.4798 40.2568 91.0853 40.0201 91.0853 40.0201C91.0209 40.7819 91.2357 41.4964 91.3903 41.604C91.5449 41.7116 92.3437 42.4735 92.3437 42.4735C92.0173 42.9943 91.1197 42.9727 91.1197 42.9727C90.5485 43.1019 90.8534 43.571 90.8534 43.571C91.197 43.5366 91.5878 43.8164 91.5878 43.8164C92.0001 44.1004 92.4339 43.6657 92.4339 43.6657C93.2371 43.7948 93.4089 43.571 93.4089 43.571C93.4733 42.8393 94.1218 42.6887 94.1218 42.6887C94.5985 42.5595 95.0237 42.0646 95.0237 42.0646" stroke="#009D47" stroke-width="1.47" stroke-miterlimit="10"/>
<path d="M86.8206 41.2123C87.439 41.2425 87.7783 41.6212 87.7783 41.6212C87.7053 42.4261 87.8771 42.4735 87.8771 42.4735C88.1563 42.4261 88.3882 42.2539 88.3882 42.2539C88.6802 42.3013 89.0195 42.8135 89.0195 42.8135C89.0797 43.1793 88.9122 43.5667 88.9122 43.5667C89.2515 44.1435 89.2772 44.3243 89.2772 44.3243C89.2643 44.7891 89.2042 44.944 89.2042 44.944C88.8048 45.3831 88.6201 45.5423 88.6201 45.5423" stroke="#009D47" stroke-width="1.47" stroke-miterlimit="10"/>
</g>
<defs>
<linearGradient id="paint0_linear_42_3" x1="47.6558" y1="95.5179" x2="47.6558" y2="0" gradientUnits="userSpaceOnUse">
<stop stop-color="#E8458B"/>
<stop offset="0.35" stop-color="#903775"/>
<stop offset="1" stop-color="#363553"/>
</linearGradient>
<clipPath id="clip0_42_3">
<rect width="104" height="96" fill="white"/>
</clipPath>
</defs>
</svg>
