<svg width="136" height="130" viewBox="0 0 136 130" fill="none" xmlns="http://www.w3.org/2000/svg">
<path d="M79.1852 89.1614C79.1852 89.1614 79.5266 79.7294 76.8597 80.2588C75.5262 80.5235 75.2492 80.5235 75.3136 80.4589C75.378 80.3944 75.7646 80.2588 75.7646 80.2588C72.6403 81.0593 70.6626 81.4983 70.6626 81.4983L71.0555 90.3944L79.1852 89.1614Z" fill="white" stroke="#462255" stroke-width="1.96075" stroke-miterlimit="10"/>
<path d="M20.48 96.9019H19.3655C19.3655 96.9019 18.0772 95.6818 18.2189 84.9457C18.2189 84.9457 19.3784 82.9121 29.2023 83.7966V96.6179L20.4736 96.9019H20.48Z" fill="white" stroke="#462255" stroke-width="1.96075" stroke-miterlimit="10"/>
<path d="M77.864 76.3852C77.864 76.3852 82.5344 78.3155 84.7117 75.9462C86.9857 69.2128 89.0793 66.2948 83.4556 56.1721C83.4556 56.1721 81.7549 55.9074 79.5453 56.4238C80.1766 60.0649 80.0543 73.9256 78.811 75.036L77.8705 76.3852H77.864Z" fill="white" stroke="#462255" stroke-width="1.96075" stroke-miterlimit="10"/>
<path d="M79.3138 61.2075C81.7746 79.9165 68.7878 93.7514 47.8711 95.1458C28.0237 96.4693 15.4813 81.2529 16.4283 61.2075C17.1691 45.4812 28.4424 34.2351 47.8711 34.5192C67.1323 34.7968 77.246 45.4747 79.3138 61.2075Z" fill="white" stroke="#462255" stroke-width="1.96075" stroke-miterlimit="10"/>
<path d="M76.415 63.7448C78.6375 78.322 66.9068 89.1032 48.0064 90.1878C30.0787 91.2143 18.7474 79.3614 19.5977 63.7448C20.2677 51.4916 30.4523 42.7246 48.0064 42.9441C65.4123 43.1636 74.5469 51.4787 76.415 63.7448Z" fill="#462255" stroke="#462255" stroke-width="1.96075" stroke-miterlimit="10"/>
<path d="M18.8765 77.9992C18.8765 77.9992 14.3414 80.22 12.0159 77.9992C9.31674 71.4271 7.04276 68.6511 12.0159 58.1863C12.0159 58.1863 13.6972 57.8183 15.939 58.1863C15.5396 61.8596 16.5445 75.688 17.8587 76.7145L18.8829 77.9992H18.8765Z" fill="white" stroke="#462255" stroke-width="1.96075" stroke-miterlimit="10"/>
<path d="M28.5391 47.5923C26.9286 44.3192 23.9976 42.9441 23.9976 42.9441L28.5391 47.5923Z" fill="white"/>
<path d="M28.5391 47.5923C26.9286 44.3192 23.9976 42.9441 23.9976 42.9441" stroke="#462255" stroke-width="1.96075" stroke-miterlimit="10"/>
<path d="M64.9036 47.05C66.0631 43.6414 69.3871 41.4916 69.3871 41.4916L64.9036 47.05Z" fill="white"/>
<path d="M64.9036 47.05C66.0631 43.6414 69.3871 41.4916 69.3871 41.4916" stroke="#462255" stroke-width="1.96075" stroke-miterlimit="10"/>
<path d="M95.1413 41.7305L100.314 76.8243L102.723 76.3595L95.1413 34.7517H93.7949L95.1413 41.7305Z" fill="#462255" stroke="#462255" stroke-width="1.30421" stroke-miterlimit="10"/>
<path d="M94.2336 34.5128C94.9878 34.5128 95.5993 33.9 95.5993 33.1441C95.5993 32.3883 94.9878 31.7755 94.2336 31.7755C93.4794 31.7755 92.8679 32.3883 92.8679 33.1441C92.8679 33.9 93.4794 34.5128 94.2336 34.5128Z" fill="#462255" stroke="#462255" stroke-width="1.30421" stroke-miterlimit="10"/>
<path d="M96.5461 42.2017C99.7606 37.6374 99.4063 37.8827 104.927 36.6884C109.514 35.6942 112.554 40.8459 120.426 40.5296C128.298 40.2133 130.637 38.6768 130.637 38.6768L134.083 62.4729C121.045 56.553 107.066 58.38 102.37 64.8616C101.59 65.9333 101.345 66.9146 101.345 66.9146L96.5461 42.1952V42.2017Z" fill="white" stroke="#462255" stroke-width="1.96075" stroke-miterlimit="10"/>
<path d="M82.4578 24.7129L82.5737 25.7781L83.5593 25.352L82.6961 25.9847L83.5593 26.6238L82.5737 26.1913L82.4578 27.2565L82.3418 26.1913L81.3562 26.6238L82.2194 25.9847L81.3562 25.352L82.3418 25.7781L82.4578 24.7129Z" fill="white"/>
<path d="M92.8674 9.44489L92.9834 10.5101L93.9625 10.084L93.0993 10.7167L93.9625 11.3558L92.9834 10.9233L92.8674 11.9885L92.745 10.9233L91.7659 11.3558L92.6291 10.7167L91.7659 10.084L92.745 10.5101L92.8674 9.44489Z" fill="white"/>
<path d="M34.6332 8.60565L34.7556 9.67086L35.7348 9.23832L34.8716 9.87745L35.7348 10.5101L34.7556 10.084L34.6332 11.1492L34.5172 10.084L33.5381 10.5101L34.4013 9.87745L33.5381 9.23832L34.5172 9.67086L34.6332 8.60565Z" fill="white"/>
<path d="M16.377 1.18774L16.4672 1.98827L17.2016 1.66547L16.551 2.14321L17.2016 2.62094L16.4672 2.29815L16.377 3.09867L16.2869 2.29815L15.5525 2.62094L16.1967 2.14321L15.5525 1.66547L16.2869 1.98827L16.377 1.18774Z" fill="white"/>
<path d="M14.1801 18.4313L13.9353 18.0311L13.4844 18.1408L13.8838 17.8955L13.7743 17.4436L14.019 17.8439L14.47 17.7341L14.0706 17.9794L14.1801 18.4313Z" fill="white"/>
<path d="M70.598 12.479L70.3596 12.0852L69.9087 12.195L70.3016 11.9496L70.1986 11.4977L70.4369 11.898L70.8879 11.7883L70.4885 12.0271L70.598 12.479Z" fill="white"/>
<path d="M3.80217 57.4632L3.55738 57.0694L3.10645 57.1792L3.50584 56.9338L3.39633 56.4819L3.63468 56.8822L4.08561 56.7724L3.69266 57.0113L3.80217 57.4632Z" fill="white"/>
<path d="M45.3329 0.981285L45.0881 0.581024L44.6372 0.690773L45.0366 0.451908L44.9271 0L45.1719 0.393806L45.6228 0.284057L45.2234 0.529377L45.3329 0.981285Z" fill="white"/>
<path d="M78.7129 104.138C86.4581 106.085 94.9239 104.157 97.6247 102.865C100.325 101.574 104.974 96.5597 104.974 96.5597L98.7998 83.8848L91.8856 87.1998C91.8856 87.1998 76.4926 93.8363 70.721 86.4999C58.8728 96.9732 44.0446 95.0198 44.0446 95.0198C35.0335 94.848 28.9308 90.1268 28.9308 90.1268C16.7839 96.057 12.3303 110.615 12.3303 110.615C11.285 113.046 10.48 116.991 10.48 116.991C21.9387 124.047 30.846 126.274 30.846 126.274C42.9474 129.539 55.4644 128.813 55.4644 128.813C73.5581 127.674 82.4719 120.923 82.4719 120.923C82.4719 120.923 81.7383 107.427 76.59 100.371" fill="white"/>
<path d="M78.7129 104.138C86.4581 106.085 94.9239 104.157 97.6247 102.865C100.325 101.574 104.974 96.5597 104.974 96.5597L98.7998 83.8848L91.8856 87.1998C91.8856 87.1998 76.4926 93.8363 70.721 86.4999C58.8728 96.9732 44.0446 95.0198 44.0446 95.0198C35.0335 94.848 28.9308 90.1268 28.9308 90.1268C16.7839 96.057 12.3303 110.615 12.3303 110.615C11.285 113.046 10.48 116.991 10.48 116.991C21.9387 124.047 30.846 126.274 30.846 126.274C42.9474 129.539 55.4644 128.813 55.4644 128.813C73.5581 127.674 82.4719 120.923 82.4719 120.923C82.4719 120.923 81.7383 107.427 76.59 100.371" stroke="#462255" stroke-width="1.96075" stroke-miterlimit="10"/>
<path opacity="0.5" d="M13.9683 110.883C45.5436 127.662 80.143 116.404 80.2828 115.987L80.9753 120.463C68.3579 127.714 47.799 127.862 47.9832 127.046C29.1143 126.406 17.2148 119.418 17.2148 119.418L11.9797 116.923L13.9683 110.883Z" fill="#B9BDD4"/>
<path d="M111.472 86.6758C111.472 91.9502 108.077 97.6572 103.89 97.6572C99.7023 97.6572 95.5989 91.9502 95.5989 86.6758C95.5989 81.4014 99.7088 77.1277 103.89 77.1277C108.07 77.1277 111.472 81.4014 111.472 86.6758Z" fill="white" stroke="#462255" stroke-width="1.96075" stroke-miterlimit="10"/>
<path d="M10.5275 108.574C15.7905 108.574 21.4851 111.976 21.4851 116.172C21.4851 120.369 15.7905 124.481 10.5275 124.481C5.26452 124.481 1 120.362 1 116.172C1 111.983 5.26452 108.574 10.5275 108.574Z" fill="white" stroke="#462255" stroke-width="1.96075" stroke-miterlimit="10"/>
<path d="M31.8822 102.428C28.8996 108.561 30.3039 118.025 30.3039 118.025H67.6668C69.7733 110.388 66.6168 102.06 66.6168 102.06L31.8886 102.422L31.8822 102.428Z" stroke="#462255" stroke-width="1.96075" stroke-miterlimit="10"/>
<path d="M34.1177 106.857C31.5216 110.969 32.7456 117.315 32.7456 117.315H65.2834C67.1194 112.196 64.3687 106.611 64.3687 106.611L34.1177 106.857Z" fill="#462255" stroke="#462255" stroke-width="1.96075" stroke-miterlimit="10"/>
<path opacity="0.5" d="M69.7733 59.245C65.2512 51.5109 57.3985 48.7414 50.1643 50.1681C42.9365 51.5948 53.6493 55.5587 55.0343 55.9332C56.4193 56.3076 62.5262 61.2398 63.6858 62.3438C64.8453 63.4477 68.6525 66.2173 70.2307 66.9662C71.809 67.715 73.7415 66.3464 72.5884 63.777L69.7733 59.245Z" fill="#6E7CA7"/>
<path opacity="0.5" d="M45.8548 52.2146C45.8548 53.4283 43.9351 54.4096 42.724 54.4096C41.513 54.4096 39.9089 54.132 39.9089 52.9183C39.9089 51.7046 41.5194 50.0132 42.724 50.0132C43.9287 50.0132 45.8548 50.9945 45.8548 52.2082V52.2146Z" fill="#6E7CA7"/>
<path d="M46.9179 55.9203C47.3377 55.9203 47.678 55.5792 47.678 55.1585C47.678 54.7378 47.3377 54.3967 46.9179 54.3967C46.498 54.3967 46.1577 54.7378 46.1577 55.1585C46.1577 55.5792 46.498 55.9203 46.9179 55.9203Z" fill="#1A7FD3"/>
<path d="M51.5363 113.532C51.5106 113.461 51.4848 113.396 51.4655 113.325C51.4655 113.325 51.4655 113.325 51.4655 113.319C51.4461 113.274 51.4333 113.229 51.4139 113.183C51.4075 113.164 51.4011 113.145 51.3946 113.132C51.3946 113.119 51.3817 113.1 51.3753 113.087V113.074C51.3688 113.054 51.3624 113.035 51.356 113.016C51.356 113.016 51.3366 112.957 51.3237 112.925C51.3237 112.925 51.3237 112.919 51.3237 112.912C51.3109 112.874 51.2915 112.828 51.2787 112.79C51.2787 112.79 51.2787 112.783 51.2787 112.777C51.2464 112.699 51.2142 112.615 51.182 112.538C51.182 112.538 51.182 112.531 51.182 112.525V112.499C51.182 112.499 51.1691 112.493 51.1691 112.486C51.1691 112.473 51.1627 112.467 51.1563 112.454C51.1563 112.441 51.1498 112.435 51.1434 112.422C51.1434 112.422 51.1369 112.396 51.1305 112.389C51.1047 112.325 51.079 112.26 51.0532 112.196C51.0532 112.196 51.0532 112.189 51.0532 112.183C51.0532 112.176 51.0532 112.17 51.0467 112.157C51.0467 112.157 51.0467 112.15 51.0467 112.144C51.0339 112.118 51.0274 112.092 51.0145 112.067C51.0145 112.067 51.0145 112.06 51.0145 112.054C51.0081 112.028 50.9952 112.008 50.9888 111.983C51.0017 111.983 51.021 111.976 51.0339 111.976C51.0661 111.976 51.1047 111.976 51.1369 111.976C51.1885 111.976 51.2336 111.976 51.2851 111.976C51.3109 111.976 51.3366 111.976 51.3624 111.976C51.3753 111.976 51.3882 111.976 51.401 111.976C51.4333 111.976 51.4655 111.976 51.4912 111.976C51.517 111.976 51.5492 111.976 51.575 111.976C51.5879 111.976 51.5943 111.976 51.6072 111.976C51.6136 111.976 51.6201 111.976 51.633 111.976C51.6587 111.976 51.6909 111.976 51.7167 111.976C51.7425 111.976 51.7682 111.976 51.794 111.976C51.8133 111.976 51.8327 111.976 51.8584 111.976C51.8777 111.976 51.8971 111.976 51.91 111.976C51.9228 111.976 51.9357 111.976 51.9486 111.976C51.9679 111.976 51.9873 111.976 52.0001 111.976C52.0259 111.976 52.0452 111.976 52.071 111.976C52.0968 111.976 52.1161 111.976 52.1419 111.976C52.1547 111.976 52.1741 111.976 52.187 111.976H52.2321C52.2321 111.976 52.2643 111.976 52.2771 111.976C52.2771 111.976 52.2771 111.976 52.2836 111.976C52.2836 111.976 52.2836 111.976 52.29 111.976C52.3158 111.976 52.3416 111.976 52.3673 111.983C52.3867 111.983 52.406 111.983 52.4253 111.989C52.4511 111.989 52.4768 111.989 52.5026 111.989H52.5155C52.5348 111.989 52.5541 111.989 52.567 111.996C52.5799 111.996 52.5992 111.996 52.6121 112.002H52.625C52.6379 112.002 52.6508 112.002 52.6637 112.008H52.6765C52.6894 112.008 52.7023 112.008 52.7152 112.015H52.7281H52.7603L52.7732 112.021C52.7861 112.021 52.7925 112.021 52.8054 112.028C52.8376 112.028 52.8698 112.041 52.8956 112.047C52.902 112.047 52.9084 112.047 52.9149 112.047C52.9407 112.047 52.9664 112.06 52.9922 112.067H53.0051C53.0051 112.067 53.0051 112.067 53.0115 112.067C53.0115 112.067 53.018 112.067 53.0244 112.067C53.0502 112.079 53.0695 112.086 53.0953 112.099C53.121 112.112 53.1468 112.118 53.1726 112.131C53.1726 112.131 53.1726 112.131 53.179 112.131C53.179 112.131 53.2241 112.176 53.2434 112.196C53.2434 112.196 53.2434 112.196 53.2434 112.202C53.2434 112.202 53.2499 112.215 53.2563 112.222C53.2563 112.222 53.2563 112.222 53.2563 112.228C53.2821 112.28 53.3143 112.338 53.3401 112.389C53.3529 112.415 53.3594 112.441 53.3723 112.467C53.3723 112.467 53.3723 112.48 53.3723 112.486C53.3723 112.486 53.3723 112.512 53.3787 112.525C53.3787 112.525 53.3787 112.525 53.3787 112.531C53.3916 112.564 53.4045 112.596 53.4174 112.635C53.4238 112.661 53.4302 112.68 53.4367 112.706C53.4496 112.764 53.4689 112.828 53.4818 112.886C53.5011 112.977 53.5204 113.074 53.5333 113.164C53.5462 113.222 53.5526 113.28 53.5655 113.345C53.5655 113.384 53.5784 113.416 53.5848 113.455C53.5848 113.455 53.5848 113.455 53.5848 113.461C53.5848 113.5 53.5977 113.532 53.5977 113.571C53.5977 113.603 53.6042 113.635 53.6042 113.661C53.6042 113.7 53.6042 113.739 53.6106 113.771V113.784C53.6106 113.855 53.6235 113.932 53.6235 114.003C53.6235 114.003 53.6235 114.016 53.6299 114.023C53.6299 114.023 53.6299 114.068 53.6235 114.094C53.6235 114.145 53.6235 114.203 53.6235 114.255C53.6106 114.268 53.6042 114.281 53.5913 114.287C53.5269 114.326 53.4689 114.371 53.4045 114.41C53.2048 114.52 53.0051 114.63 52.8054 114.733C52.5219 114.881 52.2321 115.03 51.9422 115.172C51.8069 115.236 51.6652 115.301 51.5299 115.359C51.5041 115.372 51.4848 115.378 51.4526 115.378C51.4848 115.34 51.517 115.294 51.5363 115.249C51.575 115.152 51.6136 115.049 51.633 114.946C51.6458 114.894 51.6523 114.843 51.6652 114.791C51.6716 114.746 51.6781 114.701 51.6845 114.655C51.6909 114.571 51.7038 114.494 51.7103 114.41C51.7103 114.32 51.7103 114.223 51.7103 114.132C51.7103 114.081 51.6909 114.023 51.678 113.971C51.678 113.971 51.678 113.971 51.678 113.965C51.678 113.958 51.678 113.952 51.678 113.945C51.678 113.945 51.678 113.945 51.678 113.939V113.926C51.678 113.926 51.678 113.919 51.678 113.913C51.678 113.906 51.678 113.9 51.678 113.894C51.678 113.894 51.678 113.894 51.678 113.887C51.678 113.874 51.6716 113.855 51.6652 113.842C51.6652 113.842 51.6652 113.829 51.6652 113.823C51.6652 113.823 51.6652 113.823 51.6652 113.816V113.803C51.6652 113.803 51.6652 113.803 51.6652 113.797C51.633 113.693 51.5943 113.59 51.5621 113.48C51.5621 113.48 51.5621 113.48 51.5621 113.474L51.5363 113.532Z" fill="white"/>
<path d="M47.3044 112.286C47.3044 112.286 47.2915 112.286 47.285 112.286C47.2786 112.286 47.2721 112.286 47.2593 112.286C47.2271 112.286 47.2013 112.286 47.1691 112.28C47.1433 112.267 47.124 112.267 47.0982 112.28C47.0853 112.28 47.0789 112.293 47.066 112.293C47.066 112.293 47.0596 112.293 47.0531 112.299C47.0531 112.299 47.0531 112.299 47.0467 112.299C47.0338 112.312 47.0209 112.325 47.008 112.338C47.008 112.338 47.008 112.338 47.008 112.344C46.9694 112.389 46.9436 112.441 46.9243 112.493C46.9243 112.493 46.9243 112.499 46.9178 112.506C46.9178 112.506 46.9178 112.506 46.9178 112.512C46.905 112.544 46.8921 112.577 46.8856 112.609C46.8856 112.622 46.8856 112.628 46.8856 112.641C46.8856 112.641 46.8856 112.641 46.8856 112.648C46.8856 112.661 46.8792 112.68 46.8728 112.693C46.8728 112.693 46.8728 112.693 46.8728 112.699C46.8728 112.699 46.8728 112.699 46.8728 112.706C46.8728 112.706 46.8728 112.706 46.8728 112.712C46.8663 112.745 46.8599 112.777 46.847 112.809C46.8341 112.874 46.8212 112.932 46.8083 112.996C46.8019 113.029 46.7954 113.067 46.789 113.1C46.789 113.112 46.789 113.125 46.789 113.138C46.789 113.138 46.789 113.138 46.789 113.145C46.7826 113.196 46.7761 113.248 46.7697 113.3C46.7697 113.332 46.7632 113.371 46.7568 113.403C46.7439 113.416 46.731 113.416 46.7117 113.416C46.6924 113.403 46.6731 113.409 46.6602 113.416C46.6602 113.416 46.6602 113.416 46.6537 113.416C46.6344 113.416 46.6151 113.416 46.6022 113.416C46.5764 113.416 46.5442 113.416 46.5184 113.416C46.4218 113.416 46.3316 113.416 46.235 113.416C46.2157 113.416 46.1964 113.416 46.1835 113.416C46.1641 113.416 46.1448 113.416 46.1319 113.416C46.1255 113.416 46.1191 113.416 46.1126 113.416C46.0933 113.416 46.074 113.416 46.0611 113.416C46.0482 113.416 46.0418 113.416 46.0289 113.416C46.0224 113.416 46.016 113.416 46.0031 113.416C45.9902 113.416 45.9838 113.416 45.9709 113.416C45.9644 113.416 45.958 113.416 45.9516 113.416H45.9387C45.9322 113.416 45.9258 113.416 45.9129 113.416H45.9C45.9 113.416 45.9 113.416 45.8936 113.416C45.8807 113.416 45.8743 113.416 45.8614 113.409C45.8485 113.409 45.842 113.409 45.8292 113.403C45.8227 113.403 45.8163 113.403 45.8098 113.403C45.7841 113.397 45.7647 113.384 45.739 113.377C45.739 113.377 45.7325 113.377 45.7261 113.377C45.7003 113.364 45.681 113.358 45.6552 113.345C45.6552 113.345 45.6552 113.345 45.6488 113.345C45.6488 113.345 45.6424 113.345 45.6359 113.338C45.6101 113.319 45.5844 113.3 45.5586 113.287C45.5586 113.287 45.5586 113.287 45.5522 113.287C45.5328 113.274 45.52 113.255 45.5006 113.242C45.5006 113.242 45.5006 113.242 45.5006 113.235C45.4298 113.151 45.3782 113.054 45.3267 112.958C45.3074 112.925 45.3009 112.887 45.2881 112.848C45.2881 112.848 45.2881 112.848 45.2881 112.841C45.2881 112.828 45.2816 112.816 45.2752 112.803C45.2752 112.803 45.2752 112.803 45.2752 112.796V112.783C45.2752 112.783 45.2752 112.783 45.2752 112.777C45.2752 112.77 45.2752 112.764 45.2687 112.751C45.2687 112.725 45.2558 112.706 45.2494 112.68C45.2494 112.68 45.2494 112.68 45.2494 112.673C45.2494 112.654 45.243 112.641 45.2365 112.622C45.2365 112.609 45.2301 112.602 45.2236 112.59C45.2236 112.577 45.2236 112.564 45.2236 112.551C45.2365 112.538 45.243 112.525 45.2365 112.506C45.2365 112.467 45.2558 112.428 45.2687 112.389C45.2881 112.331 45.3138 112.28 45.346 112.228C45.3589 112.202 45.3782 112.17 45.3976 112.144C45.3976 112.144 45.3976 112.144 45.3976 112.138C45.4298 112.086 45.462 112.034 45.4942 111.989C45.4942 111.989 45.4942 111.989 45.4942 111.983C45.5522 111.905 45.6101 111.828 45.6681 111.757C45.6681 111.757 45.6681 111.757 45.6681 111.75C45.6939 111.724 45.7197 111.692 45.7454 111.66C45.7261 111.647 45.7132 111.641 45.6939 111.634C45.6939 111.634 45.6939 111.634 45.6874 111.634C45.6874 111.634 45.681 111.634 45.6746 111.628C45.6488 111.615 45.623 111.595 45.5973 111.582C45.5973 111.582 45.5973 111.582 45.5908 111.582C45.5908 111.582 45.5844 111.582 45.5779 111.576C45.5522 111.563 45.5264 111.544 45.5006 111.531C45.5006 111.531 45.5006 111.531 45.4942 111.531C45.4942 111.531 45.4878 111.531 45.4813 111.524C45.4555 111.511 45.4298 111.492 45.404 111.479C45.404 111.479 45.404 111.479 45.3976 111.479C45.3976 111.479 45.3911 111.479 45.3847 111.473C45.3654 111.46 45.346 111.453 45.3331 111.44C45.3331 111.44 45.3331 111.428 45.3396 111.428C45.3847 111.428 45.4298 111.415 45.4749 111.408C45.5328 111.402 45.5908 111.389 45.6488 111.382C45.7068 111.376 45.7647 111.363 45.8163 111.357C45.8871 111.344 45.9644 111.337 46.0353 111.324C46.0611 111.324 46.0868 111.324 46.1126 111.305C46.1255 111.298 46.1448 111.305 46.1577 111.305C46.2286 111.292 46.3059 111.285 46.3767 111.273C46.4605 111.26 46.5507 111.24 46.6344 111.227C46.7053 111.214 46.7826 111.208 46.8534 111.195C46.9307 111.182 47.0145 111.169 47.0918 111.156C47.0918 111.156 47.1175 111.202 47.1304 111.227C47.1433 111.26 47.1562 111.292 47.1691 111.324C47.1691 111.324 47.1691 111.324 47.1691 111.331C47.1691 111.331 47.1691 111.337 47.1755 111.344C47.1884 111.376 47.2077 111.408 47.2206 111.44C47.2335 111.473 47.2464 111.505 47.2593 111.537C47.2593 111.537 47.2593 111.537 47.2593 111.544C47.2593 111.544 47.2593 111.544 47.2657 111.55C47.2786 111.582 47.2979 111.615 47.3108 111.647C47.3237 111.679 47.3366 111.712 47.3494 111.744C47.3494 111.744 47.3494 111.744 47.3494 111.75C47.3494 111.75 47.3494 111.75 47.3559 111.757C47.3688 111.789 47.3881 111.821 47.401 111.854C47.4139 111.886 47.4267 111.918 47.4396 111.95C47.4396 111.95 47.4396 111.95 47.4396 111.957C47.4396 111.957 47.4396 111.957 47.4461 111.963C47.4718 112.028 47.5041 112.086 47.5298 112.144C47.5298 112.144 47.5298 112.151 47.5298 112.157C47.5298 112.157 47.5298 112.157 47.5298 112.163C47.5298 112.163 47.5298 112.163 47.5363 112.17C47.562 112.234 47.5942 112.299 47.62 112.364C47.62 112.364 47.62 112.364 47.62 112.37C47.62 112.37 47.62 112.37 47.6264 112.377C47.6458 112.415 47.6587 112.46 47.678 112.499H47.6651C47.62 112.48 47.5814 112.46 47.5363 112.435H47.5234C47.5041 112.435 47.4912 112.422 47.4718 112.415C47.4718 112.415 47.459 112.415 47.4525 112.415H47.4396H47.4268H47.4139H47.401C47.3945 112.415 47.3881 112.415 47.3817 112.415C47.3817 112.415 47.3688 112.415 47.3688 112.409L47.3044 112.286Z" fill="white"/>
<path d="M47.452 115.546H47.4392C47.4263 115.546 47.4198 115.546 47.4069 115.546H47.3941C47.3812 115.546 47.3747 115.546 47.3619 115.546C47.3554 115.546 47.349 115.546 47.3425 115.546C47.3296 115.546 47.3232 115.546 47.3103 115.546H47.2974C47.2846 115.546 47.2781 115.546 47.2652 115.546C47.2588 115.546 47.2523 115.546 47.2459 115.546C47.233 115.546 47.2266 115.546 47.2137 115.546C47.2072 115.546 47.2008 115.546 47.1944 115.546C47.1815 115.546 47.1686 115.546 47.1557 115.546C47.1493 115.546 47.1428 115.546 47.1299 115.546C47.1171 115.546 47.1106 115.546 47.0977 115.546C47.0849 115.546 47.0784 115.546 47.0655 115.546C47.0591 115.546 47.0526 115.546 47.0398 115.546C47.0204 115.546 47.0011 115.546 46.9882 115.553C46.9882 115.553 46.9882 115.553 46.9818 115.559C46.9625 115.559 46.9496 115.559 46.9303 115.559C46.9174 115.559 46.9109 115.559 46.898 115.559C46.8723 115.559 46.8529 115.559 46.8272 115.566H46.8143C46.7885 115.566 46.7563 115.566 46.7306 115.566C46.7112 115.566 46.6983 115.566 46.679 115.566C46.6597 115.566 46.6404 115.566 46.621 115.566C46.5953 115.566 46.5759 115.566 46.5502 115.566C46.5373 115.566 46.518 115.566 46.5051 115.566C46.4858 115.566 46.4664 115.566 46.4407 115.566C46.4342 115.566 46.4278 115.559 46.4213 115.553C46.4213 115.553 46.4213 115.553 46.4213 115.546C46.4213 115.546 46.4149 115.533 46.4085 115.527C46.4085 115.527 46.4085 115.527 46.4085 115.521C46.3827 115.482 46.3634 115.45 46.3376 115.411C46.3376 115.411 46.3376 115.404 46.3312 115.398C46.3312 115.398 46.3312 115.391 46.3312 115.385C46.3312 115.385 46.3312 115.378 46.3247 115.372C46.3247 115.372 46.3247 115.366 46.3183 115.359C46.3183 115.359 46.3183 115.353 46.3183 115.346C46.3183 115.333 46.3054 115.327 46.2989 115.314C46.2989 115.314 46.2989 115.307 46.2925 115.301C46.2925 115.301 46.2925 115.295 46.2925 115.288C46.2925 115.275 46.2796 115.269 46.2732 115.256C46.2732 115.256 46.2732 115.249 46.2667 115.243C46.2667 115.243 46.2667 115.243 46.2667 115.236C46.2667 115.224 46.2539 115.217 46.2474 115.204C46.2474 115.204 46.2474 115.198 46.241 115.191C46.241 115.191 46.241 115.185 46.241 115.178C46.2152 115.133 46.1959 115.094 46.1701 115.049C46.1701 115.049 46.1701 115.043 46.1637 115.036C46.1637 115.036 46.1637 115.03 46.1637 115.023C46.1508 114.998 46.1379 114.972 46.125 114.946C46.125 114.946 46.125 114.939 46.1186 114.933C46.1186 114.933 46.1186 114.927 46.1186 114.92C46.1057 114.894 46.0928 114.868 46.0799 114.843C46.0799 114.843 46.0799 114.836 46.0735 114.83C46.0735 114.83 46.0735 114.823 46.0735 114.817C46.0477 114.772 46.0284 114.726 46.0026 114.681C46.0026 114.681 46.0026 114.675 45.9962 114.668C45.9962 114.668 45.9962 114.662 45.9962 114.655C45.9962 114.649 45.9897 114.636 45.9833 114.63C45.9833 114.63 45.9833 114.63 45.9833 114.623C45.9511 114.559 45.9124 114.494 45.8802 114.423C45.8609 114.391 45.848 114.352 45.8287 114.313C45.8287 114.313 45.8287 114.313 45.8287 114.307C45.7836 114.216 45.7385 114.133 45.6934 114.042C45.6805 114.01 45.6676 113.978 45.6483 113.945C45.6483 113.945 45.6483 113.945 45.6483 113.939C45.629 113.894 45.6032 113.848 45.5839 113.803C45.5581 113.752 45.5324 113.694 45.5066 113.642C45.5066 113.642 45.5066 113.635 45.5066 113.629C45.4873 113.59 45.4679 113.545 45.4486 113.506C45.4486 113.506 45.4486 113.5 45.4486 113.493C45.4422 113.474 45.4357 113.455 45.4293 113.435C45.4293 113.422 45.4293 113.409 45.4229 113.39C45.4615 113.435 45.513 113.461 45.5646 113.48C45.5968 113.493 45.629 113.506 45.6548 113.519C45.6612 113.519 45.6741 113.519 45.6805 113.519C45.6805 113.519 45.687 113.519 45.6934 113.519C45.7321 113.532 45.7707 113.545 45.8029 113.551C45.8223 113.551 45.8416 113.551 45.8545 113.558C45.8545 113.558 45.8673 113.558 45.8738 113.558H45.8867C45.8931 113.558 45.8995 113.558 45.906 113.558C45.9189 113.558 45.9253 113.558 45.9382 113.564C45.964 113.564 45.9962 113.577 46.0219 113.577C46.0348 113.577 46.0542 113.577 46.067 113.584H46.0799C46.0928 113.584 46.1057 113.584 46.1186 113.59H46.1315C46.1508 113.59 46.1701 113.59 46.183 113.597H46.1959C46.2281 113.61 46.2539 113.603 46.2861 113.61C46.3118 113.61 46.344 113.61 46.3698 113.616C46.3956 113.616 46.4278 113.616 46.4535 113.616C46.4664 113.616 46.4858 113.616 46.4986 113.616C46.5244 113.616 46.5502 113.616 46.5759 113.616C46.5953 113.616 46.6146 113.616 46.6404 113.61C46.6597 113.61 46.679 113.603 46.6983 113.597C46.7048 113.597 46.7112 113.597 46.7177 113.597C46.7177 113.597 46.7306 113.597 46.737 113.597C46.737 113.597 46.7434 113.597 46.7499 113.597C46.8014 113.584 46.8465 113.571 46.898 113.558C46.898 113.558 46.9045 113.558 46.9109 113.558C47.0269 113.519 47.1364 113.487 47.2459 113.448C47.4585 113.371 47.6646 113.3 47.8708 113.216C47.9996 113.171 48.122 113.119 48.2444 113.067C48.3926 113.009 48.5407 112.951 48.6889 112.887C48.7533 112.861 48.8177 112.835 48.8821 112.809H48.895C48.895 112.899 48.895 112.99 48.895 113.074C48.895 113.216 48.895 113.358 48.8821 113.5C48.8693 113.726 48.8564 113.952 48.837 114.184C48.837 114.236 48.8242 114.287 48.8242 114.339V114.352C48.8242 114.365 48.8242 114.384 48.8242 114.397V114.41C48.8113 114.481 48.8048 114.552 48.792 114.623C48.7791 114.694 48.7662 114.765 48.7533 114.836C48.7533 114.836 48.734 114.894 48.7275 114.92C48.7082 114.991 48.6696 115.049 48.6116 115.094C48.6116 115.094 48.6051 115.101 48.5987 115.107C48.5987 115.107 48.5987 115.107 48.5923 115.114C48.5665 115.133 48.5343 115.153 48.5085 115.165C48.5085 115.165 48.5021 115.165 48.4956 115.172C48.4956 115.172 48.4956 115.172 48.4892 115.172C48.4699 115.185 48.4441 115.191 48.4248 115.204C48.4248 115.204 48.4183 115.204 48.4119 115.211C48.3732 115.224 48.3346 115.243 48.2959 115.256C48.2959 115.256 48.2895 115.256 48.283 115.256C48.2444 115.269 48.2057 115.282 48.1671 115.295C48.1606 115.295 48.1542 115.295 48.1478 115.301C48.1284 115.301 48.1091 115.314 48.0962 115.32C48.0898 115.32 48.0833 115.32 48.0705 115.32C48.0705 115.32 48.0705 115.32 48.064 115.32C48.0576 115.32 48.0511 115.32 48.0447 115.32C48.0318 115.32 48.0254 115.32 48.0125 115.327C48.006 115.327 47.9996 115.327 47.9867 115.327C47.9867 115.327 47.9867 115.327 47.9803 115.327C47.9738 115.327 47.9674 115.327 47.9545 115.327C47.9545 115.327 47.9545 115.327 47.9481 115.327C47.9416 115.327 47.9352 115.327 47.9223 115.327C47.9223 115.327 47.9223 115.327 47.9159 115.327C47.9094 115.327 47.8965 115.327 47.8901 115.327C47.8901 115.327 47.8836 115.327 47.8772 115.327C47.8708 115.327 47.8643 115.327 47.8579 115.327C47.8579 115.327 47.8579 115.327 47.8514 115.327C47.845 115.327 47.8386 115.327 47.8257 115.327C47.8257 115.327 47.8257 115.327 47.8192 115.327C47.8063 115.327 47.7999 115.327 47.787 115.333C47.787 115.333 47.787 115.333 47.7806 115.333C47.7677 115.333 47.7613 115.333 47.7484 115.34C47.7484 115.34 47.7484 115.34 47.7419 115.34C47.7355 115.34 47.729 115.34 47.7162 115.34C47.7162 115.34 47.7162 115.34 47.7097 115.34C47.6968 115.34 47.6839 115.34 47.6711 115.34C47.6711 115.34 47.6711 115.34 47.6646 115.34C47.6582 115.34 47.6517 115.34 47.6389 115.34H47.626C47.6195 115.34 47.6131 115.34 47.6002 115.34C47.5938 115.34 47.5873 115.34 47.5809 115.34C47.5744 115.34 47.568 115.34 47.5551 115.34L47.452 115.546Z" fill="white"/>
<path d="M48.1349 108.122C48.1349 108.122 48.1735 108.122 48.1864 108.122C48.1929 108.122 48.1993 108.122 48.2122 108.122H48.2251C48.2315 108.122 48.238 108.122 48.2508 108.129H48.2637C48.2895 108.135 48.3153 108.141 48.341 108.148C48.3732 108.154 48.399 108.161 48.4312 108.167H48.4441C48.4441 108.167 48.4441 108.167 48.4505 108.167C48.4505 108.167 48.457 108.167 48.4634 108.167C48.4763 108.167 48.4956 108.174 48.5085 108.18H48.5214C48.5214 108.18 48.5214 108.18 48.5278 108.18C48.5278 108.18 48.5343 108.18 48.5407 108.18C48.5794 108.193 48.6245 108.206 48.6631 108.212H48.676C48.676 108.212 48.676 108.212 48.6824 108.212C48.6824 108.212 48.6889 108.212 48.6953 108.212C48.7147 108.219 48.7404 108.232 48.7597 108.238C48.8177 108.258 48.8757 108.271 48.9272 108.29C48.953 108.296 48.9788 108.303 49.0045 108.309C49.0045 108.309 49.011 108.309 49.0174 108.309C49.0368 108.322 49.0561 108.329 49.0754 108.329H49.0883C49.1141 108.335 49.1398 108.348 49.1591 108.354C49.2364 108.38 49.3202 108.406 49.3975 108.432C49.5199 108.471 49.6423 108.509 49.7582 108.548C49.8742 108.587 49.9966 108.632 50.1125 108.677C50.1254 108.677 50.1383 108.684 50.1512 108.69C50.1512 108.69 50.1512 108.69 50.1576 108.69C50.1963 108.703 50.2349 108.722 50.2671 108.735C50.3187 108.755 50.3702 108.781 50.4218 108.806C50.4153 108.806 50.4089 108.806 50.4024 108.813C50.3895 108.813 50.3831 108.813 50.3702 108.819C50.3638 108.819 50.3573 108.819 50.3444 108.826C50.3187 108.826 50.2929 108.845 50.2671 108.852C50.2607 108.852 50.2478 108.852 50.2414 108.858H50.2285C50.1834 108.884 50.1383 108.903 50.0932 108.929C50.0932 108.929 50.0868 108.929 50.0803 108.936C50.0803 108.936 50.0803 108.936 50.0739 108.936C50.0739 108.936 50.061 108.936 50.061 108.942C50.061 108.942 50.0546 108.942 50.0481 108.948C50.0481 108.948 50.0481 108.948 50.0417 108.955C50.0288 108.961 50.0159 108.968 50.003 108.981C50.003 108.981 49.9966 108.981 49.9901 108.987C49.9901 108.987 49.9901 108.987 49.9837 108.994C49.9837 108.994 49.9773 108.994 49.9708 109C49.9708 109 49.9708 109 49.9644 109C49.9644 109 49.9579 109 49.9515 109.007C49.9515 109.007 49.9515 109.007 49.9451 109.007C49.9451 109.007 49.9386 109.007 49.9322 109.013C49.9322 109.013 49.9322 109.013 49.9257 109.013C49.9128 109.019 49.9 109.032 49.8871 109.039C49.8871 109.039 49.8871 109.039 49.8806 109.045C49.8677 109.052 49.8613 109.058 49.8484 109.071C49.8484 109.071 49.842 109.071 49.8355 109.078C49.8355 109.078 49.8355 109.078 49.8291 109.078C49.8291 109.078 49.8291 109.078 49.8227 109.084C49.8227 109.084 49.8162 109.084 49.8098 109.09C49.8033 109.09 49.7905 109.103 49.784 109.11C49.784 109.11 49.784 109.11 49.7776 109.116C49.7711 109.116 49.7582 109.129 49.7518 109.136C49.7518 109.136 49.7518 109.136 49.7454 109.142C49.7389 109.149 49.726 109.155 49.7196 109.161C49.7067 109.174 49.6874 109.187 49.6745 109.2C49.6745 109.2 49.6745 109.2 49.6745 109.207C49.6487 109.226 49.6294 109.252 49.6036 109.271C49.6036 109.271 49.6036 109.271 49.5972 109.271C49.5972 109.271 49.5972 109.271 49.5908 109.271C49.565 109.297 49.5457 109.316 49.5199 109.342C49.5199 109.342 49.5199 109.342 49.5199 109.349C49.5199 109.349 49.5199 109.349 49.5199 109.355C49.5199 109.355 49.5199 109.355 49.5199 109.362C49.507 109.374 49.4941 109.394 49.4812 109.407C49.4812 109.407 49.4812 109.407 49.4812 109.413C49.4812 109.413 49.4812 109.413 49.4812 109.42C49.4684 109.433 49.4555 109.452 49.449 109.465C49.449 109.465 49.449 109.465 49.449 109.471C49.449 109.471 49.449 109.484 49.4426 109.484C49.4426 109.484 49.4426 109.491 49.4361 109.497C49.4361 109.497 49.4361 109.497 49.4361 109.504C49.4361 109.504 49.4361 109.517 49.4297 109.517C49.3911 109.588 49.3524 109.652 49.3138 109.723C49.2558 109.846 49.1978 109.962 49.1334 110.085C49.1334 110.091 49.1269 110.104 49.1205 110.11C49.1205 110.11 49.1205 110.117 49.1141 110.123C49.1012 110.156 49.0818 110.188 49.069 110.227C49.069 110.227 49.069 110.233 49.0625 110.24C49.0625 110.24 49.0625 110.24 49.0625 110.246C49.0496 110.272 49.0432 110.298 49.0303 110.324C49.0303 110.324 49.0303 110.33 49.0239 110.336C49.011 110.362 49.0045 110.382 48.9917 110.407C48.9917 110.407 48.9917 110.414 48.9852 110.42C48.9852 110.42 48.9852 110.42 48.9852 110.427C48.9788 110.446 48.9723 110.472 48.9594 110.491C48.9594 110.491 48.9594 110.498 48.9594 110.504C48.953 110.524 48.9401 110.543 48.9337 110.562C48.9337 110.562 48.9337 110.569 48.9272 110.575C48.9272 110.575 48.9272 110.575 48.9272 110.582C48.9272 110.595 48.9144 110.614 48.9079 110.627C48.9079 110.627 48.9079 110.633 48.9079 110.64C48.9015 110.659 48.895 110.679 48.8821 110.698C48.8821 110.698 48.8821 110.704 48.8821 110.711C48.8564 110.763 48.8371 110.821 48.8113 110.872C48.8113 110.872 48.8113 110.879 48.8113 110.885C48.8113 110.898 48.7984 110.911 48.792 110.924C48.792 110.924 48.792 110.93 48.7855 110.937C48.7855 110.937 48.7855 110.937 48.7855 110.943C48.7726 110.976 48.7598 111.008 48.7469 111.034C48.734 111.066 48.7211 111.098 48.7082 111.13C48.7082 111.13 48.7082 111.13 48.7082 111.137C48.7082 111.137 48.7082 111.137 48.7082 111.143C48.7082 111.156 48.7082 111.163 48.7018 111.176C48.7018 111.176 48.7018 111.176 48.7018 111.182C48.7018 111.182 48.7018 111.182 48.7018 111.189C48.7018 111.201 48.7018 111.208 48.6953 111.221C48.6953 111.221 48.6953 111.227 48.6953 111.234C48.6696 111.292 48.6438 111.344 48.6245 111.402C48.6245 111.402 48.6245 111.402 48.6245 111.408C48.6245 111.408 48.6245 111.408 48.6245 111.415C48.618 111.44 48.6116 111.46 48.5987 111.486C48.5987 111.486 48.5987 111.486 48.5987 111.492C48.5987 111.492 48.5987 111.492 48.5987 111.498C48.5987 111.511 48.5987 111.518 48.5923 111.531C48.5923 111.531 48.5923 111.531 48.5858 111.537C48.5858 111.537 48.5858 111.537 48.5794 111.537C48.5794 111.537 48.5729 111.531 48.5665 111.524C48.5536 111.511 48.5472 111.498 48.5343 111.492C48.5343 111.492 48.5343 111.486 48.5343 111.479C48.5343 111.479 48.5343 111.479 48.5343 111.473C48.5343 111.473 48.5343 111.473 48.5343 111.466C48.5343 111.466 48.5343 111.466 48.5343 111.46C48.5343 111.46 48.5343 111.46 48.5343 111.453C48.5343 111.453 48.5343 111.453 48.5343 111.447C48.4827 111.395 48.4248 111.337 48.3732 111.285C48.3732 111.285 48.3732 111.279 48.3732 111.273C48.3732 111.273 48.3668 111.266 48.3604 111.26C48.3604 111.26 48.3604 111.26 48.3604 111.253C48.3346 111.227 48.3088 111.201 48.2766 111.176C48.2766 111.176 48.2766 111.169 48.2766 111.163C48.2573 111.143 48.2444 111.124 48.2251 111.105C48.2251 111.105 48.2251 111.105 48.2186 111.098C48.2186 111.098 48.2186 111.092 48.2122 111.085C48.2122 111.085 48.2122 111.085 48.2122 111.079C48.2122 111.079 48.2122 111.079 48.2122 111.072C48.1993 111.053 48.18 111.04 48.1671 111.027C48.1478 111.008 48.1349 110.988 48.1156 110.969C48.1027 110.956 48.0898 110.943 48.0769 110.93C48.0769 110.93 48.0769 110.93 48.0769 110.924C48.064 110.911 48.0511 110.898 48.0383 110.885C48.0383 110.885 48.0383 110.885 48.0383 110.879C48.0383 110.879 48.0383 110.879 48.0383 110.872C48.0318 110.859 48.0189 110.853 48.0125 110.84C48.0125 110.84 48.0125 110.84 48.0125 110.834C48.0061 110.821 47.9932 110.814 47.9867 110.801C47.9867 110.801 47.9867 110.801 47.9867 110.795C47.9803 110.782 47.9674 110.775 47.961 110.762C47.961 110.762 47.9352 110.73 47.9223 110.717C47.9223 110.717 47.9223 110.717 47.9223 110.711C47.9159 110.698 47.903 110.691 47.8965 110.679C47.8965 110.679 47.8965 110.679 47.8965 110.672C47.8901 110.666 47.8837 110.653 47.8772 110.646C47.8772 110.646 47.8772 110.646 47.8772 110.64C47.8708 110.633 47.8643 110.62 47.8579 110.614C47.8579 110.614 47.8579 110.614 47.8579 110.608C47.8514 110.601 47.845 110.588 47.8386 110.582V110.575C47.8386 110.575 47.8321 110.562 47.8257 110.556C47.7999 110.517 47.7677 110.478 47.7419 110.446C47.7419 110.446 47.7419 110.44 47.7355 110.433C47.7355 110.433 47.7355 110.433 47.7355 110.427C47.7291 110.414 47.7226 110.407 47.7097 110.395C47.7097 110.395 47.7097 110.388 47.7033 110.382C47.7033 110.382 47.7033 110.382 47.7033 110.375C47.7033 110.375 47.7033 110.369 47.6968 110.362C47.6968 110.362 47.6968 110.356 47.6968 110.349C47.684 110.336 47.6775 110.317 47.6646 110.304C47.6646 110.304 47.6646 110.298 47.6582 110.291C47.6582 110.291 47.6582 110.291 47.6582 110.285C47.626 110.22 47.5938 110.162 47.5616 110.098C47.5422 110.052 47.5422 110.001 47.5422 109.949C47.5422 109.904 47.5551 109.852 47.568 109.807C47.568 109.807 47.568 109.794 47.568 109.788C47.5809 109.762 47.5873 109.73 47.6002 109.704C47.6002 109.691 47.6067 109.684 47.6131 109.671C47.6131 109.665 47.6195 109.659 47.626 109.652C47.6517 109.581 47.684 109.523 47.7162 109.458C47.7355 109.42 47.7548 109.387 47.7741 109.349C47.7741 109.349 47.7741 109.349 47.7741 109.342C47.7935 109.31 47.8128 109.278 47.8321 109.239C47.8321 109.239 47.8321 109.239 47.8321 109.232C47.8321 109.232 47.8514 109.2 47.8643 109.181C47.8643 109.181 47.8643 109.181 47.8643 109.174C47.8643 109.174 47.8643 109.168 47.8643 109.161C47.8643 109.161 47.8643 109.161 47.8643 109.155C47.8901 109.11 47.9223 109.071 47.9481 109.026C47.9481 109.026 47.9481 109.026 47.9481 109.019C47.9481 109.019 47.9481 109.013 47.9545 109.007C47.9545 109.007 47.9545 109.007 47.9545 109C47.9674 108.981 47.9867 108.961 47.9996 108.936C47.9996 108.936 47.9996 108.936 47.9996 108.929C47.9996 108.929 47.9996 108.929 47.9996 108.923C48.0189 108.897 48.0318 108.877 48.0511 108.852C48.0511 108.852 48.0511 108.852 48.0511 108.845C48.0511 108.845 48.0576 108.832 48.064 108.826C48.064 108.826 48.064 108.826 48.064 108.819C48.064 108.819 48.0705 108.806 48.0769 108.8C48.0769 108.8 48.0769 108.8 48.0769 108.793C48.0769 108.793 48.0834 108.781 48.0898 108.774C48.0898 108.774 48.0898 108.774 48.0898 108.768C48.0898 108.768 48.122 108.729 48.1349 108.71C48.1349 108.71 48.1349 108.71 48.1349 108.703C48.1478 108.684 48.1671 108.664 48.18 108.645C48.18 108.645 48.18 108.645 48.18 108.639C48.18 108.639 48.1929 108.619 48.1993 108.613C48.1993 108.613 48.1993 108.613 48.1993 108.606C48.1993 108.606 48.1993 108.606 48.1993 108.6C48.2057 108.587 48.2186 108.58 48.2251 108.568C48.2251 108.568 48.238 108.548 48.2444 108.542C48.2444 108.542 48.2444 108.542 48.2444 108.535C48.2444 108.535 48.2444 108.535 48.2444 108.529C48.2573 108.509 48.2702 108.497 48.2895 108.477C48.3024 108.458 48.3153 108.445 48.3346 108.425C48.3539 108.406 48.3668 108.387 48.3861 108.367C48.3861 108.367 48.3861 108.367 48.3861 108.361C48.3861 108.361 48.3861 108.354 48.3861 108.348C48.4054 108.329 48.4183 108.316 48.4377 108.296C48.4634 108.271 48.4892 108.251 48.515 108.232L48.1349 108.122Z" fill="white"/>
<path d="M52.0969 110.369C52.0969 110.369 52.0647 110.414 52.0453 110.44C52.0453 110.44 52.0453 110.44 52.0453 110.446C52.0453 110.446 52.0131 110.498 51.9938 110.517C51.9938 110.517 51.9938 110.517 51.9938 110.524C51.9616 110.569 51.9358 110.608 51.9036 110.653C51.9036 110.653 51.9036 110.653 51.9036 110.659C51.8843 110.685 51.8714 110.704 51.8521 110.73C51.8521 110.73 51.8521 110.73 51.8521 110.737C51.8328 110.763 51.8199 110.782 51.8005 110.808C51.8005 110.808 51.8005 110.808 51.8005 110.814C51.8005 110.814 51.7683 110.866 51.749 110.885C51.749 110.885 51.749 110.885 51.749 110.892C51.7297 110.917 51.7168 110.937 51.6975 110.963C51.6975 110.963 51.6975 110.963 51.6975 110.969C51.6653 111.014 51.6395 111.053 51.6073 111.098C51.6073 111.098 51.6073 111.098 51.6073 111.105C51.6073 111.105 51.6073 111.105 51.6073 111.111C51.588 111.137 51.5751 111.156 51.5558 111.182C51.5558 111.182 51.5558 111.182 51.5558 111.189C51.5364 111.214 51.5235 111.234 51.5042 111.26C51.5042 111.26 51.5042 111.26 51.5042 111.266C51.5042 111.266 51.472 111.318 51.4527 111.337C51.4527 111.337 51.4527 111.337 51.4527 111.344C51.4334 111.369 51.4205 111.389 51.4011 111.415C51.4011 111.415 51.4011 111.415 51.4011 111.421C51.3818 111.447 51.3689 111.466 51.3496 111.492C51.3496 111.492 51.3496 111.492 51.3496 111.498C51.3496 111.498 51.3239 111.544 51.2981 111.531H51.2852C51.1886 111.492 51.0855 111.46 50.9889 111.421H50.976C50.8794 111.382 50.7763 111.35 50.6797 111.311H50.6668C50.5701 111.273 50.4671 111.24 50.3705 111.202H50.3576C50.2609 111.163 50.1579 111.131 50.0612 111.092H50.0484C50.0033 111.079 49.9582 111.059 49.9131 111.047C49.9066 111.047 49.8938 111.047 49.9002 111.027C49.9002 111.027 49.9131 111.027 49.9195 111.027C49.9582 111.014 50.0033 111.001 50.0419 110.988C50.0999 110.963 50.1579 110.924 50.2158 110.898C50.2287 110.892 50.2352 110.879 50.2481 110.872C50.2481 110.872 50.2481 110.872 50.2545 110.872C50.2545 110.872 50.2674 110.866 50.2738 110.859C50.2738 110.859 50.2738 110.859 50.2803 110.859C50.2996 110.84 50.3254 110.827 50.3447 110.808C50.3833 110.769 50.3898 110.717 50.3833 110.672C50.3833 110.64 50.3705 110.601 50.364 110.569C50.364 110.569 50.364 110.556 50.364 110.549C50.364 110.549 50.364 110.549 50.364 110.543C50.3511 110.511 50.3447 110.478 50.3318 110.453C50.306 110.401 50.2803 110.349 50.2481 110.291C50.2481 110.291 50.2481 110.285 50.2416 110.278C50.2416 110.278 50.2416 110.272 50.2416 110.265C50.2223 110.233 50.203 110.207 50.1901 110.175C50.1901 110.175 50.1901 110.169 50.1836 110.162C50.1836 110.162 50.1836 110.156 50.1836 110.149C50.1708 110.13 50.1579 110.11 50.145 110.091C50.145 110.091 50.145 110.085 50.1385 110.078C50.1385 110.078 50.1385 110.078 50.1385 110.072C50.1192 110.046 50.0999 110.014 50.0806 109.988C50.0806 109.988 50.0806 109.988 50.0806 109.981C50.0806 109.981 50.0806 109.975 50.0741 109.968C50.0741 109.968 50.0741 109.968 50.0741 109.962C50.0677 109.949 50.0612 109.943 50.0548 109.93C50.0548 109.93 50.0548 109.923 50.0484 109.917V109.91C50.0484 109.91 50.0419 109.897 50.0355 109.891C50.0355 109.891 50.0355 109.891 50.0355 109.885C50.0355 109.885 50.029 109.872 50.0226 109.865C50.0226 109.865 50.0226 109.865 50.0226 109.859C50.0226 109.859 50.0162 109.846 50.0097 109.839V109.833C50.0097 109.833 50.0033 109.82 49.9968 109.814C49.9968 109.814 49.9968 109.814 49.9968 109.807C49.9968 109.807 49.9968 109.807 49.9904 109.801C49.9904 109.801 49.9904 109.794 49.9839 109.788C49.9775 109.781 49.9711 109.768 49.9646 109.762C49.9646 109.762 49.9646 109.762 49.9646 109.755C49.9517 109.736 49.9646 109.73 49.9711 109.717C49.9775 109.704 49.9904 109.697 49.9968 109.684C49.9968 109.684 49.9968 109.684 49.9968 109.678C49.9968 109.678 49.9968 109.678 49.9968 109.671C50.0097 109.659 50.0226 109.639 50.0419 109.626C50.0419 109.626 50.0419 109.626 50.0419 109.62V109.607C50.0741 109.575 50.1063 109.542 50.1385 109.51C50.1385 109.51 50.1385 109.51 50.1385 109.504C50.1579 109.484 50.1772 109.465 50.1965 109.452C50.2223 109.426 50.2481 109.4 50.2738 109.375C50.2738 109.375 50.2803 109.375 50.2867 109.375C50.2996 109.362 50.3125 109.355 50.3189 109.342C50.3318 109.329 50.3447 109.316 50.364 109.304C50.364 109.304 50.364 109.304 50.3705 109.304C50.3962 109.284 50.422 109.265 50.4478 109.245C50.4478 109.245 50.4478 109.245 50.4542 109.245C50.4735 109.232 50.4928 109.22 50.5122 109.207C50.5122 109.207 50.5122 109.207 50.5186 109.207C50.5186 109.207 50.5315 109.207 50.5379 109.2C50.583 109.168 50.6346 109.149 50.6861 109.129H50.699C50.7119 109.129 50.7312 109.123 50.7441 109.116H50.757C50.8021 109.116 50.8471 109.103 50.8922 109.097C50.918 109.097 50.9438 109.097 50.9695 109.097C50.9695 109.097 51.0211 109.097 51.0468 109.103C51.0855 109.103 51.1177 109.116 51.1499 109.129C51.195 109.142 51.2401 109.155 51.2852 109.174C51.3625 109.207 51.4334 109.245 51.5107 109.284C51.5107 109.284 51.5107 109.284 51.5171 109.284C51.5171 109.284 51.5235 109.284 51.53 109.291C51.5364 109.291 51.5493 109.304 51.5622 109.31C51.6073 109.329 51.6459 109.362 51.6782 109.4C51.6782 109.4 51.6782 109.4 51.6782 109.407C51.6846 109.42 51.691 109.426 51.6975 109.439C51.6975 109.439 51.6975 109.446 51.6975 109.452C51.7104 109.478 51.7232 109.504 51.7361 109.529C51.7555 109.6 51.7812 109.671 51.8005 109.743C51.8134 109.801 51.8263 109.859 51.8392 109.917C51.8521 109.975 51.865 110.027 51.8714 110.085C51.8843 110.182 51.8907 110.278 51.9036 110.382C51.9036 110.395 51.9165 110.395 51.9229 110.382C51.9423 110.382 51.9616 110.375 51.9745 110.369C51.9745 110.369 51.9809 110.369 51.9874 110.369C52.026 110.362 52.0647 110.349 52.1033 110.343C52.1033 110.343 52.1098 110.343 52.1162 110.343C52.1162 110.343 52.1291 110.343 52.1355 110.343H52.1484C52.1871 110.336 52.2257 110.324 52.2644 110.317C52.2644 110.317 52.2708 110.317 52.2772 110.317C52.2772 110.317 52.2901 110.317 52.2966 110.317H52.3095C52.3352 110.317 52.361 110.304 52.3868 110.298C52.3868 110.298 52.3868 110.298 52.3932 110.298C52.3932 110.298 52.3932 110.298 52.3932 110.304C52.3868 110.317 52.3803 110.324 52.3739 110.336C52.3739 110.336 52.3739 110.336 52.3739 110.343C52.3545 110.369 52.3417 110.388 52.3223 110.414C52.3223 110.414 52.3223 110.414 52.3223 110.42C52.3223 110.42 52.2901 110.472 52.2708 110.491C52.2708 110.491 52.2708 110.491 52.2708 110.498L52.0969 110.369Z" fill="white"/>
<path d="M50.4349 115.805C50.4349 115.805 50.422 115.805 50.4156 115.805C50.3962 115.805 50.3769 115.792 50.3576 115.785H50.3447C50.3318 115.785 50.3125 115.772 50.2996 115.766C50.2996 115.766 50.2932 115.766 50.2867 115.766C50.2739 115.766 50.261 115.753 50.2481 115.746C50.2481 115.746 50.2416 115.746 50.2352 115.74C50.2352 115.74 50.2288 115.74 50.2223 115.734C50.2223 115.734 50.2159 115.734 50.2094 115.727C50.2094 115.727 50.203 115.727 50.1966 115.721C50.1966 115.721 50.1901 115.721 50.1837 115.714C50.1708 115.708 50.1515 115.695 50.1386 115.688C50.1386 115.688 50.1386 115.688 50.1321 115.688C50.1321 115.688 50.1257 115.688 50.1192 115.682C50.1192 115.682 50.1064 115.682 50.1064 115.675C50.1064 115.675 50.1064 115.675 50.0999 115.675C50.0999 115.675 50.0935 115.675 50.087 115.669C50.0742 115.663 50.0613 115.656 50.0484 115.643C50.0484 115.643 50.0484 115.643 50.0419 115.643C50.0419 115.643 50.0355 115.637 50.0291 115.637C50.0291 115.637 50.0291 115.637 50.0226 115.637C50.0226 115.637 50.0162 115.637 50.0097 115.63C50.0097 115.63 50.0097 115.63 50.0033 115.63C50.0033 115.63 49.9969 115.63 49.9904 115.624C49.9904 115.624 49.9904 115.624 49.984 115.624C49.984 115.624 49.9775 115.617 49.9711 115.611C49.9582 115.604 49.9518 115.598 49.9389 115.585C49.9389 115.585 49.9389 115.585 49.9324 115.585C49.9324 115.585 49.926 115.585 49.9195 115.579C49.9067 115.572 49.9002 115.566 49.8873 115.553C49.8873 115.553 49.8873 115.553 49.8809 115.553C49.8809 115.553 49.868 115.546 49.8616 115.54C49.8616 115.54 49.8616 115.54 49.8551 115.54C49.8358 115.527 49.8165 115.514 49.7972 115.495C49.7972 115.495 49.7972 115.495 49.7907 115.495C49.7843 115.488 49.7714 115.482 49.7649 115.475C49.7649 115.475 49.7649 115.475 49.7585 115.475C49.7456 115.469 49.7392 115.456 49.7263 115.449C49.7134 115.443 49.707 115.43 49.6941 115.424C49.6941 115.424 49.6941 115.424 49.6876 115.424C49.6748 115.411 49.6619 115.398 49.649 115.385C49.6361 115.411 49.6232 115.43 49.6103 115.449C49.6103 115.449 49.6103 115.449 49.6103 115.456C49.6103 115.456 49.6103 115.469 49.6039 115.469C49.591 115.495 49.5717 115.52 49.5588 115.546C49.5588 115.546 49.5588 115.546 49.5588 115.553C49.5588 115.553 49.5588 115.566 49.5524 115.566C49.5395 115.592 49.5202 115.617 49.5073 115.643C49.5073 115.643 49.5073 115.643 49.5073 115.65C49.5073 115.65 49.5073 115.663 49.5008 115.663C49.4879 115.688 49.4686 115.714 49.4557 115.74C49.4557 115.74 49.4557 115.74 49.4557 115.746C49.4557 115.746 49.4557 115.759 49.4493 115.759C49.4428 115.772 49.43 115.785 49.4171 115.805C49.4106 115.759 49.4042 115.721 49.3978 115.688C49.3849 115.611 49.372 115.54 49.3591 115.462C49.3527 115.404 49.3462 115.353 49.3333 115.295C49.3269 115.236 49.314 115.185 49.3011 115.127C49.2947 115.069 49.2882 115.017 49.2754 114.959C49.2689 114.901 49.256 114.849 49.2432 114.791C49.2432 114.752 49.2303 114.714 49.2303 114.675C49.2238 114.617 49.2109 114.565 49.2045 114.507C49.1981 114.468 49.1916 114.423 49.1852 114.384C49.1723 114.313 49.1594 114.242 49.1465 114.165C49.1401 114.12 49.1336 114.068 49.1272 114.023C49.1272 114.023 49.1272 114.023 49.1336 114.016C49.1723 113.997 49.2045 113.984 49.2432 113.965H49.256C49.2882 113.952 49.3205 113.939 49.3462 113.919C49.372 113.907 49.3978 113.894 49.4235 113.881C49.4235 113.881 49.43 113.881 49.4364 113.881C49.4364 113.881 49.4428 113.881 49.4493 113.881H49.4622C49.5073 113.861 49.5588 113.836 49.6039 113.816C49.7263 113.758 49.8487 113.706 49.9646 113.648C50.0355 113.616 50.1064 113.584 50.1772 113.551C50.2481 113.519 50.3189 113.487 50.3898 113.455C50.422 113.442 50.4542 113.429 50.48 113.416C50.48 113.416 50.4864 113.416 50.4929 113.416C50.4864 113.429 50.48 113.442 50.4736 113.455C50.4736 113.455 50.4736 113.461 50.4736 113.468C50.4736 113.468 50.4736 113.474 50.4736 113.48C50.4736 113.48 50.4736 113.48 50.4736 113.487C50.4736 113.487 50.4736 113.487 50.4736 113.493C50.4736 113.493 50.4736 113.493 50.4736 113.5V113.513V113.526C50.4736 113.526 50.4736 113.526 50.4736 113.532C50.4671 113.558 50.4607 113.577 50.4542 113.603C50.4542 113.603 50.4542 113.603 50.4542 113.61C50.4542 113.616 50.4542 113.629 50.4542 113.635C50.4478 113.635 50.4349 113.642 50.4413 113.655C50.4413 113.687 50.4285 113.719 50.422 113.745C50.422 113.752 50.422 113.758 50.4156 113.771C50.4156 113.803 50.4156 113.842 50.4091 113.874C50.4091 113.939 50.4349 113.978 50.4864 114.01C50.4864 114.01 50.4864 114.01 50.4929 114.01C50.5251 114.042 50.5702 114.061 50.6088 114.081C50.6668 114.107 50.7183 114.132 50.7763 114.145C50.8858 114.178 51.0018 114.21 51.1113 114.229C51.1757 114.242 51.2337 114.255 51.2981 114.268C51.3368 114.275 51.3819 114.281 51.4205 114.281C51.4656 114.281 51.5171 114.294 51.5622 114.3C51.5622 114.3 51.5622 114.313 51.5622 114.326C51.5622 114.358 51.5687 114.391 51.5687 114.429C51.5816 114.61 51.5816 114.791 51.5687 114.978C51.5687 115.023 51.5558 115.062 51.5493 115.107C51.5493 115.14 51.5429 115.172 51.5365 115.198C51.4785 115.469 51.311 115.656 51.0662 115.772C50.9696 115.817 50.8665 115.85 50.7634 115.882C50.7312 115.895 50.6926 115.901 50.6604 115.914C50.6346 115.914 50.6024 115.914 50.5766 115.914L50.4349 115.805Z" fill="white"/>
<path d="M115.285 55.7138C118.719 55.7138 121.502 52.9246 121.502 49.4839C121.502 46.0432 118.719 43.254 115.285 43.254C111.852 43.254 109.069 46.0432 109.069 49.4839C109.069 52.9246 111.852 55.7138 115.285 55.7138Z" stroke="#462255" stroke-width="1.30421" stroke-miterlimit="10"/>
<path d="M114.525 43.3057C113.72 44.4613 113.816 45.7976 113.816 45.7976C114.692 46.7724 115.601 46.4174 115.601 46.4174C115.504 47.5601 115.826 48.6317 116.058 48.7931C116.29 48.9545 117.488 50.0972 117.488 50.0972C116.999 50.8783 115.652 50.8461 115.652 50.8461C114.796 51.0397 115.253 51.7434 115.253 51.7434C115.768 51.6918 116.354 52.1114 116.354 52.1114C116.973 52.5375 117.624 51.8854 117.624 51.8854C118.828 52.0791 119.086 51.7434 119.086 51.7434C119.182 50.6459 120.155 50.42 120.155 50.42C120.87 50.2263 121.508 49.4839 121.508 49.4839" stroke="#462255" stroke-width="1.30421" stroke-miterlimit="10"/>
<path d="M109.204 48.2056C110.131 48.2508 110.64 48.8189 110.64 48.8189C110.531 50.0261 110.789 50.0971 110.789 50.0971C111.207 50.0261 111.555 49.7679 111.555 49.7679C111.993 49.8389 112.502 50.6071 112.502 50.6071C112.592 51.1559 112.341 51.7369 112.341 51.7369C112.85 52.602 112.889 52.8731 112.889 52.8731C112.869 53.5704 112.779 53.8028 112.779 53.8028C112.18 54.4613 111.903 54.7001 111.903 54.7001" stroke="#462255" stroke-width="1.30421" stroke-miterlimit="10"/>
</svg>
