<svg width="133" height="131" viewBox="0 0 133 131" fill="none" xmlns="http://www.w3.org/2000/svg">
<path d="M77.7245 89.3542C77.7245 89.3542 78.0595 80.0984 75.4424 80.6179C74.1338 80.8776 73.862 80.8776 73.9252 80.8143C73.9884 80.7509 74.3677 80.6179 74.3677 80.6179C71.3018 81.4034 69.3611 81.8343 69.3611 81.8343L69.7467 90.5642L77.7245 89.3542Z" fill="white" stroke="#AC0855" stroke-width="1.92413" stroke-miterlimit="10"/>
<path d="M76.4285 76.8167C76.4285 76.8167 81.0116 78.711 83.1483 76.3859C85.3798 69.7783 87.4343 66.9148 81.9156 56.9811C81.9156 56.9811 80.2467 56.7214 78.0784 57.2282C78.6979 60.8013 78.5778 74.403 77.3577 75.4927L76.4348 76.8167H76.4285Z" fill="white" stroke="#AC0855" stroke-width="1.92413" stroke-miterlimit="10"/>
<path d="M20.1163 96.9502H19.0226C19.0226 96.9502 17.7583 95.7528 17.8974 85.2173C17.8974 85.2173 19.0353 83.2217 28.6756 84.0897V96.6715L20.1099 96.9502H20.1163Z" fill="white" stroke="#AC0855" stroke-miterlimit="10"/>
<path d="M77.8512 61.9226C80.266 80.2821 67.5218 93.8585 46.9957 95.2269C27.519 96.5257 15.211 81.5935 16.1403 61.9226C16.8672 46.4899 27.9299 35.454 46.9957 35.7327C65.8972 36.0051 75.822 46.4836 77.8512 61.9226Z" fill="white" stroke="#B31660" stroke-width="1.92413" stroke-miterlimit="10"/>
<path d="M75.0065 64.4124C77.1875 78.7174 65.6759 89.2973 47.1285 90.3616C29.5356 91.3689 18.416 79.7374 19.2505 64.4124C19.9079 52.3882 29.9023 43.7849 47.1285 44.0003C64.2093 44.2157 73.1733 52.3755 75.0065 64.4124Z" fill="#AC0855" stroke="#B31660" stroke-width="1.92413" stroke-miterlimit="10"/>
<path d="M18.5426 78.4005C18.5426 78.4005 14.0922 80.5798 11.8101 78.4005C9.1614 71.9512 6.92989 69.227 11.8101 58.9576C11.8101 58.9576 13.4601 58.5965 15.66 58.9576C15.268 62.5624 16.2542 76.1325 17.5438 77.1398L18.5489 78.4005H18.5426Z" fill="white" stroke="#AC0855" stroke-width="1.92413" stroke-miterlimit="10"/>
<path d="M28.0243 48.5616C26.4439 45.3497 23.5676 44.0002 23.5676 44.0002L28.0243 48.5616Z" fill="white"/>
<path d="M28.0243 48.5616C26.4439 45.3497 23.5676 44.0002 23.5676 44.0002" stroke="#AC0855" stroke-width="1.92413" stroke-miterlimit="10"/>
<path d="M63.7097 48.0295C64.8476 44.6845 68.1095 42.5748 68.1095 42.5748L63.7097 48.0295Z" fill="white"/>
<path d="M63.7097 48.0295C64.8476 44.6845 68.1095 42.5748 68.1095 42.5748" stroke="#AC0855" stroke-width="1.92413" stroke-miterlimit="10"/>
<path d="M44.1952 35.0233C45.1245 29.5813 40.0862 22.2831 40.0862 22.2831C36.2364 18.1525 32.8986 19.4576 31.6027 20.5979C30.3005 21.7383 28.9224 23.4488 28.9224 23.4488C32.336 25.4887 36.8875 25.4064 37.9495 24.7538C39.0116 24.1013 39.8207 23.1257 39.8207 23.1257" stroke="#AC0855" stroke-width="1.27985" stroke-miterlimit="10"/>
<path d="M47.7538 14.9342C45.1999 14.4844 42.0708 15.6755 40.857 17.2593C39.6433 18.8431 39.5168 19.4766 39.5168 19.4766C39.5168 19.4766 40.2185 21.2695 41.3058 21.2061C42.3932 21.1428 46.028 19.1915 47.1786 18.0258C48.3291 16.8601 49.6693 15.5804 49.6693 15.5804L47.7538 14.9406V14.9342Z" stroke="#AC0855" stroke-width="1.27985" stroke-miterlimit="10"/>
<path d="M93.383 42.8092L98.4592 77.2476L100.823 76.7914L93.383 35.9608H92.0618L93.383 42.8092Z" fill="#AC0855" stroke="#AC0855" stroke-width="1.27985" stroke-miterlimit="10"/>
<path d="M92.4918 35.7264C93.2319 35.7264 93.832 35.1251 93.832 34.3834C93.832 33.6416 93.2319 33.0403 92.4918 33.0403C91.7516 33.0403 91.1516 33.6416 91.1516 34.3834C91.1516 35.1251 91.7516 35.7264 92.4918 35.7264Z" fill="#AC0855" stroke="#AC0855" stroke-width="1.27985" stroke-miterlimit="10"/>
<path d="M94.7612 43.2717C97.9157 38.7927 97.568 39.0334 102.986 37.8614C107.487 36.8858 110.47 41.9413 118.195 41.6309C125.92 41.3205 128.215 39.8127 128.215 39.8127L131.597 63.1644C118.802 57.355 105.084 59.1478 100.476 65.5084C99.711 66.5601 99.4708 67.523 99.4708 67.523L94.7612 43.2654V43.2717Z" fill="white" stroke="#AC0855" stroke-width="1.92413" stroke-miterlimit="10"/>
<path d="M80.936 26.1094L81.0498 27.1547L82.0169 26.7366L81.1699 27.3574L82.0169 27.9846L81.0498 27.5601L80.936 28.6055L80.8222 27.5601L79.855 27.9846L80.7021 27.3574L79.855 26.7366L80.8222 27.1547L80.936 26.1094Z" fill="white"/>
<path d="M91.1518 11.1268L91.2656 12.1721L92.2265 11.754L91.3794 12.3749L92.2265 13.0021L91.2656 12.5776L91.1518 13.6229L91.0317 12.5776L90.0708 13.0021L90.9179 12.3749L90.0708 11.754L91.0317 12.1721L91.1518 11.1268Z" fill="white"/>
<path d="M34.0048 10.3031L34.1249 11.3484L35.0858 10.924L34.2387 11.5511L35.0858 12.172L34.1249 11.7539L34.0048 12.7992L33.891 11.7539L32.9302 12.172L33.7773 11.5511L32.9302 10.924L33.891 11.3484L34.0048 10.3031Z" fill="white"/>
<path d="M77.9088 1.16553L77.9973 1.9511L78.7179 1.63433L78.0794 2.10314L78.7179 2.57195L77.9973 2.25519L77.9088 3.04076L77.8203 2.25519L77.0996 2.57195L77.7318 2.10314L77.0996 1.63433L77.8203 1.9511L77.9088 1.16553Z" fill="white"/>
<path d="M13.9339 19.9454L13.6937 19.5526L13.2512 19.6603L13.6432 19.4195L13.5357 18.9761L13.7759 19.3689L14.2184 19.2612L13.8265 19.5019L13.9339 19.9454Z" fill="white"/>
<path d="M69.2977 14.1042L69.0639 13.7177L68.6213 13.8254L69.007 13.5847L68.9058 13.1412L69.1397 13.534L69.5822 13.4263L69.1903 13.6607L69.2977 14.1042Z" fill="white"/>
<path d="M3.74962 58.2482L3.5094 57.8618L3.06689 57.9695L3.45883 57.7287L3.35136 57.2853L3.58526 57.6781L4.02777 57.5704L3.64216 57.8048L3.74962 58.2482Z" fill="white"/>
<path d="M106.324 0.962835L106.084 0.570049L105.641 0.677748L106.033 0.443345L105.926 -0.00012207L106.166 0.386328L106.608 0.278629L106.216 0.519367L106.324 0.962835Z" fill="white"/>
<path d="M77.1114 104.476C84.653 106.415 92.8963 104.495 95.526 103.209C98.1558 101.923 102.682 96.9312 102.682 96.9312L96.6702 84.3114L89.9378 87.6121C89.9378 87.6121 74.9494 94.2197 69.3295 86.9152C57.7927 97.343 43.3543 95.3981 43.3543 95.3981C34.58 95.227 28.6377 90.5263 28.6377 90.5263C16.8101 96.4307 12.4735 110.926 12.4735 110.926C11.4557 113.346 10.6719 117.274 10.6719 117.274C21.8294 124.299 30.5026 126.517 30.5026 126.517C42.2859 129.767 54.4739 129.045 54.4739 129.045C72.092 127.911 80.7715 121.189 80.7715 121.189C80.7715 121.189 80.0572 107.752 75.0442 100.726" fill="white"/>
<path d="M77.1113 104.476C84.653 106.415 92.8963 104.495 95.526 103.209C98.1558 101.923 102.682 96.9312 102.682 96.9312L96.6702 84.3114L89.9378 87.6121C89.9378 87.6121 74.9494 94.2197 69.3295 86.9152C57.7927 97.343 43.3543 95.3981 43.3543 95.3981C34.58 95.227 28.6377 90.5263 28.6377 90.5263C16.8101 96.4307 12.4735 110.926 12.4735 110.926C11.4557 113.346 10.6719 117.274 10.6719 117.274C21.8294 124.299 30.5026 126.517 30.5026 126.517C42.2859 129.767 54.4739 129.045 54.4739 129.045C72.092 127.911 80.7715 121.189 80.7715 121.189C80.7715 121.189 80.0572 107.752 75.0442 100.726" stroke="#AC0855" stroke-width="1.92413" stroke-miterlimit="10"/>
<path opacity="0.5" d="M13.2819 110.391C44.7 129.011 79.1271 116.518 79.2662 116.055L79.9552 121.022C67.4006 129.068 46.9441 129.232 47.1274 128.326C28.3524 127.617 16.5122 119.863 16.5122 119.863L11.3032 117.094L13.2819 110.391Z" fill="#B9BDD4"/>
<path d="M109.408 86.9151C109.408 92.091 106.077 97.6914 101.968 97.6914C97.8589 97.6914 93.832 92.091 93.832 86.9151C93.832 81.7392 97.8652 77.5453 101.968 77.5453C106.071 77.5453 109.408 81.7392 109.408 86.9151Z" fill="white" stroke="#AC0855" stroke-width="1.92413" stroke-miterlimit="10"/>
<path d="M10.3496 108.404C15.5143 108.404 21.1025 111.743 21.1025 115.861C21.1025 119.979 15.5143 124.014 10.3496 124.014C5.18486 124.014 1 119.972 1 115.861C1 111.749 5.18486 108.404 10.3496 108.404Z" fill="white" stroke="#AC0855" stroke-width="1.92413" stroke-miterlimit="10"/>
<path d="M31.3055 102.373C28.3787 108.392 29.7568 117.679 29.7568 117.679H66.4217C68.4889 110.184 65.3913 102.012 65.3913 102.012L31.3119 102.367L31.3055 102.373Z" stroke="#B31660" stroke-width="1.92413" stroke-miterlimit="10"/>
<path d="M33.499 106.719C30.9514 110.755 32.1525 116.982 32.1525 116.982H64.0827C65.8843 111.958 63.185 106.478 63.185 106.478L33.499 106.719Z" fill="#D90368" stroke="#B31660" stroke-width="1.92413" stroke-miterlimit="10"/>
<path d="M50.5925 113.27C50.5672 113.2 50.5419 113.137 50.523 113.067C50.523 113.067 50.523 113.067 50.523 113.061C50.504 113.016 50.4914 112.972 50.4724 112.928C50.4661 112.909 50.4598 112.89 50.4534 112.877C50.4534 112.864 50.4408 112.845 50.4345 112.833V112.82C50.4281 112.801 50.4218 112.782 50.4155 112.763C50.4155 112.763 50.3965 112.706 50.3839 112.674C50.3839 112.674 50.3839 112.668 50.3839 112.662C50.3713 112.624 50.3523 112.579 50.3396 112.541C50.3396 112.541 50.3396 112.535 50.3396 112.528C50.308 112.452 50.2764 112.37 50.2448 112.294C50.2448 112.294 50.2448 112.288 50.2448 112.281V112.256C50.2448 112.256 50.2322 112.25 50.2322 112.243C50.2322 112.231 50.2259 112.224 50.2195 112.212C50.2195 112.199 50.2132 112.193 50.2069 112.18C50.2069 112.18 50.2006 112.155 50.1943 112.148C50.169 112.085 50.1437 112.022 50.1184 111.958C50.1184 111.958 50.1184 111.952 50.1184 111.946C50.1184 111.939 50.1184 111.933 50.1121 111.92C50.1121 111.92 50.1121 111.914 50.1121 111.908C50.0994 111.882 50.0931 111.857 50.0805 111.832C50.0805 111.832 50.0805 111.825 50.0805 111.819C50.0741 111.794 50.0615 111.775 50.0552 111.749C50.0678 111.749 50.0868 111.743 50.0994 111.743C50.131 111.743 50.169 111.743 50.2006 111.743C50.2511 111.743 50.2954 111.743 50.346 111.743C50.3713 111.743 50.3965 111.743 50.4218 111.743C50.4345 111.743 50.4471 111.743 50.4598 111.743C50.4914 111.743 50.523 111.743 50.5483 111.743C50.5735 111.743 50.6052 111.743 50.6304 111.743C50.6431 111.743 50.6494 111.743 50.662 111.743C50.6684 111.743 50.6747 111.743 50.6873 111.743C50.7126 111.743 50.7442 111.743 50.7695 111.743C50.7948 111.743 50.8201 111.743 50.8454 111.743C50.8643 111.743 50.8833 111.743 50.9086 111.743C50.9275 111.743 50.9465 111.743 50.9592 111.743C50.9718 111.743 50.9844 111.743 50.9971 111.743C51.016 111.743 51.035 111.743 51.0477 111.743C51.0729 111.743 51.0919 111.743 51.1172 111.743C51.1425 111.743 51.1614 111.743 51.1867 111.743C51.1994 111.743 51.2183 111.743 51.231 111.743H51.2752C51.2752 111.743 51.3068 111.743 51.3195 111.743C51.3195 111.743 51.3195 111.743 51.3258 111.743C51.3258 111.743 51.3258 111.743 51.3321 111.743C51.3574 111.743 51.3827 111.743 51.408 111.749C51.427 111.749 51.4459 111.749 51.4649 111.756C51.4902 111.756 51.5155 111.756 51.5407 111.756H51.5534C51.5723 111.756 51.5913 111.756 51.604 111.762C51.6166 111.762 51.6356 111.762 51.6482 111.768H51.6608C51.6735 111.768 51.6861 111.768 51.6988 111.775H51.7114C51.7241 111.775 51.7367 111.775 51.7494 111.781H51.762H51.7936L51.8062 111.787C51.8189 111.787 51.8252 111.787 51.8379 111.794C51.8695 111.794 51.9011 111.806 51.9264 111.813C51.9327 111.813 51.939 111.813 51.9453 111.813C51.9706 111.813 51.9959 111.825 52.0212 111.832H52.0338C52.0338 111.832 52.0338 111.832 52.0401 111.832C52.0401 111.832 52.0465 111.832 52.0528 111.832C52.0781 111.844 52.097 111.851 52.1223 111.863C52.1476 111.876 52.1729 111.882 52.1982 111.895C52.1982 111.895 52.1982 111.895 52.2045 111.895C52.2045 111.895 52.2488 111.939 52.2677 111.958C52.2677 111.958 52.2677 111.958 52.2677 111.965C52.2677 111.965 52.274 111.977 52.2804 111.984C52.2804 111.984 52.2804 111.984 52.2804 111.99C52.3056 112.041 52.3373 112.098 52.3625 112.148C52.3752 112.174 52.3815 112.199 52.3942 112.224C52.3942 112.224 52.3942 112.237 52.3942 112.243C52.3942 112.243 52.3941 112.269 52.4005 112.281C52.4005 112.281 52.4005 112.281 52.4005 112.288C52.4131 112.319 52.4258 112.351 52.4384 112.389C52.4447 112.414 52.451 112.433 52.4574 112.459C52.47 112.516 52.489 112.579 52.5016 112.636C52.5206 112.725 52.5395 112.82 52.5522 112.909C52.5648 112.966 52.5712 113.023 52.5838 113.086C52.5838 113.124 52.5964 113.156 52.6028 113.194C52.6028 113.194 52.6028 113.194 52.6028 113.2C52.6028 113.238 52.6154 113.27 52.6154 113.308C52.6154 113.339 52.6217 113.371 52.6217 113.396C52.6217 113.434 52.6217 113.472 52.628 113.504V113.517C52.628 113.586 52.6407 113.662 52.6407 113.732C52.6407 113.732 52.6407 113.745 52.647 113.751C52.647 113.751 52.647 113.796 52.6407 113.821C52.6407 113.872 52.6407 113.929 52.6407 113.979C52.628 113.992 52.6217 114.005 52.6091 114.011C52.5459 114.049 52.489 114.093 52.4258 114.131C52.2298 114.239 52.0338 114.347 51.8379 114.448C51.5597 114.594 51.2752 114.739 50.9908 114.879C50.858 114.942 50.7189 115.006 50.5862 115.063C50.5609 115.075 50.5419 115.082 50.5103 115.082C50.5419 115.044 50.5735 114.999 50.5925 114.955C50.6304 114.86 50.6684 114.758 50.6873 114.657C50.7 114.606 50.7063 114.556 50.7189 114.505C50.7253 114.461 50.7316 114.416 50.7379 114.372C50.7442 114.29 50.7569 114.214 50.7632 114.131C50.7632 114.043 50.7632 113.948 50.7632 113.859C50.7632 113.808 50.7442 113.751 50.7316 113.701C50.7316 113.701 50.7316 113.701 50.7316 113.694C50.7316 113.688 50.7316 113.682 50.7316 113.675C50.7316 113.675 50.7316 113.675 50.7316 113.669V113.656C50.7316 113.656 50.7316 113.65 50.7316 113.643C50.7316 113.637 50.7316 113.631 50.7316 113.624C50.7316 113.624 50.7316 113.624 50.7316 113.618C50.7316 113.605 50.7253 113.586 50.7189 113.574C50.7189 113.574 50.7189 113.561 50.7189 113.555C50.7189 113.555 50.7189 113.555 50.7189 113.548V113.536C50.7189 113.536 50.7189 113.536 50.7189 113.529C50.6873 113.428 50.6494 113.327 50.6178 113.219C50.6178 113.219 50.6178 113.219 50.6178 113.213L50.5925 113.27Z" fill="white"/>
<path d="M46.4396 112.047C46.4396 112.047 46.4269 112.047 46.4206 112.047C46.4143 112.047 46.408 112.047 46.3953 112.047C46.3637 112.047 46.3384 112.047 46.3068 112.041C46.2815 112.028 46.2626 112.028 46.2373 112.041C46.2246 112.041 46.2183 112.053 46.2057 112.053C46.2057 112.053 46.1993 112.053 46.193 112.06C46.193 112.06 46.193 112.06 46.1867 112.06C46.1741 112.072 46.1614 112.085 46.1488 112.098C46.1488 112.098 46.1488 112.098 46.1488 112.104C46.1108 112.148 46.0856 112.199 46.0666 112.25C46.0666 112.25 46.0666 112.256 46.0603 112.262C46.0603 112.262 46.0603 112.262 46.0603 112.269C46.0476 112.3 46.035 112.332 46.0287 112.364C46.0287 112.376 46.0287 112.383 46.0287 112.395C46.0287 112.395 46.0287 112.395 46.0287 112.402C46.0287 112.414 46.0223 112.433 46.016 112.446C46.016 112.446 46.016 112.446 46.016 112.452C46.016 112.452 46.016 112.452 46.016 112.459C46.016 112.459 46.016 112.459 46.016 112.465C46.0097 112.497 46.0034 112.529 45.9907 112.56C45.9781 112.624 45.9654 112.681 45.9528 112.744C45.9465 112.776 45.9402 112.814 45.9338 112.845C45.9338 112.858 45.9338 112.871 45.9338 112.883C45.9338 112.883 45.9338 112.883 45.9338 112.89C45.9275 112.94 45.9212 112.991 45.9149 113.042C45.9149 113.073 45.9086 113.111 45.9022 113.143C45.8896 113.156 45.8769 113.156 45.858 113.156C45.839 113.143 45.8201 113.149 45.8074 113.156C45.8074 113.156 45.8074 113.156 45.8011 113.156C45.7821 113.156 45.7632 113.156 45.7505 113.156C45.7252 113.156 45.6936 113.156 45.6683 113.156C45.5735 113.156 45.485 113.156 45.3902 113.156C45.3712 113.156 45.3523 113.156 45.3396 113.156C45.3206 113.156 45.3017 113.156 45.289 113.156C45.2827 113.156 45.2764 113.156 45.2701 113.156C45.2511 113.156 45.2321 113.156 45.2195 113.156C45.2069 113.156 45.2005 113.156 45.1879 113.156C45.1816 113.156 45.1753 113.156 45.1626 113.156C45.15 113.156 45.1436 113.156 45.131 113.156C45.1247 113.156 45.1184 113.156 45.112 113.156H45.0994C45.0931 113.156 45.0868 113.156 45.0741 113.156H45.0615C45.0615 113.156 45.0615 113.156 45.0551 113.156C45.0425 113.156 45.0362 113.156 45.0235 113.149C45.0109 113.149 45.0046 113.149 44.9919 113.143C44.9856 113.143 44.9793 113.143 44.973 113.143C44.9477 113.137 44.9287 113.124 44.9034 113.118C44.9034 113.118 44.8971 113.118 44.8908 113.118C44.8655 113.105 44.8465 113.099 44.8212 113.086C44.8212 113.086 44.8212 113.086 44.8149 113.086C44.8149 113.086 44.8086 113.086 44.8023 113.08C44.777 113.061 44.7517 113.042 44.7264 113.029C44.7264 113.029 44.7264 113.029 44.7201 113.029C44.7011 113.016 44.6885 112.997 44.6695 112.985C44.6695 112.985 44.6695 112.985 44.6695 112.978C44.6 112.896 44.5494 112.801 44.4988 112.706C44.4799 112.674 44.4736 112.636 44.4609 112.598C44.4609 112.598 44.4609 112.598 44.4609 112.592C44.4609 112.579 44.4546 112.567 44.4483 112.554C44.4483 112.554 44.4483 112.554 44.4483 112.548V112.535C44.4483 112.535 44.4483 112.535 44.4483 112.529C44.4483 112.522 44.4483 112.516 44.442 112.503C44.442 112.478 44.4293 112.459 44.423 112.433C44.423 112.433 44.423 112.433 44.423 112.427C44.423 112.408 44.4167 112.395 44.4103 112.376C44.4103 112.364 44.404 112.357 44.3977 112.345C44.3977 112.332 44.3977 112.319 44.3977 112.307C44.4103 112.294 44.4167 112.281 44.4103 112.262C44.4103 112.224 44.4293 112.186 44.442 112.148C44.4609 112.091 44.4862 112.041 44.5178 111.99C44.5305 111.965 44.5494 111.933 44.5684 111.908C44.5684 111.908 44.5684 111.908 44.5684 111.901C44.6 111.851 44.6316 111.8 44.6632 111.756C44.6632 111.756 44.6632 111.756 44.6632 111.749C44.7201 111.673 44.777 111.597 44.8339 111.528C44.8339 111.528 44.8339 111.528 44.8339 111.521C44.8592 111.496 44.8845 111.464 44.9097 111.433C44.8908 111.42 44.8781 111.414 44.8592 111.407C44.8592 111.407 44.8592 111.407 44.8529 111.407C44.8529 111.407 44.8465 111.407 44.8402 111.401C44.8149 111.388 44.7896 111.369 44.7644 111.356C44.7644 111.356 44.7644 111.356 44.758 111.356C44.758 111.356 44.7517 111.356 44.7454 111.35C44.7201 111.337 44.6948 111.318 44.6695 111.306C44.6695 111.306 44.6695 111.306 44.6632 111.306C44.6632 111.306 44.6569 111.306 44.6506 111.299C44.6253 111.287 44.6 111.268 44.5747 111.255C44.5747 111.255 44.5747 111.255 44.5684 111.255C44.5684 111.255 44.5621 111.255 44.5557 111.249C44.5368 111.236 44.5178 111.23 44.5052 111.217C44.5052 111.217 44.5052 111.204 44.5115 111.204C44.5557 111.204 44.6 111.192 44.6442 111.185C44.7011 111.179 44.758 111.166 44.8149 111.16C44.8718 111.154 44.9287 111.141 44.9793 111.135C45.0488 111.122 45.1247 111.116 45.1942 111.103C45.2195 111.103 45.2448 111.103 45.2701 111.084C45.2827 111.078 45.3017 111.084 45.3143 111.084C45.3839 111.071 45.4597 111.065 45.5293 111.052C45.6114 111.04 45.6999 111.021 45.7821 111.008C45.8517 110.995 45.9275 110.989 45.9971 110.976C46.0729 110.964 46.1551 110.951 46.231 110.938C46.231 110.938 46.2562 110.983 46.2689 111.008C46.2815 111.04 46.2942 111.071 46.3068 111.103C46.3068 111.103 46.3068 111.103 46.3068 111.109C46.3068 111.109 46.3068 111.116 46.3131 111.122C46.3258 111.154 46.3447 111.185 46.3574 111.217C46.37 111.249 46.3827 111.28 46.3953 111.312C46.3953 111.312 46.3953 111.312 46.3953 111.318C46.3953 111.318 46.3953 111.318 46.4016 111.325C46.4143 111.356 46.4332 111.388 46.4459 111.42C46.4585 111.452 46.4712 111.483 46.4838 111.515C46.4838 111.515 46.4838 111.515 46.4838 111.521C46.4838 111.521 46.4838 111.521 46.4901 111.528C46.5028 111.559 46.5217 111.591 46.5344 111.623C46.547 111.654 46.5597 111.686 46.5723 111.718C46.5723 111.718 46.5723 111.718 46.5723 111.724C46.5723 111.724 46.5723 111.724 46.5786 111.73C46.6039 111.794 46.6355 111.851 46.6608 111.908C46.6608 111.908 46.6608 111.914 46.6608 111.92C46.6608 111.92 46.6608 111.92 46.6608 111.927C46.6608 111.927 46.6608 111.927 46.6671 111.933C46.6924 111.996 46.724 112.06 46.7493 112.123C46.7493 112.123 46.7493 112.123 46.7493 112.129C46.7493 112.129 46.7493 112.129 46.7556 112.136C46.7746 112.174 46.7872 112.218 46.8062 112.256H46.7936C46.7493 112.237 46.7114 112.218 46.6671 112.193H46.6545C46.6355 112.193 46.6229 112.18 46.6039 112.174C46.6039 112.174 46.5913 112.174 46.585 112.174H46.5723H46.5597H46.547H46.5344C46.5281 112.174 46.5217 112.174 46.5154 112.174C46.5154 112.174 46.5028 112.174 46.5028 112.167L46.4396 112.047Z" fill="white"/>
<path d="M46.5843 115.246H46.5717C46.559 115.246 46.5527 115.246 46.5401 115.246H46.5274C46.5148 115.246 46.5084 115.246 46.4958 115.246C46.4895 115.246 46.4832 115.246 46.4768 115.246C46.4642 115.246 46.4579 115.246 46.4452 115.246H46.4326C46.4199 115.246 46.4136 115.246 46.401 115.246C46.3947 115.246 46.3883 115.246 46.382 115.246C46.3694 115.246 46.3631 115.246 46.3504 115.246C46.3441 115.246 46.3378 115.246 46.3314 115.246C46.3188 115.246 46.3062 115.246 46.2935 115.246C46.2872 115.246 46.2809 115.246 46.2682 115.246C46.2556 115.246 46.2493 115.246 46.2366 115.246C46.224 115.246 46.2177 115.246 46.205 115.246C46.1987 115.246 46.1924 115.246 46.1797 115.246C46.1608 115.246 46.1418 115.246 46.1292 115.253C46.1292 115.253 46.1292 115.253 46.1228 115.259C46.1039 115.259 46.0912 115.259 46.0723 115.259C46.0596 115.259 46.0533 115.259 46.0407 115.259C46.0154 115.259 45.9964 115.259 45.9711 115.265H45.9585C45.9332 115.265 45.9016 115.265 45.8763 115.265C45.8573 115.265 45.8447 115.265 45.8257 115.265C45.8068 115.265 45.7878 115.265 45.7688 115.265C45.7435 115.265 45.7246 115.265 45.6993 115.265C45.6866 115.265 45.6677 115.265 45.655 115.265C45.6361 115.265 45.6171 115.265 45.5918 115.265C45.5855 115.265 45.5792 115.259 45.5729 115.253C45.5729 115.253 45.5729 115.253 45.5729 115.246C45.5729 115.246 45.5665 115.234 45.5602 115.227C45.5602 115.227 45.5602 115.227 45.5602 115.221C45.5349 115.183 45.516 115.151 45.4907 115.113C45.4907 115.113 45.4907 115.107 45.4844 115.101C45.4844 115.101 45.4844 115.094 45.4844 115.088C45.4844 115.088 45.4844 115.082 45.478 115.075C45.478 115.075 45.478 115.069 45.4717 115.063C45.4717 115.063 45.4717 115.056 45.4717 115.05C45.4717 115.037 45.4591 115.031 45.4527 115.018C45.4527 115.018 45.4527 115.012 45.4464 115.006C45.4464 115.006 45.4464 114.999 45.4464 114.993C45.4464 114.98 45.4338 114.974 45.4275 114.961C45.4275 114.961 45.4275 114.955 45.4211 114.949C45.4211 114.949 45.4211 114.949 45.4211 114.942C45.4211 114.93 45.4085 114.923 45.4022 114.911C45.4022 114.911 45.4022 114.904 45.3959 114.898C45.3959 114.898 45.3959 114.892 45.3959 114.885C45.3706 114.841 45.3516 114.803 45.3263 114.758C45.3263 114.758 45.3263 114.752 45.32 114.746C45.32 114.746 45.32 114.739 45.32 114.733C45.3074 114.708 45.2947 114.682 45.2821 114.657C45.2821 114.657 45.2821 114.651 45.2757 114.644C45.2757 114.644 45.2757 114.638 45.2757 114.632C45.2631 114.606 45.2505 114.581 45.2378 114.556C45.2378 114.556 45.2378 114.549 45.2315 114.543C45.2315 114.543 45.2315 114.537 45.2315 114.53C45.2062 114.486 45.1872 114.442 45.162 114.397C45.162 114.397 45.162 114.391 45.1556 114.385C45.1556 114.385 45.1556 114.378 45.1556 114.372C45.1556 114.366 45.1493 114.353 45.143 114.347C45.143 114.347 45.143 114.347 45.143 114.34C45.1114 114.277 45.0735 114.214 45.0418 114.144C45.0229 114.112 45.0102 114.074 44.9913 114.036C44.9913 114.036 44.9913 114.036 44.9913 114.03C44.947 113.941 44.9028 113.859 44.8585 113.77C44.8459 113.739 44.8332 113.707 44.8143 113.675C44.8143 113.675 44.8143 113.675 44.8143 113.669C44.7953 113.625 44.77 113.58 44.7511 113.536C44.7258 113.485 44.7005 113.428 44.6752 113.377C44.6752 113.377 44.6752 113.371 44.6752 113.365C44.6562 113.327 44.6373 113.282 44.6183 113.244C44.6183 113.244 44.6183 113.238 44.6183 113.232C44.612 113.213 44.6057 113.194 44.5993 113.175C44.5993 113.162 44.5993 113.149 44.593 113.13C44.6309 113.175 44.6815 113.2 44.7321 113.219C44.7637 113.232 44.7953 113.244 44.8206 113.257C44.8269 113.257 44.8396 113.257 44.8459 113.257C44.8459 113.257 44.8522 113.257 44.8585 113.257C44.8965 113.27 44.9344 113.282 44.966 113.289C44.985 113.289 45.0039 113.289 45.0166 113.295C45.0166 113.295 45.0292 113.295 45.0355 113.295H45.0482C45.0545 113.295 45.0608 113.295 45.0671 113.295C45.0798 113.295 45.0861 113.295 45.0987 113.301C45.124 113.301 45.1556 113.314 45.1809 113.314C45.1936 113.314 45.2125 113.314 45.2252 113.32H45.2378C45.2505 113.32 45.2631 113.32 45.2757 113.327H45.2884C45.3074 113.327 45.3263 113.327 45.339 113.333H45.3516C45.3832 113.346 45.4085 113.339 45.4401 113.346C45.4654 113.346 45.497 113.346 45.5223 113.352C45.5476 113.352 45.5792 113.352 45.6045 113.352C45.6171 113.352 45.6361 113.352 45.6487 113.352C45.674 113.352 45.6993 113.352 45.7246 113.352C45.7435 113.352 45.7625 113.352 45.7878 113.346C45.8068 113.346 45.8257 113.339 45.8447 113.333C45.851 113.333 45.8573 113.333 45.8636 113.333C45.8636 113.333 45.8763 113.333 45.8826 113.333C45.8826 113.333 45.8889 113.333 45.8953 113.333C45.9458 113.32 45.9901 113.308 46.0407 113.295C46.0407 113.295 46.047 113.295 46.0533 113.295C46.1671 113.257 46.2746 113.225 46.382 113.187C46.5906 113.111 46.7929 113.042 46.9952 112.959C47.1216 112.915 47.2417 112.864 47.3619 112.814C47.5072 112.757 47.6526 112.7 47.798 112.636C47.8613 112.611 47.9245 112.586 47.9877 112.56H48.0003C48.0003 112.649 48.0003 112.738 48.0003 112.82C48.0003 112.959 48.0003 113.099 47.9877 113.238C47.975 113.46 47.9624 113.682 47.9434 113.91C47.9434 113.96 47.9308 114.011 47.9308 114.062V114.074C47.9308 114.087 47.9308 114.106 47.9308 114.119V114.131C47.9182 114.201 47.9118 114.271 47.8992 114.34C47.8865 114.41 47.8739 114.48 47.8613 114.549C47.8613 114.549 47.8423 114.606 47.836 114.632C47.817 114.701 47.7791 114.759 47.7222 114.803C47.7222 114.803 47.7159 114.809 47.7095 114.816C47.7095 114.816 47.7095 114.816 47.7032 114.822C47.6779 114.841 47.6463 114.86 47.621 114.873C47.621 114.873 47.6147 114.873 47.6084 114.879C47.6084 114.879 47.6084 114.879 47.6021 114.879C47.5831 114.892 47.5578 114.898 47.5389 114.911C47.5389 114.911 47.5325 114.911 47.5262 114.917C47.4883 114.93 47.4504 114.949 47.4124 114.961C47.4124 114.961 47.4061 114.961 47.3998 114.961C47.3619 114.974 47.3239 114.987 47.286 114.999C47.2797 114.999 47.2734 114.999 47.267 115.006C47.2481 115.006 47.2291 115.018 47.2165 115.025C47.2101 115.025 47.2038 115.025 47.1912 115.025C47.1912 115.025 47.1912 115.025 47.1849 115.025C47.1785 115.025 47.1722 115.025 47.1659 115.025C47.1532 115.025 47.1469 115.025 47.1343 115.031C47.128 115.031 47.1216 115.031 47.109 115.031C47.109 115.031 47.109 115.031 47.1027 115.031C47.0964 115.031 47.09 115.031 47.0774 115.031C47.0774 115.031 47.0774 115.031 47.0711 115.031C47.0647 115.031 47.0584 115.031 47.0458 115.031C47.0458 115.031 47.0458 115.031 47.0395 115.031C47.0331 115.031 47.0205 115.031 47.0142 115.031C47.0142 115.031 47.0078 115.031 47.0015 115.031C46.9952 115.031 46.9889 115.031 46.9826 115.031C46.9826 115.031 46.9826 115.031 46.9762 115.031C46.9699 115.031 46.9636 115.031 46.951 115.031C46.951 115.031 46.951 115.031 46.9446 115.031C46.932 115.031 46.9257 115.031 46.913 115.037C46.913 115.037 46.913 115.037 46.9067 115.037C46.8941 115.037 46.8877 115.037 46.8751 115.044C46.8751 115.044 46.8751 115.044 46.8688 115.044C46.8625 115.044 46.8561 115.044 46.8435 115.044C46.8435 115.044 46.8435 115.044 46.8372 115.044C46.8245 115.044 46.8119 115.044 46.7992 115.044C46.7992 115.044 46.7992 115.044 46.7929 115.044C46.7866 115.044 46.7803 115.044 46.7676 115.044H46.755C46.7487 115.044 46.7423 115.044 46.7297 115.044C46.7234 115.044 46.7171 115.044 46.7107 115.044C46.7044 115.044 46.6981 115.044 46.6854 115.044L46.5843 115.246Z" fill="white"/>
<path d="M47.2544 107.961C47.2544 107.961 47.2924 107.961 47.305 107.961C47.3113 107.961 47.3177 107.961 47.3303 107.961H47.3429C47.3493 107.961 47.3556 107.961 47.3682 107.967H47.3809C47.4062 107.973 47.4314 107.98 47.4567 107.986C47.4883 107.992 47.5136 107.999 47.5452 108.005H47.5579C47.5579 108.005 47.5579 108.005 47.5642 108.005C47.5642 108.005 47.5705 108.005 47.5768 108.005C47.5895 108.005 47.6084 108.011 47.6211 108.018H47.6337C47.6337 108.018 47.6337 108.018 47.64 108.018C47.64 108.018 47.6464 108.018 47.6527 108.018C47.6906 108.03 47.7349 108.043 47.7728 108.049H47.7854C47.7854 108.049 47.7854 108.049 47.7918 108.049C47.7918 108.049 47.7981 108.049 47.8044 108.049C47.8234 108.056 47.8487 108.068 47.8676 108.075C47.9245 108.094 47.9814 108.106 48.032 108.125C48.0573 108.132 48.0826 108.138 48.1078 108.144C48.1078 108.144 48.1142 108.144 48.1205 108.144C48.1395 108.157 48.1584 108.163 48.1774 108.163H48.19C48.2153 108.17 48.2406 108.182 48.2596 108.189C48.3354 108.214 48.4176 108.239 48.4935 108.265C48.6136 108.303 48.7337 108.341 48.8475 108.379C48.9613 108.417 49.0814 108.461 49.1951 108.506C49.2078 108.506 49.2204 108.512 49.2331 108.518C49.2331 108.518 49.2331 108.518 49.2394 108.518C49.2773 108.531 49.3153 108.55 49.3469 108.563C49.3974 108.582 49.448 108.607 49.4986 108.632C49.4923 108.632 49.4859 108.632 49.4796 108.639C49.467 108.639 49.4607 108.639 49.448 108.645C49.4417 108.645 49.4354 108.645 49.4227 108.651C49.3974 108.651 49.3722 108.67 49.3469 108.677C49.3405 108.677 49.3279 108.677 49.3216 108.683H49.3089C49.2647 108.708 49.2204 108.727 49.1762 108.753C49.1762 108.753 49.1699 108.753 49.1635 108.759C49.1635 108.759 49.1635 108.759 49.1572 108.759C49.1572 108.759 49.1446 108.759 49.1446 108.765C49.1446 108.765 49.1383 108.765 49.1319 108.772C49.1319 108.772 49.1319 108.772 49.1256 108.778C49.113 108.784 49.1003 108.791 49.0877 108.803C49.0877 108.803 49.0814 108.803 49.075 108.81C49.075 108.81 49.075 108.81 49.0687 108.816C49.0687 108.816 49.0624 108.816 49.0561 108.822C49.0561 108.822 49.0561 108.822 49.0498 108.822C49.0498 108.822 49.0434 108.822 49.0371 108.829C49.0371 108.829 49.0371 108.829 49.0308 108.829C49.0308 108.829 49.0245 108.829 49.0181 108.835C49.0181 108.835 49.0181 108.835 49.0118 108.835C48.9992 108.841 48.9865 108.854 48.9739 108.86C48.9739 108.86 48.9739 108.86 48.9676 108.867C48.9549 108.873 48.9486 108.879 48.936 108.892C48.936 108.892 48.9296 108.892 48.9233 108.898C48.9233 108.898 48.9233 108.898 48.917 108.898C48.917 108.898 48.917 108.898 48.9107 108.905C48.9107 108.905 48.9044 108.905 48.898 108.911C48.8917 108.911 48.8791 108.924 48.8728 108.93C48.8728 108.93 48.8728 108.93 48.8664 108.936C48.8601 108.936 48.8475 108.949 48.8411 108.955C48.8411 108.955 48.8411 108.955 48.8348 108.962C48.8285 108.968 48.8159 108.974 48.8095 108.981C48.7969 108.993 48.7779 109.006 48.7653 109.019C48.7653 109.019 48.7653 109.019 48.7653 109.025C48.74 109.044 48.721 109.069 48.6957 109.088C48.6957 109.088 48.6957 109.088 48.6894 109.088C48.6894 109.088 48.6894 109.088 48.6831 109.088C48.6578 109.114 48.6389 109.133 48.6136 109.158C48.6136 109.158 48.6136 109.158 48.6136 109.164C48.6136 109.164 48.6136 109.164 48.6136 109.171C48.6136 109.171 48.6136 109.171 48.6136 109.177C48.6009 109.19 48.5883 109.209 48.5756 109.221C48.5756 109.221 48.5756 109.221 48.5756 109.228C48.5756 109.228 48.5756 109.228 48.5756 109.234C48.563 109.247 48.5504 109.266 48.544 109.278C48.544 109.278 48.544 109.278 48.544 109.285C48.544 109.285 48.544 109.297 48.5377 109.297C48.5377 109.297 48.5377 109.304 48.5314 109.31C48.5314 109.31 48.5314 109.31 48.5314 109.316C48.5314 109.316 48.5314 109.329 48.5251 109.329C48.4871 109.399 48.4492 109.462 48.4113 109.532C48.3544 109.652 48.2975 109.766 48.2343 109.887C48.2343 109.893 48.228 109.906 48.2216 109.912C48.2216 109.912 48.2216 109.918 48.2153 109.925C48.2027 109.956 48.1837 109.988 48.1711 110.026C48.1711 110.026 48.1711 110.032 48.1647 110.039C48.1647 110.039 48.1647 110.039 48.1647 110.045C48.1521 110.07 48.1458 110.096 48.1331 110.121C48.1331 110.121 48.1331 110.127 48.1268 110.134C48.1142 110.159 48.1078 110.178 48.0952 110.203C48.0952 110.203 48.0952 110.21 48.0889 110.216C48.0889 110.216 48.0889 110.216 48.0889 110.222C48.0826 110.241 48.0762 110.267 48.0636 110.286C48.0636 110.286 48.0636 110.292 48.0636 110.298C48.0573 110.317 48.0446 110.336 48.0383 110.355C48.0383 110.355 48.0383 110.362 48.032 110.368C48.032 110.368 48.032 110.368 48.032 110.374C48.032 110.387 48.0193 110.406 48.013 110.419C48.013 110.419 48.013 110.425 48.013 110.431C48.0067 110.45 48.0004 110.469 47.9877 110.488C47.9877 110.488 47.9877 110.495 47.9877 110.501C47.9624 110.552 47.9435 110.609 47.9182 110.66C47.9182 110.66 47.9182 110.666 47.9182 110.672C47.9182 110.685 47.9056 110.698 47.8992 110.71C47.8992 110.71 47.8992 110.717 47.8929 110.723C47.8929 110.723 47.8929 110.723 47.8929 110.729C47.8803 110.761 47.8676 110.793 47.855 110.818C47.8423 110.85 47.8297 110.881 47.8171 110.913C47.8171 110.913 47.8171 110.913 47.8171 110.919C47.8171 110.919 47.8171 110.919 47.8171 110.926C47.8171 110.938 47.8171 110.945 47.8107 110.957C47.8107 110.957 47.8107 110.957 47.8107 110.964C47.8107 110.964 47.8107 110.964 47.8107 110.97C47.8107 110.983 47.8107 110.989 47.8044 111.002C47.8044 111.002 47.8044 111.008 47.8044 111.014C47.7791 111.071 47.7538 111.122 47.7349 111.179C47.7349 111.179 47.7349 111.179 47.7349 111.185C47.7349 111.185 47.7349 111.185 47.7349 111.192C47.7286 111.217 47.7222 111.236 47.7096 111.261C47.7096 111.261 47.7096 111.261 47.7096 111.268C47.7096 111.268 47.7096 111.268 47.7096 111.274C47.7096 111.287 47.7096 111.293 47.7033 111.306C47.7033 111.306 47.7033 111.306 47.6969 111.312C47.6969 111.312 47.6969 111.312 47.6906 111.312C47.6906 111.312 47.6843 111.306 47.678 111.299C47.6653 111.287 47.659 111.274 47.6464 111.268C47.6464 111.268 47.6464 111.261 47.6464 111.255C47.6464 111.255 47.6464 111.255 47.6464 111.249C47.6464 111.249 47.6464 111.249 47.6464 111.242C47.6464 111.242 47.6464 111.242 47.6464 111.236C47.6464 111.236 47.6464 111.236 47.6464 111.23C47.6464 111.23 47.6464 111.23 47.6464 111.223C47.5958 111.173 47.5389 111.116 47.4883 111.065C47.4883 111.065 47.4883 111.059 47.4883 111.052C47.4883 111.052 47.482 111.046 47.4757 111.04C47.4757 111.04 47.4757 111.04 47.4757 111.033C47.4504 111.008 47.4251 110.983 47.3935 110.957C47.3935 110.957 47.3935 110.951 47.3935 110.945C47.3745 110.926 47.3619 110.907 47.3429 110.888C47.3429 110.888 47.3429 110.888 47.3366 110.881C47.3366 110.881 47.3366 110.875 47.3303 110.869C47.3303 110.869 47.3303 110.869 47.3303 110.862C47.3303 110.862 47.3303 110.862 47.3303 110.856C47.3177 110.837 47.2987 110.824 47.286 110.812C47.2671 110.793 47.2544 110.774 47.2355 110.755C47.2228 110.742 47.2102 110.729 47.1975 110.717C47.1975 110.717 47.1975 110.717 47.1975 110.71C47.1849 110.698 47.1723 110.685 47.1596 110.672C47.1596 110.672 47.1596 110.672 47.1596 110.666C47.1596 110.666 47.1596 110.666 47.1596 110.66C47.1533 110.647 47.1406 110.641 47.1343 110.628C47.1343 110.628 47.1343 110.628 47.1343 110.621C47.128 110.609 47.1154 110.602 47.109 110.59C47.109 110.59 47.109 110.59 47.109 110.583C47.1027 110.571 47.0901 110.564 47.0838 110.552C47.0838 110.552 47.0585 110.52 47.0458 110.507C47.0458 110.507 47.0458 110.507 47.0458 110.501C47.0395 110.488 47.0269 110.482 47.0205 110.469C47.0205 110.469 47.0205 110.469 47.0205 110.463C47.0142 110.457 47.0079 110.444 47.0016 110.438C47.0016 110.438 47.0016 110.438 47.0016 110.431C46.9952 110.425 46.9889 110.412 46.9826 110.406C46.9826 110.406 46.9826 110.406 46.9826 110.4C46.9763 110.393 46.97 110.381 46.9636 110.374V110.368C46.9636 110.368 46.9573 110.355 46.951 110.349C46.9257 110.311 46.8941 110.273 46.8688 110.241C46.8688 110.241 46.8688 110.235 46.8625 110.229C46.8625 110.229 46.8625 110.229 46.8625 110.222C46.8562 110.21 46.8499 110.203 46.8372 110.191C46.8372 110.191 46.8372 110.184 46.8309 110.178C46.8309 110.178 46.8309 110.178 46.8309 110.172C46.8309 110.172 46.8309 110.165 46.8246 110.159C46.8246 110.159 46.8246 110.153 46.8246 110.146C46.8119 110.134 46.8056 110.115 46.793 110.102C46.793 110.102 46.793 110.096 46.7866 110.089C46.7866 110.089 46.7866 110.089 46.7866 110.083C46.755 110.02 46.7234 109.963 46.6918 109.899C46.6729 109.855 46.6729 109.804 46.6729 109.754C46.6729 109.709 46.6855 109.659 46.6981 109.614C46.6981 109.614 46.6981 109.602 46.6981 109.595C46.7108 109.57 46.7171 109.538 46.7297 109.513C46.7297 109.5 46.7361 109.494 46.7424 109.481C46.7424 109.475 46.7487 109.468 46.755 109.462C46.7803 109.392 46.8119 109.335 46.8435 109.272C46.8625 109.234 46.8815 109.202 46.9004 109.164C46.9004 109.164 46.9004 109.164 46.9004 109.158C46.9194 109.126 46.9384 109.095 46.9573 109.057C46.9573 109.057 46.9573 109.057 46.9573 109.05C46.9573 109.05 46.9763 109.019 46.9889 109C46.9889 109 46.9889 109 46.9889 108.993C46.9889 108.993 46.9889 108.987 46.9889 108.981C46.9889 108.981 46.9889 108.981 46.9889 108.974C47.0142 108.93 47.0458 108.892 47.0711 108.848C47.0711 108.848 47.0711 108.848 47.0711 108.841C47.0711 108.841 47.0711 108.835 47.0774 108.829C47.0774 108.829 47.0774 108.829 47.0774 108.822C47.0901 108.803 47.109 108.784 47.1217 108.759C47.1217 108.759 47.1217 108.759 47.1217 108.753C47.1217 108.753 47.1217 108.753 47.1217 108.746C47.1406 108.721 47.1533 108.702 47.1723 108.677C47.1723 108.677 47.1723 108.677 47.1723 108.67C47.1723 108.67 47.1786 108.658 47.1849 108.651C47.1849 108.651 47.1849 108.651 47.1849 108.645C47.1849 108.645 47.1912 108.632 47.1975 108.626C47.1975 108.626 47.1975 108.626 47.1975 108.62C47.1975 108.62 47.2039 108.607 47.2102 108.601C47.2102 108.601 47.2102 108.601 47.2102 108.594C47.2102 108.594 47.2418 108.556 47.2544 108.537C47.2544 108.537 47.2544 108.537 47.2544 108.531C47.2671 108.512 47.286 108.493 47.2987 108.474C47.2987 108.474 47.2987 108.474 47.2987 108.468C47.2987 108.468 47.3113 108.449 47.3176 108.442C47.3176 108.442 47.3176 108.442 47.3176 108.436C47.3176 108.436 47.3176 108.436 47.3176 108.43C47.324 108.417 47.3366 108.41 47.3429 108.398C47.3429 108.398 47.3556 108.379 47.3619 108.372C47.3619 108.372 47.3619 108.372 47.3619 108.366C47.3619 108.366 47.3619 108.366 47.3619 108.36C47.3745 108.341 47.3872 108.328 47.4061 108.309C47.4188 108.29 47.4314 108.277 47.4504 108.258C47.4694 108.239 47.482 108.22 47.501 108.201C47.501 108.201 47.501 108.201 47.501 108.195C47.501 108.195 47.501 108.189 47.501 108.182C47.5199 108.163 47.5326 108.151 47.5515 108.132C47.5768 108.106 47.6021 108.087 47.6274 108.068L47.2544 107.961Z" fill="white"/>
<path d="M51.1425 110.166C51.1425 110.166 51.1109 110.21 51.0919 110.235C51.0919 110.235 51.0919 110.235 51.0919 110.242C51.0919 110.242 51.0603 110.292 51.0413 110.311C51.0413 110.311 51.0413 110.311 51.0413 110.318C51.0097 110.362 50.9844 110.4 50.9528 110.444C50.9528 110.444 50.9528 110.444 50.9528 110.451C50.9339 110.476 50.9212 110.495 50.9023 110.52C50.9023 110.52 50.9023 110.52 50.9023 110.527C50.8833 110.552 50.8707 110.571 50.8517 110.596C50.8517 110.596 50.8517 110.596 50.8517 110.603C50.8517 110.603 50.8201 110.653 50.8011 110.672C50.8011 110.672 50.8011 110.672 50.8011 110.679C50.7822 110.704 50.7695 110.723 50.7505 110.748C50.7505 110.748 50.7505 110.748 50.7505 110.755C50.7189 110.799 50.6936 110.837 50.662 110.881C50.662 110.881 50.662 110.881 50.662 110.888C50.662 110.888 50.662 110.888 50.662 110.894C50.6431 110.919 50.6304 110.938 50.6115 110.964C50.6115 110.964 50.6115 110.964 50.6115 110.97C50.5925 110.995 50.5799 111.014 50.5609 111.04C50.5609 111.04 50.5609 111.04 50.5609 111.046C50.5609 111.046 50.5293 111.097 50.5103 111.116C50.5103 111.116 50.5103 111.116 50.5103 111.122C50.4914 111.147 50.4787 111.166 50.4598 111.192C50.4598 111.192 50.4598 111.192 50.4598 111.198C50.4408 111.224 50.4281 111.243 50.4092 111.268C50.4092 111.268 50.4092 111.268 50.4092 111.274C50.4092 111.274 50.3839 111.319 50.3586 111.306H50.346C50.2511 111.268 50.15 111.236 50.0552 111.198H50.0425C49.9477 111.16 49.8466 111.128 49.7517 111.09H49.7391C49.6443 111.052 49.5431 111.021 49.4483 110.983H49.4357C49.3408 110.945 49.2397 110.913 49.1449 110.875H49.1322C49.088 110.862 49.0437 110.843 48.9995 110.831C48.9932 110.831 48.9805 110.831 48.9868 110.812C48.9868 110.812 48.9995 110.812 49.0058 110.812C49.0437 110.799 49.088 110.786 49.1259 110.774C49.1828 110.748 49.2397 110.71 49.2966 110.685C49.3092 110.679 49.3156 110.666 49.3282 110.66C49.3282 110.66 49.3282 110.66 49.3345 110.66C49.3345 110.66 49.3472 110.653 49.3535 110.647C49.3535 110.647 49.3535 110.647 49.3598 110.647C49.3788 110.628 49.4041 110.615 49.423 110.596C49.4609 110.558 49.4673 110.508 49.4609 110.463C49.4609 110.432 49.4483 110.394 49.442 110.362C49.442 110.362 49.442 110.349 49.442 110.343C49.442 110.343 49.442 110.343 49.442 110.337C49.4293 110.305 49.423 110.273 49.4104 110.248C49.3851 110.197 49.3598 110.147 49.3282 110.089C49.3282 110.089 49.3282 110.083 49.3219 110.077C49.3219 110.077 49.3219 110.07 49.3219 110.064C49.3029 110.032 49.2839 110.007 49.2713 109.975C49.2713 109.975 49.2713 109.969 49.265 109.963C49.265 109.963 49.265 109.956 49.265 109.95C49.2523 109.931 49.2397 109.912 49.2271 109.893C49.2271 109.893 49.2271 109.887 49.2207 109.88C49.2207 109.88 49.2207 109.88 49.2207 109.874C49.2018 109.849 49.1828 109.817 49.1638 109.792C49.1638 109.792 49.1638 109.792 49.1638 109.785C49.1638 109.785 49.1638 109.779 49.1575 109.773C49.1575 109.773 49.1575 109.773 49.1575 109.766C49.1512 109.754 49.1449 109.747 49.1386 109.735C49.1386 109.735 49.1385 109.728 49.1322 109.722V109.716C49.1322 109.716 49.1259 109.703 49.1196 109.697C49.1196 109.697 49.1196 109.697 49.1196 109.69C49.1196 109.69 49.1133 109.678 49.1069 109.671C49.1069 109.671 49.1069 109.671 49.1069 109.665C49.1069 109.665 49.1006 109.652 49.0943 109.646V109.64C49.0943 109.64 49.088 109.627 49.0817 109.621C49.0817 109.621 49.0817 109.621 49.0817 109.614C49.0817 109.614 49.0817 109.614 49.0753 109.608C49.0753 109.608 49.0753 109.602 49.069 109.595C49.0627 109.589 49.0564 109.576 49.05 109.57C49.05 109.57 49.05 109.57 49.05 109.564C49.0374 109.545 49.05 109.538 49.0564 109.526C49.0627 109.513 49.0753 109.507 49.0817 109.494C49.0817 109.494 49.0817 109.494 49.0817 109.488C49.0817 109.488 49.0817 109.488 49.0817 109.481C49.0943 109.469 49.1069 109.45 49.1259 109.437C49.1259 109.437 49.1259 109.437 49.1259 109.431V109.418C49.1575 109.386 49.1891 109.355 49.2207 109.323C49.2207 109.323 49.2207 109.323 49.2207 109.317C49.2397 109.298 49.2587 109.279 49.2776 109.266C49.3029 109.241 49.3282 109.215 49.3535 109.19C49.3535 109.19 49.3598 109.19 49.3661 109.19C49.3788 109.177 49.3914 109.171 49.3977 109.158C49.4104 109.146 49.423 109.133 49.442 109.12C49.442 109.12 49.442 109.12 49.4483 109.12C49.4736 109.101 49.4989 109.082 49.5242 109.063C49.5242 109.063 49.5242 109.063 49.5305 109.063C49.5494 109.051 49.5684 109.038 49.5874 109.025C49.5874 109.025 49.5874 109.025 49.5937 109.025C49.5937 109.025 49.6063 109.025 49.6127 109.019C49.6569 108.987 49.7075 108.968 49.7581 108.949H49.7707C49.7833 108.949 49.8023 108.943 49.815 108.936H49.8276C49.8718 108.936 49.9161 108.924 49.9603 108.917C49.9856 108.917 50.0109 108.917 50.0362 108.917C50.0362 108.917 50.0868 108.917 50.1121 108.924C50.15 108.924 50.1816 108.936 50.2132 108.949C50.2575 108.962 50.3017 108.974 50.346 108.994C50.4218 109.025 50.4914 109.063 50.5672 109.101C50.5672 109.101 50.5672 109.101 50.5735 109.101C50.5735 109.101 50.5799 109.101 50.5862 109.108C50.5925 109.108 50.6051 109.12 50.6178 109.127C50.662 109.146 50.7 109.177 50.7316 109.215C50.7316 109.215 50.7316 109.215 50.7316 109.222C50.7379 109.234 50.7442 109.241 50.7505 109.253C50.7505 109.253 50.7505 109.26 50.7505 109.266C50.7632 109.291 50.7758 109.317 50.7885 109.342C50.8074 109.412 50.8327 109.481 50.8517 109.551C50.8643 109.608 50.877 109.665 50.8896 109.722C50.9023 109.779 50.9149 109.83 50.9212 109.887C50.9339 109.982 50.9402 110.077 50.9528 110.178C50.9528 110.191 50.9655 110.191 50.9718 110.178C50.9908 110.178 51.0097 110.172 51.0224 110.166C51.0224 110.166 51.0287 110.166 51.035 110.166C51.0729 110.159 51.1109 110.147 51.1488 110.14C51.1488 110.14 51.1551 110.14 51.1614 110.14C51.1614 110.14 51.1741 110.14 51.1804 110.14H51.1931C51.231 110.134 51.2689 110.121 51.3068 110.115C51.3068 110.115 51.3132 110.115 51.3195 110.115C51.3195 110.115 51.3321 110.115 51.3384 110.115H51.3511C51.3764 110.115 51.4017 110.102 51.4269 110.096C51.4269 110.096 51.4269 110.096 51.4333 110.096C51.4333 110.096 51.4333 110.096 51.4333 110.102C51.4269 110.115 51.4206 110.121 51.4143 110.134C51.4143 110.134 51.4143 110.134 51.4143 110.14C51.3953 110.166 51.3827 110.185 51.3637 110.21C51.3637 110.21 51.3637 110.21 51.3637 110.216C51.3637 110.216 51.3321 110.267 51.3132 110.286C51.3132 110.286 51.3132 110.286 51.3132 110.292L51.1425 110.166Z" fill="white"/>
<path d="M49.5113 115.5C49.5113 115.5 49.4987 115.5 49.4923 115.5C49.4734 115.5 49.4544 115.487 49.4354 115.481H49.4228C49.4102 115.481 49.3912 115.468 49.3785 115.462C49.3785 115.462 49.3722 115.462 49.3659 115.462C49.3533 115.462 49.3406 115.449 49.328 115.443C49.328 115.443 49.3217 115.443 49.3153 115.436C49.3153 115.436 49.309 115.436 49.3027 115.43C49.3027 115.43 49.2964 115.43 49.29 115.424C49.29 115.424 49.2837 115.424 49.2774 115.417C49.2774 115.417 49.2711 115.417 49.2648 115.411C49.2521 115.405 49.2332 115.392 49.2205 115.386C49.2205 115.386 49.2205 115.386 49.2142 115.386C49.2142 115.386 49.2079 115.386 49.2015 115.379C49.2015 115.379 49.1889 115.379 49.1889 115.373C49.1889 115.373 49.1889 115.373 49.1826 115.373C49.1826 115.373 49.1763 115.373 49.1699 115.367C49.1573 115.36 49.1447 115.354 49.132 115.341C49.132 115.341 49.132 115.341 49.1257 115.341C49.1257 115.341 49.1194 115.335 49.113 115.335C49.113 115.335 49.113 115.335 49.1067 115.335C49.1067 115.335 49.1004 115.335 49.0941 115.329C49.0941 115.329 49.0941 115.329 49.0878 115.329C49.0878 115.329 49.0814 115.329 49.0751 115.322C49.0751 115.322 49.0751 115.322 49.0688 115.322C49.0688 115.322 49.0625 115.316 49.0561 115.31C49.0435 115.303 49.0372 115.297 49.0245 115.284C49.0245 115.284 49.0245 115.284 49.0182 115.284C49.0182 115.284 49.0119 115.284 49.0056 115.278C48.9929 115.272 48.9866 115.265 48.974 115.253C48.974 115.253 48.974 115.253 48.9676 115.253C48.9676 115.253 48.955 115.246 48.9487 115.24C48.9487 115.24 48.9487 115.24 48.9424 115.24C48.9234 115.227 48.9044 115.215 48.8855 115.196C48.8855 115.196 48.8855 115.196 48.8791 115.196C48.8728 115.189 48.8602 115.183 48.8539 115.177C48.8539 115.177 48.8539 115.177 48.8475 115.177C48.8349 115.17 48.8286 115.158 48.8159 115.151C48.8033 115.145 48.797 115.132 48.7843 115.126C48.7843 115.126 48.7843 115.126 48.778 115.126C48.7654 115.113 48.7527 115.101 48.7401 115.088C48.7274 115.113 48.7148 115.132 48.7021 115.151C48.7021 115.151 48.7021 115.151 48.7021 115.158C48.7021 115.158 48.7021 115.17 48.6958 115.17C48.6832 115.196 48.6642 115.221 48.6516 115.246C48.6516 115.246 48.6516 115.246 48.6516 115.253C48.6516 115.253 48.6516 115.265 48.6453 115.265C48.6326 115.291 48.6136 115.316 48.601 115.341C48.601 115.341 48.601 115.341 48.601 115.348C48.601 115.348 48.601 115.36 48.5947 115.36C48.582 115.386 48.5631 115.411 48.5504 115.436C48.5504 115.436 48.5504 115.436 48.5504 115.443C48.5504 115.443 48.5504 115.455 48.5441 115.455C48.5378 115.468 48.5251 115.481 48.5125 115.5C48.5062 115.455 48.4999 115.417 48.4935 115.386C48.4809 115.31 48.4682 115.24 48.4556 115.164C48.4493 115.107 48.443 115.056 48.4303 114.999C48.424 114.942 48.4114 114.892 48.3987 114.834C48.3924 114.777 48.3861 114.727 48.3734 114.67C48.3671 114.613 48.3545 114.562 48.3418 114.505C48.3418 114.467 48.3292 114.429 48.3292 114.391C48.3229 114.334 48.3102 114.283 48.3039 114.226C48.2976 114.188 48.2912 114.144 48.2849 114.106C48.2723 114.036 48.2596 113.967 48.247 113.891C48.2407 113.846 48.2343 113.796 48.228 113.751C48.228 113.751 48.228 113.751 48.2344 113.745C48.2723 113.726 48.3039 113.713 48.3418 113.694H48.3545C48.3861 113.681 48.4177 113.669 48.443 113.65C48.4682 113.637 48.4935 113.624 48.5188 113.612C48.5188 113.612 48.5251 113.612 48.5315 113.612C48.5315 113.612 48.5378 113.612 48.5441 113.612H48.5568C48.601 113.593 48.6516 113.567 48.6958 113.548C48.8159 113.491 48.936 113.441 49.0498 113.384C49.1194 113.352 49.1889 113.32 49.2584 113.289C49.328 113.257 49.3975 113.225 49.4671 113.194C49.4987 113.181 49.5303 113.168 49.5556 113.156C49.5556 113.156 49.5619 113.156 49.5682 113.156C49.5619 113.168 49.5556 113.181 49.5492 113.194C49.5492 113.194 49.5492 113.2 49.5492 113.206C49.5492 113.206 49.5492 113.213 49.5492 113.219C49.5492 113.219 49.5492 113.219 49.5492 113.225C49.5492 113.225 49.5492 113.225 49.5492 113.232C49.5492 113.232 49.5492 113.232 49.5492 113.238V113.251V113.263C49.5492 113.263 49.5492 113.263 49.5492 113.27C49.5429 113.295 49.5366 113.314 49.5303 113.339C49.5303 113.339 49.5303 113.339 49.5303 113.346C49.5303 113.352 49.5303 113.365 49.5303 113.371C49.5239 113.371 49.5113 113.377 49.5176 113.39C49.5176 113.422 49.505 113.453 49.4987 113.479C49.4987 113.485 49.4987 113.491 49.4923 113.504C49.4923 113.536 49.4923 113.574 49.486 113.605C49.486 113.669 49.5113 113.707 49.5619 113.738C49.5619 113.738 49.5619 113.738 49.5682 113.738C49.5998 113.77 49.6441 113.789 49.682 113.808C49.7389 113.834 49.7894 113.859 49.8463 113.872C49.9538 113.903 50.0676 113.935 50.1751 113.954C50.2383 113.967 50.2952 113.979 50.3584 113.992C50.3963 113.998 50.4406 114.005 50.4785 114.005C50.5227 114.005 50.5733 114.017 50.6176 114.024C50.6176 114.024 50.6176 114.036 50.6176 114.049C50.6176 114.081 50.6239 114.112 50.6239 114.15C50.6365 114.328 50.6365 114.505 50.6239 114.689C50.6239 114.733 50.6113 114.771 50.6049 114.815C50.6049 114.847 50.5986 114.879 50.5923 114.904C50.5354 115.17 50.371 115.354 50.1308 115.468C50.036 115.512 49.9348 115.544 49.8337 115.576C49.8021 115.588 49.7642 115.595 49.7326 115.607C49.7073 115.607 49.6757 115.607 49.6504 115.607L49.5113 115.5Z" fill="white"/>
<path d="M113.151 56.5313C116.52 56.5313 119.251 53.7942 119.251 50.4178C119.251 47.0414 116.52 44.3043 113.151 44.3043C109.781 44.3043 107.05 47.0414 107.05 50.4178C107.05 53.7942 109.781 56.5313 113.151 56.5313Z" stroke="#D90368" stroke-width="1.27985" stroke-miterlimit="10"/>
<path d="M112.404 44.355C111.614 45.489 111.709 46.8004 111.709 46.8004C112.569 47.757 113.46 47.4086 113.46 47.4086C113.365 48.5299 113.681 49.5816 113.909 49.7399C114.137 49.8983 115.312 51.0197 115.312 51.0197C114.832 51.7862 113.511 51.7545 113.511 51.7545C112.67 51.9446 113.119 52.6351 113.119 52.6351C113.625 52.5845 114.2 52.9962 114.2 52.9962C114.807 53.4144 115.445 52.7745 115.445 52.7745C116.627 52.9646 116.88 52.6351 116.88 52.6351C116.975 51.5581 117.93 51.3364 117.93 51.3364C118.631 51.1464 119.257 50.4178 119.257 50.4178" stroke="#D90368" stroke-width="1.27985" stroke-miterlimit="10"/>
<path d="M107.183 49.1635C108.093 49.2078 108.593 49.7653 108.593 49.7653C108.485 50.95 108.738 51.0197 108.738 51.0197C109.149 50.95 109.49 50.6966 109.49 50.6966C109.92 50.7663 110.42 51.5202 110.42 51.5202C110.508 52.0587 110.261 52.6288 110.261 52.6288C110.761 53.4778 110.799 53.7438 110.799 53.7438C110.78 54.428 110.691 54.6561 110.691 54.6561C110.103 55.3023 109.832 55.5367 109.832 55.5367" stroke="#D90368" stroke-width="1.27985" stroke-miterlimit="10"/>
<path opacity="0.5" d="M68.4889 59.9967C64.0511 52.4071 56.3452 49.6893 49.2461 51.0894C42.1533 52.4895 52.666 56.3793 54.0252 56.7467C55.3843 57.1142 61.3771 61.9543 62.515 63.0376C63.6529 64.121 67.3889 66.8388 68.9377 67.5737C70.4865 68.3085 72.3829 66.9655 71.2514 64.4441L68.4889 59.9967Z" fill="white"/>
<path opacity="0.5" d="M45.0169 53.0976C45.0169 54.2886 43.1331 55.2516 41.9446 55.2516C40.7562 55.2516 39.1821 54.9791 39.1821 53.7881C39.1821 52.5971 40.7625 50.9373 41.9446 50.9373C43.1268 50.9373 45.0169 51.9002 45.0169 53.0912V53.0976Z" fill="white"/>
<path d="M46.0602 56.734C46.4721 56.734 46.8061 56.3993 46.8061 55.9865C46.8061 55.5736 46.4721 55.2389 46.0602 55.2389C45.6482 55.2389 45.3142 55.5736 45.3142 55.9865C45.3142 56.3993 45.6482 56.734 46.0602 56.734Z" fill="#EC81B3"/>
</svg>
