<svg width="381" height="351" viewBox="0 0 381 351" fill="none" xmlns="http://www.w3.org/2000/svg">
<mask id="mask0_583_3408" style="mask-type:alpha" maskUnits="userSpaceOnUse" x="0" y="0" width="381" height="351">
<rect width="380.25" height="351" fill="#D9D9D9"/>
</mask>
<g mask="url(#mask0_583_3408)">
<path d="M288.77 285.428C288.77 285.428 289.941 253.168 280.813 254.981C276.249 255.887 275.303 255.887 275.527 255.662C275.744 255.446 277.067 254.981 277.067 254.981C266.384 257.716 259.622 259.224 259.622 259.224L260.969 289.647L288.77 285.428Z" fill="white" stroke="#16266D" stroke-width="11.3335" stroke-miterlimit="10"/>
<path d="M88.0078 311.897H84.1979C84.1979 311.897 79.7945 307.726 80.2757 271.006C80.2757 271.006 84.238 264.052 117.837 267.076V310.926L87.9838 311.897H88.0078Z" fill="white" stroke="#16266D" stroke-width="11.3335" stroke-miterlimit="10"/>
<path d="M289.211 189.827C297.625 253.809 253.213 301.124 181.675 305.897C113.803 310.421 70.9073 258.381 74.1397 189.827C76.6743 136.047 115.231 97.5793 181.675 98.5578C247.551 99.5043 282.137 136.023 289.211 189.827Z" fill="white" stroke="#16266D" stroke-width="11.3335" stroke-miterlimit="10"/>
<path d="M279.297 198.506C286.901 248.355 246.781 285.227 182.141 288.941C120.829 292.454 82.0804 251.917 84.9839 198.506C87.2779 156.605 122.104 126.615 182.141 127.369C241.671 128.123 272.905 156.557 279.297 198.506Z" fill="#16266D" stroke="#12204E" stroke-width="11.3335" stroke-miterlimit="10"/>
<path d="M82.5216 247.256C82.5216 247.256 67.0092 254.852 59.0606 247.256C49.8286 224.782 42.0563 215.285 59.0606 179.496C59.0606 179.496 64.8115 178.237 72.4794 179.496C71.1159 192.057 74.5488 239.348 79.0485 242.861L82.5536 247.256H82.5296H82.5216Z" fill="white" stroke="#16266D" stroke-width="11.3335" stroke-miterlimit="10"/>
<path d="M284.254 241.73C284.254 241.73 300.224 248.331 307.675 240.23C315.455 217.202 322.61 207.225 303.376 172.607C303.376 172.607 297.561 171.7 290.005 173.465C292.163 185.921 291.745 233.316 287.494 237.118L284.278 241.73H284.254Z" fill="white" stroke="#16266D" stroke-width="11.3335" stroke-miterlimit="10"/>
<path d="M115.567 143.266C110.057 132.069 100.039 127.369 100.039 127.369L115.567 143.266Z" fill="white"/>
<path d="M115.567 143.266C110.057 132.069 100.039 127.369 100.039 127.369" stroke="#16266D" stroke-width="11.3335" stroke-miterlimit="10"/>
<path d="M239.931 141.405C243.893 129.751 255.267 122.396 255.267 122.396L239.931 141.405Z" fill="white"/>
<path d="M239.931 141.405C243.893 129.751 255.267 122.396 255.267 122.396" stroke="#16266D" stroke-width="11.3335" stroke-miterlimit="10"/>
<path d="M171.922 96.0794C175.162 77.1101 157.605 51.6759 157.605 51.6759C144.186 37.2785 132.556 41.8263 128.04 45.8047C123.5 49.775 118.696 55.7425 118.696 55.7425C130.59 62.849 146.456 62.5683 150.153 60.2903C153.851 58.0124 156.674 54.6196 156.674 54.6196" stroke="#459A51" stroke-width="7.5396" stroke-miterlimit="10"/>
<path d="M184.322 26.0734C175.419 24.5093 164.519 28.6561 160.284 34.1744C156.057 39.6928 155.616 41.8985 155.616 41.8985C155.616 41.8985 158.062 48.1468 161.848 47.9302C165.634 47.7056 178.307 40.912 182.317 36.8454C186.327 32.7788 190.996 28.3192 190.996 28.3192L184.322 26.0894V26.0654V26.0734Z" stroke="#459A51" stroke-width="7.5396" stroke-miterlimit="10"/>
<path d="M30.9635 177.018L30.1294 175.67L28.5894 176.047L29.9529 175.205L29.5759 173.657L30.394 175.029L31.9341 174.652L30.5946 175.47L30.9716 177.018H30.9635Z" fill="white"/>
<path d="M286.636 338.125C301.603 363.446 304.86 391.544 304.86 391.544L353.306 366.294L333.646 332.727C333.646 332.727 294.424 287.288 259.526 276.917C219.317 313.26 169.002 306.482 169.002 306.482C138.427 305.889 117.717 289.502 117.717 289.502C96.3976 291.804 46.2432 330.834 39.7463 348.945C28.2123 381.1 73.9873 400.864 73.9873 400.864C112.872 425.351 207.751 423.739 207.751 423.739C269.151 419.785 299.397 396.364 299.397 396.364C299.397 396.364 296.911 349.538 279.433 325.051" fill="white"/>
<path d="M286.636 338.125C299.79 353.605 301.603 393.043 301.603 393.043L351.605 363.406L313.707 309.883C313.707 309.883 293.245 284.112 259.51 276.926C219.301 313.268 168.986 306.49 168.986 306.49C138.411 305.897 117.701 289.51 117.701 289.51C78.7036 285.243 37.0273 358.417 30.5304 375.726C28.862 380.186 57.689 390.605 69.9689 392.65C75.5113 393.573 93.3898 337.282 91.0237 345.44C82.7863 373.793 73.9794 400.864 73.9794 400.864C112.864 425.351 207.743 423.739 207.743 423.739C269.143 419.785 299.389 396.364 299.389 396.364C299.389 396.364 304.106 362.604 286.636 338.125Z" stroke="#16266D" stroke-width="11.3335" stroke-linecap="round" stroke-linejoin="round"/>
<path d="M126.997 330.802C116.795 351.776 121.599 384.14 121.599 384.14H249.379C256.582 358.025 245.786 329.542 245.786 329.542L127.021 330.778L126.997 330.802Z" stroke="#12204E" stroke-width="11.3335" stroke-miterlimit="10"/>
<path d="M134.641 345.945C125.762 360.006 129.949 381.71 129.949 381.71H241.222C247.502 364.2 238.094 345.103 238.094 345.103L134.641 345.945Z" fill="#16266D" stroke="#12204E" stroke-width="11.3335" stroke-miterlimit="10"/>
<path opacity="0.5" d="M256.582 183.114C241.118 156.661 214.264 147.188 189.52 152.073C164.799 156.95 201.439 170.505 206.179 171.788C210.919 173.071 231.798 189.939 235.768 193.709C239.73 197.487 252.756 206.96 258.154 209.518C263.552 212.077 270.161 207.401 266.215 198.61L256.59 183.114H256.582Z" fill="#717CA3"/>
<path opacity="0.5" d="M174.785 159.075C174.785 163.23 168.216 166.583 164.078 166.583C159.939 166.583 154.453 165.636 154.453 161.482C154.453 157.327 159.963 151.544 164.078 151.544C168.192 151.544 174.785 154.896 174.785 159.051V159.075Z" fill="#717CA3"/>
<path opacity="0.5" d="M178.419 171.748C179.855 171.748 181.018 170.585 181.018 169.141C181.018 167.698 179.855 166.535 178.419 166.535C176.983 166.535 175.82 167.698 175.82 169.141C175.82 170.585 176.983 171.748 178.419 171.748Z" fill="#717CA3"/>
<path d="M165.906 186.041C169.042 181.02 174.561 177.98 180.48 177.98C186.4 177.98 191.918 181.02 195.054 186.041L201.976 197.07L206.813 194.279C208.321 193.405 210.197 193.525 211.577 194.584C212.957 195.634 213.566 197.423 213.117 199.107L208.922 214.724C208.313 217.01 205.946 218.373 203.652 217.764L187.988 213.585C186.303 213.136 185.068 211.724 184.836 210.008C184.603 208.291 185.445 206.591 186.953 205.733L192.046 202.805L185.325 192.097C184.282 190.437 182.453 189.418 180.488 189.418C178.523 189.418 176.686 190.437 175.652 192.097L172.515 197.102C170.863 199.749 167.39 200.591 164.703 198.979C161.96 197.335 161.086 193.757 162.786 191.046L165.922 186.041H165.906ZM211.569 223.002C214.256 221.389 217.737 222.232 219.381 224.878L223.753 231.865C225.437 234.56 226.335 237.656 226.367 240.84C226.424 250.329 218.716 258.069 209.195 258.069L191.934 258.053V263.772C191.934 265.504 190.891 267.076 189.279 267.742C187.667 268.4 185.822 268.047 184.587 266.811L173.117 255.374C171.433 253.697 171.433 250.978 173.117 249.318L184.587 237.88C185.822 236.645 187.667 236.292 189.279 236.95C190.891 237.608 191.934 239.188 191.934 240.92V246.639H209.179C212.331 246.639 214.898 244.064 214.882 240.92C214.882 239.869 214.577 238.827 214.023 237.936L209.652 230.95C207.952 228.231 208.81 224.662 211.569 223.018V223.002ZM146.223 217.459L141.042 214.475C139.534 213.601 138.692 211.917 138.924 210.2C139.157 208.484 140.392 207.072 142.076 206.623L157.741 202.444C160.035 201.834 162.401 203.198 163.011 205.484L167.206 221.085C167.655 222.761 167.045 224.534 165.666 225.608C164.286 226.683 162.401 226.787 160.901 225.913L156.153 223.178L146.921 237.904C146.367 238.795 146.063 239.837 146.063 240.888C146.047 244.032 148.605 246.607 151.766 246.607H157.533C160.709 246.607 163.267 249.166 163.267 252.326C163.267 255.486 160.701 258.045 157.533 258.045H151.766C142.253 258.045 134.545 250.321 134.593 240.816C134.609 237.632 135.507 234.544 137.208 231.841L146.223 217.451V217.459Z" fill="white"/>
</g>
</svg>
