<?xml version="1.0" encoding="UTF-8"?>
<svg id="Layer_2" data-name="Layer 2" xmlns="http://www.w3.org/2000/svg" viewBox="0 0 395.61 319">
  <defs>
    <style>
      .cls-1, .cls-2, .cls-3, .cls-4, .cls-5, .cls-6, .cls-7, .cls-8, .cls-9 {
        stroke-miterlimit: 10;
      }

      .cls-1, .cls-5, .cls-6, .cls-7, .cls-10 {
        stroke: #000;
      }

      .cls-1, .cls-6 {
        stroke-width: 1.08px;
      }

      .cls-11, .cls-4 {
        fill: #fff;
      }

      .cls-12 {
        fill: #c1c6da;
      }

      .cls-13 {
        fill: #d1cfcf;
      }

      .cls-14 {
        fill: #3d7dcc;
      }

      .cls-15 {
        fill: #459a51;
      }

      .cls-2 {
        stroke: #459a51;
        stroke-width: 1.8px;
      }

      .cls-2, .cls-16, .cls-8, .cls-9 {
        fill: none;
      }

      .cls-3 {
        fill: #16266d;
      }

      .cls-3, .cls-4, .cls-16, .cls-8, .cls-9 {
        stroke-width: 2.7px;
      }

      .cls-3, .cls-9 {
        stroke: #12204e;
      }

      .cls-4, .cls-16, .cls-8 {
        stroke: #16266d;
      }

      .cls-5, .cls-10 {
        stroke-width: 2.91px;
      }

      .cls-17 {
        fill: #717ca3;
      }

      .cls-17, .cls-18, .cls-6 {
        isolation: isolate;
        opacity: .5;
      }

      .cls-18 {
        fill: #b9bcd1;
      }

      .cls-16, .cls-10 {
        stroke-linecap: round;
        stroke-linejoin: round;
      }

      .cls-7 {
        stroke-width: 1.94px;
      }
    </style>
  </defs>
  <g id="Layer_3" data-name="Layer 3">
    <g id="story2">
      <rect class="cls-12" y="3.32" width="395" height="315"/>
      <polygon class="cls-13" points=".61 295.87 23.23 295.26 29.77 289.78 36.03 293.43 67.48 293.43 82.02 286.72 112.17 284.91 124.77 275.68 142.9 273.95 149.26 270.3 154.39 266.64 160.42 266.64 163.43 262.99 172.71 264.21 184.18 259.34 200.4 254.47 204.14 256.59 214.69 255.69 223.74 250.82 273.22 222.82 299.12 221.6 301.58 216.96 309.67 216.96 315.71 212.98 323.24 208.1 333.12 205.45 336.81 203.34 339.83 200.9 347.98 200.9 351.89 198.46 359.43 196.03 363.12 191.88 372.43 183.85 374.5 181.41 382.71 180.77 388.07 175.1 388.07 169.24 395.61 168.02 395 318.32 0 318.32 .61 295.87"/>
      <g id="astronaut">
        <path class="cls-5" d="m180.96,214.75s33.82,33.23,44.53,34.56,17.63-9.28,16.86-11.57c-.74-2.23-22.31-20.1-19.99-20.35,2.32-.25,22.47,16.76,25.12,16.6,2.65-.16,12.27-7.97,9.77-11.54s-34.64-33.17-36.97-32.53c-2.16.59-39.32,24.83-39.32,24.83Z"/>
        <g>
          <path class="cls-5" d="m193.16,173.59s-5.79-4.11-6.77-3.33c-.49.4-.63.46-.64.42,0-.04.1-.18.1-.18-1.06,1.02-1.78,1.64-1.78,1.64l5.81,3.92,3.27-2.46Z"/>
          <path class="cls-5" d="m165.09,193.43l-.72.35s-1.57-.38-7.56-6.88c0,0-.36-1.46,6.03-3.62l7.56,7.31-5.32,2.85h0Z"/>
          <path class="cls-5" d="m176.97,162.54c11.59,6.53,13.99,15.67,3.55,21.84-10.93,6.46-27.32,1.2-35.94-9.01-5.67-6.71-3.73-12.88,5.9-16.13,9-3.04,18.04-1.48,26.49,3.29Z"/>
          <path class="cls-5" d="m176.93,163.98c9.16,5.11,9.98,12.46.49,17.72-9.8,5.43-23.17,1.99-29.95-5.9-4.63-5.38-2.54-10.72,6.33-13.84,8.33-2.93,16.23-1.83,23.13,2.02Z"/>
          <path class="cls-5" d="m153.65,182.93s-1.67,2.4-4.2,1.82c-4.7-2.75-7.3-3.59-8.63-9.72,0,0,.82-.54,2.25-.88,1.27,1.72,8.05,8.18,9.34,8.37l1.25.4h0Z"/>
          <path class="cls-5" d="m184.58,168.47s3.38-.19,3-1.57c-2.8-2.96-3.46-4.38-11.25-6.79,0,0-.9.21-1.65.77,2.11,1.12,9.53,6.18,9.57,6.86l.33.73h0Z"/>
          <path class="cls-7" d="m148.85,159.5c-1.55-1.86-6.48-3.23-6.48-3.23-3.17-.6-4.36.31-4.63.85-.27.55-.41,1.3-.41,1.3,2.35.07,4.54-.71,4.84-1.08.29-.37.35-.79.35-.79"/>
          <path class="cls-7" d="m143.53,153.03c-1.31.26-2.38,1.05-2.44,1.68-.06.64.08.84.08.84,0,0,.92.41,1.41.22.49-.19,1.54-1.3,1.69-1.8.14-.49.33-1.04.33-1.04l-1.08.11h0Z"/>
          <path class="cls-1" d="m203.85,181.22c8.22,2.83,15.95,7.34,15.95,7.34l.49-8.14-10.8-3.49s-15.15-3.48-22.22-2.5c.84,8.15-8.76,11.07-8.76,11.07-5.37,2.43-11.94,1.39-11.94,1.39-3.43,2.18-6.19,14.36-4.13,19.05,4.08,9.28,18.53,8.81,18.53,8.81,14.49,1.67,32.02-10.07,32.02-10.07,9.2-7.34,7.3-14.76,7.3-14.76,0,0-12.26-7.72-20.4-10.13"/>
          <path class="cls-6" d="m175.77,206.85c38.16,3.11,39.46-18.81,39.12-19.13l4.99,2.9c1.04,9.89-11.26,17.91-12.06,17.06-13.31,7.26-28.08,5.75-28.08,5.75l-3.96-6.58Z"/>
          <path class="cls-10" d="m203.85,181.22c5.56,1.39,15.86,7.89,15.86,7.89l-.39-9.01-17.66-4.95s-8.12-2.04-14.41-.72c.84,8.15-8.76,11.07-8.76,11.07-5.37,2.43-11.94,1.39-11.94,1.39-7.76,2.55-2.84,21.57-.68,26.64.58,1.37,9.17.54,12.26-.44,1.38-.44-7.25-15.23-6.07-13.31,4.39,7.17,8.9,14.97,8.9,14.97,14.49,1.67,32.02-10.07,32.02-10.07,9.2-7.34,7.3-14.76,7.3-14.76,0,0-8.04-6.2-16.43-8.69"/>
          <path class="cls-5" d="m214.88,182.57c.89-2.3,5.04-3.39,9.15-1.73s7.97,6.17,7.37,8.78-5.82,2.94-10.38.88c-4.39-1.98-7.06-5.54-6.14-7.94Z"/>
          <path class="cls-5" d="m168.01,209.8c3.76-2.06,10.33-1.5,13.7,2.05,3.57,3.75,3.07,10.29-.94,12.8s-11.02.32-14.32-3.91c-3.11-3.99-2.31-8.83,1.55-10.95Z"/>
          <path class="cls-5" d="m175.88,193.4c2.42,5.11,10.64,11.64,10.64,11.64l22.62-12.85c-5.31-5.32-13.46-9.13-13.46-9.13l-19.81,10.33h0Z"/>
          <path class="cls-5" d="m180.39,195.6c1.39,3.72,7.16,7.98,7.16,7.98l19.65-11.1c-3.33-3.76-9.29-6.26-9.29-6.26l-17.52,9.37Z"/>
          <path class="cls-6" d="m171.52,163.62c-5.79-1.85-10.76-1.38-13.66.43-3.01,1.88,4.11,1.28,4.96,1.15.85-.13,6.2.51,7.31.7,1.12.19,4.39.48,5.54.45,1.16-.03,1.36-.92-.53-1.64l-3.62-1.1Z"/>
          <path class="cls-6" d="m156.59,165.6c.53.45-.02,1.19-.64,1.42s-1.57.45-2.09-.01-.4-1.39.21-1.62,1.99-.24,2.51.2h0Z"/>
          <path class="cls-1" d="m158.75,166.77c.21-.08.23-.28.05-.43s-.51-.22-.72-.14-.23.27-.05.43.51.22.72.14Z"/>
          <path class="cls-1" d="m196.1,194.4c-.07-.04-.14-.07-.21-.11h0s-.09-.05-.14-.08c-.02-.01-.04-.02-.05-.03-.01,0-.03-.02-.05-.02h-.01s-.04-.03-.06-.04c0,0-.06-.03-.09-.05h-.01s-.09-.05-.13-.07h-.01c-.08-.05-.17-.09-.25-.13h-.01s-.02-.03-.02-.03c0,0-.01,0-.02,0-.01,0-.02-.01-.03-.02-.01,0-.02-.01-.03-.02,0,0-.02-.01-.03-.02-.07-.03-.13-.07-.2-.1h-.01s-.01-.02-.02-.02h-.01s-.05-.04-.08-.05h-.01s-.05-.03-.07-.05c0,0,.01-.01.02-.02l.06-.03.09-.05.05-.02h.02s.04-.03.05-.04l.05-.03h.02s0-.01.02-.02l.05-.03.05-.02.04-.02.03-.02h.02s.02-.02.03-.03l.04-.02.04-.02h.03s.03-.03.03-.03h.03s0-.01,0-.02h0s.03-.02.05-.02c.01,0,.02-.01.04-.01l.05-.02h0s.02-.02.04-.02c0,0,.02-.01.03,0h0s.02-.01.03-.01h0s.02-.01.03-.01h0s.02-.01.02-.01h.01s.01,0,.02,0c.02-.01.05-.01.07-.02h.01s.04-.01.06-.02h0s0,0,0,0h0s.04,0,.07,0c.03,0,.05,0,.07,0h0s.06.01.09.02h0s.01.01.02.01h0c.06.03.12.06.18.08.03.01.05.03.08.04h.02s.02.03.04.04h0s.07.04.11.06c.02.01.04.03.07.04.05.03.12.07.17.1.08.05.17.11.26.16.05.03.11.07.17.11.03.03.07.04.1.07h0s.07.05.1.07c.03.02.06.04.08.06.03.03.06.05.09.07h.01c.06.06.13.1.19.15,0,0,.01,0,.02.01,0,0,.04.03.05.05l.13.11s0,.02,0,.03c0,.05,0,.1,0,.14-.03.14-.05.28-.08.41-.04.19-.09.39-.14.58-.03.09-.06.18-.09.26,0,.02-.01.03-.03.04-.01-.04-.03-.08-.06-.12-.06-.08-.12-.16-.19-.24-.04-.04-.07-.08-.11-.12-.03-.03-.07-.07-.1-.1-.07-.06-.12-.11-.19-.17l-.23-.19s-.1-.07-.15-.1h0s-.01-.01-.02-.02h0s-.01-.01-.01-.01h-.01s-.01-.02-.02-.02h0s-.03-.02-.04-.03h-.02s0-.01,0-.02h-.01s0,0,0-.01c-.1-.06-.21-.11-.32-.18h0s.03.04.03.04Z"/>
          <path class="cls-1" d="m192.58,194.94h-.01s0,.01-.02.01c-.02.01-.03.02-.06.03-.03,0-.04,0-.04.02,0,0,0,.01,0,.02,0,0,0,0,0,0h0s0,.03,0,.04h0s.04.09.07.13c0,0,0,0,0,.01h0s.04.06.06.08l.03.02h0s.02.03.03.04h0s0,0,0,0h0s.04.05.06.08c.04.05.08.09.13.14.02.02.05.05.07.08l.03.03h0s.08.08.11.12c.03.02.05.05.08.07,0,.01,0,.02-.02.02-.02,0-.03,0-.03.02h0s-.02.01-.03.02l-.05.03-.17.09-.03.02-.03.02h-.01s-.02.02-.03.02h-.02s0,.01-.02.02h-.02s0,.01-.01.02h0s0,0-.02.01h0s0,0,0,0c0,0-.01,0-.02,0,0,0-.01,0-.02,0h-.01s-.04,0-.06.01h0s-.04,0-.07,0h0s0,0-.01,0c-.03,0-.06,0-.09,0h0s-.05,0-.07-.01h0c-.11-.04-.22-.09-.33-.14-.04-.02-.07-.04-.11-.06h0s-.02-.02-.04-.03h0s-.01-.01-.01-.01h0s-.01-.01-.02-.02c-.02-.02-.04-.03-.07-.04h0s-.03-.02-.05-.04c-.01,0-.02-.01-.03-.02l-.03-.03s0-.02-.03-.03c-.03-.03-.05-.06-.07-.09-.03-.05-.06-.09-.08-.13-.01-.02-.03-.05-.04-.07,0,0,0,0,0,0-.02-.05-.04-.09-.06-.13h0c-.03-.08-.05-.15-.07-.21h0s-.01-.06-.02-.09c-.02,0-.03,0-.05,0h0s0,0-.01,0c-.03,0-.06,0-.08,0h0s0,0-.01,0c-.03,0-.06,0-.08,0h0s0,0-.01,0c-.03,0-.06,0-.08,0h0s0,0-.01,0c-.02,0-.04,0-.06,0,0,0-.01,0,0-.01.03-.01.04-.04.07-.06.03-.02.05-.05.08-.07.03-.02.05-.05.08-.07.03-.03.07-.06.11-.09.02,0,.03-.02.03-.04,0,0,.02-.01.03-.01.03-.03.07-.06.11-.09.04-.04.08-.08.12-.11.03-.03.07-.06.11-.09.04-.03.08-.07.11-.1,0,0,.05.02.08.03.03.02.07.03.1.05h0s0,0,.01.01c.03.02.07.03.1.05.03.02.07.03.1.05h0s0,0,0,0c.03.02.07.03.1.05.03.02.07.03.1.05h0s0,0,0,0c.03.02.07.03.1.05.03.02.07.03.1.05h0s0,0,0,0c.07.03.13.06.19.09h.01s0,0,0,.01h0c.07.04.14.07.2.1h0s0,0,0,0c.04.02.09.05.13.07h0s-.08,0-.13,0h0s-.03,0-.05,0h-.01s0,.01,0,.01h0s0,0,0,0h0s0,0-.01.01c0,0,0,0-.01,0l-.14-.06Z"/>
          <path class="cls-1" d="m195.32,197.12h0s-.01.01-.02.02h0s-.01.01-.02.02h-.01s-.01.01-.02.02h0s-.01.01-.02.02h-.01s-.01.01-.02.02h-.01s-.02.02-.02.02h-.02s-.01.02-.02.02h-.02s0,.02-.02.02c-.01,0-.02.01-.03.02h0s-.02.02-.03.02h-.02s-.03.03-.04.04h0s-.04.02-.05.03l-.03.02-.04.02-.04.02-.03.02-.04.02s-.01,0-.02,0h0s-.01-.01-.02-.01h0s-.09-.04-.13-.06c0,0,0,0-.01,0h-.01s0-.01-.01-.02c0,0,0,0-.01,0h-.01s-.02-.02-.04-.02c0,0,0,0-.01,0h-.01s-.02-.02-.04-.02c0,0,0,0-.01,0h0s-.02-.01-.04-.02c0,0,0,0-.01,0h-.01c-.05-.03-.1-.05-.15-.07,0,0,0,0-.01,0h-.01s-.06-.04-.09-.05c0,0,0,0-.01,0h-.01s-.06-.04-.09-.05c0,0,0,0-.01,0h-.01c-.05-.03-.1-.06-.15-.08,0,0,0,0-.01,0h-.01s-.02-.02-.03-.02h0c-.07-.04-.15-.07-.23-.11-.04-.02-.08-.04-.12-.06h0c-.1-.05-.2-.09-.3-.14-.03-.02-.07-.04-.11-.05h0s-.1-.05-.15-.08c-.06-.03-.12-.06-.18-.09h-.01s-.09-.05-.13-.07h-.01s-.04-.03-.06-.04c-.01,0-.02-.02-.04-.03.06.02.11.02.16.01.03,0,.06,0,.09,0h.02s0-.01,0-.01c.03,0,.07,0,.09-.01.01,0,.02-.01.04-.01h.01s0-.01,0-.01h.01s.01-.01.02-.01c.02,0,.05-.01.06-.02,0,0,.02-.01.03-.01h0s.02-.01.03-.01h0s.02-.02.04-.02h0s.04-.02.06-.03c.02,0,.04-.02.06-.02l.05-.03h.03s.03-.03.05-.04c.01,0,.02-.01.03-.03.01,0,.02-.02.02-.03h.01s0-.01.01-.01h0s.04-.05.06-.08h0c.04-.07.08-.13.11-.19.07-.12.13-.24.19-.36.04-.07.07-.15.1-.22.04-.09.08-.17.12-.27.02-.04.04-.08.05-.11h0c.07.06.15.12.21.17.11.1.23.19.34.29.18.16.35.31.53.48.04.04.08.07.12.11h.01s.03.03.04.04h.01c.05.06.1.11.16.16.05.05.1.11.15.16,0,0,.04.05.05.07.05.06.07.11.07.16,0,0,0,0,0,.01h0s0,.05,0,.07c0,0,0,0,0,0h0s-.01.03-.01.05c0,0,0,0,0,0-.01.02-.02.05-.03.07h0s-.03.05-.04.07c0,0,0,0,0,.01-.01,0-.01.02-.01.03h-.02s0,0,0,.01h-.01s-.01.01-.01.02h-.02s0,0,0,.01h-.02s0,0,0,.01h-.02s0,0,0,.01h-.02s0,.01,0,.01h-.01s0,0,0,0h-.02s0,0,0,.01c0,0-.01,0-.01.02h0s-.01,0-.01.02h0s0,0-.02.01h0s-.02.01-.02.02h0s0,0-.02.01h0s0,0-.02.01h-.01s0,.01-.02.02l.11.18Z"/>
          <path class="cls-1" d="m189.84,191.97l.03-.02h.02s0-.01,0-.01c0,0,0,0,.02,0h0s.04-.01.06-.02c.02,0,.04,0,.07-.02h0s0,0,0,0h0s.02,0,.04,0h0s0,0,0,0h0s.07-.01.1-.02h0s0,0,0,0h0s.04,0,.06,0c.05,0,.09-.02.14-.02.02,0,.04,0,.06-.01h0s.04,0,.05,0h0s.04,0,.06,0c.07,0,.13-.02.2-.02.1-.01.2-.03.3-.04.1-.01.2-.02.31-.03,0,0,.02,0,.03,0h0s.07,0,.1,0c.05,0,.1,0,.15,0,0,0,0,0,0,.01,0,0-.01,0-.01.01,0,0,0,0-.01.01-.02,0-.02.03-.03.04,0,0-.01,0-.01.01h0s-.02.06-.02.09c0,0,0,0,0,0h0s0,0,0,.01c0,0,0,0,0,0h0s0,.02,0,.03c0,0,0,0,0,0h0s0,0,0,.01h0s0,0,0,.01h0s0,0,0,.01h0s0,.02,0,.03c0,0,0,0,0,0,0,0,0,.01,0,.03,0,0,0,0,0,0h0s0,0,0,0c0,0,0,0,0,0,0,0,0,.01,0,.02h0s0,.02,0,.03h0s0,.02,0,.03c0,.01,0,.03,0,.04h0s0,.05,0,.07h0s0,0,0,0c0,.02,0,.04.01.07h0s0,0,0,0c0,0,0,0,0,0,0,.01,0,.03.01.04h0s0,0,0,0c0,.01,0,.03.02.04h0s0,.01,0,.01c0,0,0,0,0,.01h0s.01.01,0,.01c.03.06.06.11.09.17.06.1.12.19.17.29,0,0,.01.01.01.02,0,0,0,0,0,.01.02.02.03.05.05.08,0,0,0,0,0,.01h0s.03.04.04.06c0,0,0,0,0,.01.01.02.02.04.04.06,0,0,0,0,0,.01h0s.03.04.04.05h.01s.02.04.03.05c0,0,0,0,0,.01h0s.02.03.02.04h.01s.02.04.03.05h.01c.03.05.06.09.08.14h.01s.01.03.02.04c0,0,0,0,0,.01h0s.04.05.05.08c.02.03.04.05.05.08h0s0,0,0,0c.01,0,.02.01.02.02h0s0,0,0,0c.01,0,.02.01.02.02h.01c.03.05.06.1.09.14h0s0,0,0,0c.02.02.03.03.04.05h0s0,0,0,0c.01,0,.02.01.02.02h0s0,0,0,0h-.02s-.03-.02-.04-.02h-.01s0,0,0-.01h0s0,0,0,0h0s0,0,0,0c-.07-.02-.15-.04-.22-.05h-.01s0-.01-.02-.01h0s-.07-.02-.11-.03h-.01s-.05-.02-.08-.03h0s0,0-.01,0h0s0,0,0,0c-.02,0-.04-.01-.06-.02-.03,0-.05-.02-.08-.02-.02,0-.04,0-.05-.01h0s-.04-.01-.05-.02h0s0,0,0,0c-.01,0-.03,0-.04-.01h0s-.03-.01-.04-.02h0s-.03-.01-.04-.02c0,0-.04-.01-.06-.02h0s-.03-.01-.04-.02h0s-.02-.01-.03-.01h0s-.02-.01-.03-.01h0s-.02-.01-.03-.02h0s-.01-.01-.02-.01c-.05-.02-.09-.03-.14-.04,0,0,0,0-.01,0h0s-.02-.01-.04-.02c0,0,0,0-.01,0h0s0,0-.01-.01h-.01s-.04-.02-.05-.03c0,0,0,0-.01,0h0c-.07-.04-.13-.06-.2-.1-.05-.02-.09-.06-.13-.09-.03-.03-.07-.07-.09-.1h-.01s-.03-.06-.05-.08c0,0-.01-.01-.02-.02,0,0,0-.01,0-.02-.04-.05-.07-.1-.1-.15-.02-.03-.03-.06-.05-.09h0s-.03-.06-.04-.09h0s-.01-.03-.02-.05h0s0,0,0-.01h0s-.03-.08-.05-.11h0s0,0,0-.01h0s-.01-.04-.02-.06h0s0,0,0,0c0-.02-.02-.04-.02-.06h0s0-.01,0-.02h0s0-.01,0-.02h0s0-.01,0-.02h0s-.01-.04-.02-.06h0s-.01-.04-.02-.06h0s0-.02,0-.03h0s0,0,0,0c0-.01,0-.02,0-.03,0,0,0-.02,0-.02h0s0,0,0,0c0-.02,0-.03-.01-.05,0-.02,0-.03-.01-.05,0-.02-.01-.03-.01-.05h0s0,0,0-.01v-.05s-.01-.04-.01-.06l-.31.05Z"/>
          <path class="cls-1" d="m193.9,192.16s.02.04.03.06h0s.02.05.03.07h0s.03.08.05.11h0s.02.04.03.07h0s.02.04.03.07h0s.02.05.03.07h0s.02.04.03.07h0s.03.08.05.12h0s0,0,0,0c0,.02.02.04.03.06h0s.02.04.03.07h0s.02.05.03.07h0s.02.04.03.07h0s.02.04.03.07h0s.02.04,0,.04h0c-.09,0-.17.02-.26.03h0c-.09,0-.17.02-.26.03h0c-.09,0-.17.02-.26.03h0c-.09,0-.17.02-.26.03h0s-.08.01-.12.02c0,0-.01,0-.02,0h.01s.03-.05.04-.07c.01-.04.02-.08.03-.11,0,0,0-.02,0-.03h0s0-.01,0-.02h0s0-.04,0-.06c0-.04-.04-.07-.08-.1-.03-.02-.06-.04-.09-.06h-.02s0-.01,0-.02c-.03-.02-.06-.04-.09-.05-.06-.03-.11-.05-.18-.08,0,0,0,0-.01,0h-.01s-.07-.03-.1-.05c0,0,0,0-.01,0h-.01s-.05-.03-.07-.03c0,0,0,0-.01,0h0s-.07-.03-.1-.04h0s0,0-.01-.01h0s-.02-.01-.04-.02c0,0,0,0-.01,0h0s-.01-.01-.02-.01h0s-.01-.01-.02-.01h0s-.01-.01-.02-.01h0s-.01-.01-.02-.01h0s0,0,0,0c0,0,0,0-.01,0,0,0-.02,0-.03-.01h0s-.02-.02-.03-.03c0-.01,0-.02,0-.03h0s0,0,0,0c0-.01,0-.03,0-.04h0s-.01-.01-.01-.01c0-.03-.01-.06-.02-.09h0s0-.04,0-.06c0-.02,0-.05-.01-.07h0s0-.02,0-.03c0-.01,0-.02,0-.04h0s0-.04,0-.06h0s0-.03,0-.04h0s0,0,0-.01c0-.03.02-.06.03-.09h0s.01-.02.02-.03h0s.04-.04.06-.06l.05-.02s.03-.02.05-.02c.02-.01.05-.01.08-.02.04,0,.07-.01.11-.01.07,0,.14,0,.22,0h0s0,0,.01,0c0,0,.02,0,.03,0,.04,0,.09,0,.14.02h0s.02.01.04.02h.01s.06.03.08.05c.07.04.14.08.2.11.05.03.11.07.16.1.05.03.1.06.15.1.08.06.16.12.25.18.01,0,.02,0,.01,0,.01,0,.02-.02.02-.02h0s.03-.04.05-.06h0s0,0,.01-.01h0s.03-.04.05-.06h0s0,0,.01,0h0s.02-.03.03-.04h0s0,0,0,0c0,.01,0,.02.01.03h0s.02.04.03.07h0s.02.05.03.07h0s-.2-.02-.2-.02Z"/>
          <path class="cls-1" d="m197.32,196.3h-.01s-.03.01-.05.01h0s-.03,0-.04,0h0s-.03,0-.04,0c0,0,0,0-.01,0,0,0,0,0-.01,0,0,0,0,0-.01,0,0,0,0,0-.01,0,0,0,0,0-.01,0-.01,0-.04,0-.05,0h0s0,0-.01,0c0,0,0,0-.01,0h0s0,0-.01,0c-.01,0-.03,0-.04,0h0s0,0-.01,0h0s0,0-.01,0h0s0,0-.01,0h0s0,0-.02,0c-.01,0-.02,0-.04,0h0s0,0-.01,0c-.01,0-.02,0-.04,0h0s-.01,0-.02,0h0s-.04,0-.07,0h0s-.02,0-.03,0h0s-.03,0-.04,0c-.01,0-.03,0-.04,0h0s-.04,0-.06-.01c.01.02.02.04.03.06h0s.01.01,0,.02c.01.02.02.05.04.07h0s.01.01,0,.02c.01.02.02.05.04.07h0s.01.01,0,.02c.01.02.02.05.04.07h0s.01.01,0,.02c0,.01,0,.02.02.04-.04-.03-.08-.05-.11-.07-.07-.05-.14-.09-.21-.14-.05-.04-.1-.07-.15-.11-.05-.04-.1-.07-.16-.1-.05-.04-.1-.07-.15-.11-.05-.04-.1-.07-.16-.1-.03-.03-.07-.05-.1-.07-.05-.04-.1-.07-.15-.11-.04-.02-.08-.05-.11-.08-.07-.04-.13-.09-.2-.14-.04-.03-.09-.06-.13-.09h0s.02-.05.02-.08h0s.02-.04.02-.06c0-.02,0-.03.01-.05h0s0,0,0,0h0s.02-.07.03-.09c.03-.08.06-.15.08-.23.02-.04.03-.09.05-.13.02-.04.03-.09.05-.13,0-.02.02-.04.02-.06h0s.01.02.02.03h.01s0,.01.01.02h0s0,0,0,0h0s.01.01.01.01h.01s0,0,0,.01c.02.02.03.03.05.05h0s.02.02.02.02c0,0,0,.01,0,.02.03.02.05.05.06.07,0,0,.01,0,.02.02.03.02.06.05.08.07.05.04.1.06.16.07h0s.09,0,.13,0c.06,0,.11,0,.15-.01.09-.01.19-.03.27-.05.05-.01.09-.02.14-.04.03,0,.06-.02.08-.03.03-.01.07-.02.1-.03l.02.02s.06.04.09.07c.16.12.31.24.45.37.04.03.06.06.1.09.03.02.05.05.07.07.19.2.25.39.2.55-.02.06-.05.12-.09.18,0,.02-.03.04-.03.06l-.05.03-.18-.03Z"/>
        </g>
        <path class="cls-5" d="m206.94,238.78s18.79,1.27,26.35-10.65"/>
        <path class="cls-5" d="m234.51,226.37s13.6-.71,13.28-14.06"/>
      </g>
      <g id="astronaut-2" data-name="astronaut">
        <path class="cls-4" d="m226.23,221.39s1.69,27.37,7.78,30.09c5.93,2.65,17.09-.64,18.25-1.81s.95-15.25,2.73-14.8c1.76.45,1.36,13.67,3.07,14.14s13.29-1.14,14.71-3.34,8.45-28.85,6.13-29.17c-2.16-.3-52.67,4.89-52.67,4.89Z"/>
        <g>
          <path class="cls-4" d="m276.26,191.79s.1-7.08-1.73-6.72c-.92.18-1.12.18-1.07.13.04-.05.31-.14.31-.14-2.18.56-3.58.87-3.58.87l.38,6.81,5.69-.93Z"/>
          <path class="cls-4" d="m230.23,198.34l-1,.02s-1.15-1.04-.91-10.28c0,0,1.05-1.72,9.59-.85l-.06,10.76-7.63.36h0Z"/>
          <path class="cls-4" d="m275.95,170.99c1.95,13.89-6.97,24.32-22.75,25.58-16.36,1.3-27.3-11.7-26.22-28.64.82-12.98,10.54-21.01,26.03-18.95,14.17,1.88,21.32,10.42,22.94,22.01Z"/>
          <path class="cls-3" d="m274,172.74c1.73,10.9-6.43,18.98-20.7,19.82-14.67.86-24.44-9.24-23.54-22.35.7-10.09,9.39-16.38,23.38-14.79,12.89,1.46,19.41,8.19,20.86,17.31Z"/>
          <path class="cls-4" d="m228.98,182.17s-4.1,1.8-6.19-.16c-2.39-5.74-4.46-8.22.27-16.87,0,0,1.52-.2,3.52.24-.4,3.05.35,14.77,1.51,15.68l.9,1.11h0Z"/>
          <path class="cls-4" d="m275.17,182.18s3.22,1.52,4.66-.18c1.41-4.87,2.74-6.93-1.15-14.49,0,0-1.15-.28-2.63,0,.48,2.69.6,12.9-.24,13.7l-.63.99h0Z"/>
          <path class="cls-11" d="m237.54,157.58c-1.33-2.76-3.8-4.11-3.8-4.11l3.8,4.11Z"/>
          <path class="cls-8" d="m237.54,157.58c-1.33-2.76-3.8-4.11-3.8-4.11"/>
          <path class="cls-11" d="m265.71,159.75c.8-2.45,3.13-3.8,3.13-3.8l-3.13,3.8Z"/>
          <path class="cls-8" d="m265.71,159.75c.8-2.45,3.13-3.8,3.13-3.8"/>
          <path class="cls-2" d="m250.81,148.17c.72-4.13-3.27-10.34-3.27-10.34-3.09-3.68-5.81-3.07-6.88-2.34-1.08.74-2.24,1.93-2.24,1.93,2.83,2.02,6.55,2.48,7.41,2.09.85-.39,1.5-1.05,1.5-1.05"/>
          <path class="cls-2" d="m253.53,133.13c-1.98-.66-4.42-.15-5.38.92-.96,1.07-1.06,1.55-1.06,1.55,0,0,.56,1.47,1.42,1.55.86.08,3.7-.99,4.59-1.74.88-.75,1.9-1.55,1.9-1.55l-1.47-.72h0Z"/>
          <path class="cls-11" d="m215.49,164l-.22-.35-.43.06.38-.18-.09-.39.22.36.43-.06-.37.18.09.39Z"/>
          <path class="cls-11" d="m276.05,203.51c3.14,5.55,3.93,11.82,3.93,11.82l9.31-6.14-3.95-7.15s-7.94-9.84-15.12-12.17c-8.52,8.32-19.97,6.88-19.97,6.88-7.31-.06-12.4-4.04-12.4-4.04-5.41.58-18.92,10.73-20.82,15.55-3.44,8.73,9.2,13.13,9.2,13.13,10.18,5.53,33.11,3.08,33.11,3.08,13.41-2.11,19.56-7.97,19.56-7.97,0,0-.72-10.51-4.38-15.88"/>
          <path class="cls-18" d="m228.17,213.87c27.19,14.28,49.06-.52,49.15-.89l.57,3.89c-9.05,7.22-25.11,8.81-24.97,8.02-16.07.79-26.68-4.82-26.68-4.82l1.92-6.19Z"/>
          <path class="cls-16" d="m276.05,203.51c2.73,3.37,3.28,12.2,3.28,12.2l9.62-7.14-7.61-11.45s-4.19-5.63-11.12-7.26c-8.52,8.32-19.97,6.88-19.97,6.88-7.31-.06-12.4-4.04-12.4-4.04-9.98-1.07-21.63,18.08-23.56,22.8-.5,1.22,7.54,3.49,10.89,3.8,1.49.14,6.39-14.58,5.75-12.49-2.25,7.37-4.69,14.57-4.69,14.57,10.18,5.53,33.11,3.08,33.11,3.08,13.41-2.11,19.56-7.97,19.56-7.97,0,0,.79-7.65-2.85-12.99"/>
          <path class="cls-4" d="m282.92,208.91c3.25-1.55,7.53-.87,8.55,1.99s-1.36,7.39-4.56,9.04c-3.27,1.69-7.02.19-8.1-2.76-1.08-2.96.79-6.68,4.11-8.26Z"/>
          <path class="cls-4" d="m219.03,213.41c4.95-.26,10.13,2.47,10.09,6.19s-5.35,7.88-10.35,8.33-9.28-3.05-9.19-6.97,4.38-7.28,9.45-7.55Z"/>
          <path class="cls-9" d="m240.12,202.85c-2.58,5.31-1.42,13.39-1.42,13.39l29.73-1.85c1.45-6.12-.94-12.57-.94-12.57l-27.37,1.03h0Z"/>
          <path class="cls-3" d="m241.99,206.54c-2.22,3.59-1.2,8.96-1.2,8.96l25.87-1.57c1.3-4.14-.78-8.48-.78-8.48l-23.89,1.08Z"/>
          <path class="cls-17" d="m269.3,169.11c-3.3-6.02-9.05-8.59-14.48-7.98-5.6.63,2.67,4.36,3.72,4.72,1.04.36,5.58,4.42,6.43,5.31.85.89,3.61,3.13,4.74,3.75,1.12.62,2.46-.34,1.62-2.3l-2.03-3.5Z"/>
          <path class="cls-17" d="m251.5,162.44c0,.94-1.5,1.59-2.45,1.52s-2.24-.39-2.24-1.35,1.28-2.18,2.23-2.09,2.45.97,2.46,1.92h0Z"/>
          <path class="cls-14" d="m252.34,165.39c.33.02.59-.22.59-.55s-.27-.61-.59-.64-.59.22-.59.55.27.61.59.64Z"/>
          <path class="cls-15" d="m256.16,211.46c-.02-.06-.04-.11-.06-.17h0s-.03-.08-.04-.11c0-.02-.01-.03-.02-.04,0-.01-.01-.03-.02-.04h0s-.01-.04-.02-.06c0,0-.02-.05-.03-.07h0s-.03-.08-.04-.11h0c-.03-.07-.05-.14-.08-.2h0s0-.03,0-.03c0,0-.01,0-.01-.01,0-.01,0-.02-.01-.03,0-.01,0-.02-.01-.03,0,0,0-.02-.01-.03-.02-.05-.04-.1-.06-.16h0s0-.02,0-.03h0s-.02-.05-.03-.07h0s-.02-.05-.02-.07c.01,0,.03,0,.04,0h.08s.08,0,.12,0h.06s.02,0,.03,0h.07s.05,0,.07,0h.03s.01,0,.02,0h.07s.04,0,.06,0h.05s.03,0,.04,0h.03s.03,0,.04,0h.06s.04,0,.06,0h.04s.04,0,.04,0h.04s0,0,0,0h0s.04,0,.06,0c.02,0,.03,0,.05,0h.06s.01,0,.01,0c.02,0,.03,0,.04,0,.01,0,.03,0,.04,0h.01s.02,0,.03,0h.01s.02,0,.03,0h0s.03,0,.03,0h.01s.02,0,.03,0c.03,0,.05,0,.07.01h.02s.04,0,.06.01h.01s0,0,0,0h.01s.04.01.06.02c.02,0,.04.01.06.02h0s.04.03.05.05h0s0,.02.01.02h0s.05.09.07.13c.01.02.02.04.03.06v.02s0,.02,0,.03h0s.02.06.03.09c0,.02.01.04.02.06.01.05.03.1.04.15.02.07.03.15.04.22.01.05.02.09.03.15,0,.03.01.06.02.09h0s.01.06.01.09c0,.03,0,.05,0,.07,0,.03,0,.06,0,.09h0c0,.07.01.13.01.19,0,0,0,.01,0,.02,0,0,0,.04,0,.06v.13s-.01.02-.02.03c-.05.03-.09.07-.14.11-.15.1-.31.2-.46.29-.22.13-.45.27-.67.4-.11.06-.22.12-.32.17-.02.01-.04.02-.06.02.03-.03.05-.07.07-.11.03-.08.06-.17.07-.25,0-.04.01-.09.02-.13,0-.04,0-.07.01-.11,0-.07.01-.13.02-.2v-.23s-.02-.09-.03-.13h0s0-.02,0-.02h0s0-.02,0-.02h0s0-.02,0-.03h0s0-.03-.01-.04v-.02s0,0,0,0h0s0-.01,0-.02c-.03-.08-.06-.17-.08-.25h0s-.02.04-.02.04Z"/>
          <path class="cls-15" d="m252.81,210.61h-.02s-.01,0-.02,0c-.03,0-.05,0-.07,0-.02,0-.04,0-.06,0-.01,0-.02.01-.03.01,0,0,0,0-.01,0h0s-.02.02-.03.03h0s-.05.09-.07.13c0,0,0,0,0,.01h0s-.02.06-.03.09v.03s0,0,0,0c0,.01,0,.03-.01.04h0s0,0,0,.01h0s-.01.06-.02.09c-.01.05-.02.1-.03.16,0,.03-.01.06-.02.09v.03s0,0,0,0c0,.04-.01.09-.02.13,0,.03,0,.06-.01.09-.01.01-.02.01-.04.01-.02,0-.03,0-.04,0h0s-.03,0-.04,0h-.07c-.08,0-.15.01-.23.02h-.04s-.03,0-.04,0h-.02s-.03,0-.04,0h-.03s-.01,0-.02,0h-.03s-.01,0-.02,0h-.01s-.01,0-.02,0h-.01s0,0,0,0c-.01,0-.02,0-.03,0-.01,0-.02,0-.03,0h-.02s-.04-.01-.06-.02h-.01s-.04-.01-.06-.02h0s0,0-.01,0c-.02-.01-.04-.03-.06-.04h0s-.03-.03-.04-.04h0c-.06-.07-.1-.15-.14-.23-.02-.03-.02-.06-.03-.09h0s0-.03-.01-.04h0s0-.02,0-.02h0s0-.02,0-.03c0-.02-.01-.04-.02-.06h0s0-.03-.01-.05c0-.01,0-.02-.01-.03v-.03s.02-.02.01-.04c0-.03.02-.07.03-.1.02-.05.04-.09.06-.14.01-.02.03-.05.04-.07,0,0,0,0,0,0,.03-.04.05-.09.08-.13h0c.05-.07.09-.14.14-.2h0s.04-.06.06-.08c-.02,0-.03-.01-.04-.02h0s0,0-.01,0c-.02,0-.04-.02-.06-.03h0s0,0-.01,0c-.02,0-.04-.02-.06-.03h0s0,0-.01,0c-.02,0-.04-.02-.06-.03h0s0,0-.01,0c-.02,0-.03-.01-.04-.02,0,0,0-.01,0-.01.04,0,.07-.01.11-.02.05,0,.09-.02.14-.03.05,0,.09-.02.13-.03.06-.01.12-.02.18-.03.02,0,.04,0,.06-.02.01,0,.03,0,.04,0,.06-.01.12-.02.18-.03.07-.01.14-.03.21-.05.06-.01.12-.02.18-.03.06-.01.13-.03.19-.04,0,0,.02.04.03.06.01.03.02.05.03.08h0s0,.01,0,.02c.01.03.03.05.04.08.01.03.02.05.03.08h0s0,0,0,.01c.01.03.03.05.04.08.01.03.02.05.03.08h0s0,0,0,.01c.01.03.03.05.04.08.01.03.02.05.03.08h0s0,0,0,.01c.02.05.05.1.07.15h0s0,.01,0,.02h0c.02.06.05.11.07.16h0s0,0,0,.01c.02.03.03.07.04.1h-.01s-.07-.03-.1-.05h-.01s-.03,0-.04-.01h-.02s-.01,0-.01,0h-.01s-.01,0-.01,0h-.01s-.01,0-.02,0c0,0-.01,0-.01,0l-.05-.1Z"/>
          <path class="cls-15" d="m252.94,213.3h-.01s-.02,0-.03,0h-.01s-.02,0-.03,0h-.02s-.02,0-.03,0h-.01s-.02,0-.03,0h-.02s-.02,0-.03,0h-.02s-.02,0-.03,0h-.02s-.02,0-.03,0h-.03s-.01,0-.02,0c-.02,0-.03,0-.04,0h0s-.03,0-.04,0h-.03s-.04,0-.06.01h-.01s-.05,0-.07,0h-.04s-.03,0-.05,0h-.06s-.03,0-.04,0h-.05s-.01,0-.02,0h0s0-.02-.01-.02h0s-.04-.06-.06-.09c0,0,0,0,0-.01h0s0-.02,0-.02c0,0,0,0,0-.01h0s-.01-.03-.02-.04c0,0,0,0,0-.01h0s-.01-.03-.02-.04c0,0,0,0,0-.01h0s-.01-.02-.02-.03c0,0,0,0,0-.01h0s-.04-.08-.06-.11c0,0,0,0,0-.01h0s-.02-.05-.03-.07c0,0,0,0,0-.01h0s-.02-.05-.03-.07c0,0,0,0,0-.01h0s-.04-.08-.06-.12c0,0,0,0,0-.01h0s0-.03-.01-.03h0c-.03-.06-.06-.11-.08-.17-.02-.03-.03-.06-.04-.09h0c-.04-.08-.07-.15-.11-.22-.01-.03-.02-.05-.04-.08h0s-.04-.08-.05-.12c-.02-.04-.04-.09-.06-.13h0s-.03-.08-.05-.11h0s-.01-.04-.02-.06c0-.01,0-.02,0-.04.03.04.07.06.11.07.03,0,.05.02.07.03h.02s0,0,.01,0c.03,0,.06.02.09.02.02,0,.03,0,.04,0h.02s.01,0,.01,0h.02s.02,0,.03,0c.02,0,.05,0,.07,0,.01,0,.03,0,.04,0h.01s.02,0,.03,0h.01s.03,0,.04,0h.01s.05,0,.07,0c.02,0,.05,0,.07,0h.07s.03,0,.04,0h.06s.03,0,.05-.01c.02,0,.03,0,.05-.01h.02s.01,0,.02,0h.01s.08-.03.12-.04h.01c.09-.04.18-.07.27-.11.17-.07.33-.14.5-.22.1-.04.2-.09.3-.14.12-.05.23-.11.35-.17.05-.02.1-.05.15-.07h.01c0,.07,0,.15,0,.22,0,.12,0,.23,0,.35,0,.19-.02.37-.03.57,0,.04,0,.09,0,.13h0s0,.04,0,.05h0c0,.07-.01.13-.02.19,0,.06-.02.12-.03.18,0,0-.02.05-.02.07-.02.06-.05.11-.09.15,0,0,0,0-.01.01h0s-.05.04-.07.05c0,0,0,0-.01,0h0s-.04.02-.05.03c0,0,0,0-.01,0-.03.01-.06.03-.09.04h-.01s-.06.03-.09.04c0,0-.01,0-.02,0-.02,0-.03.01-.04.02h-.02s0,0,0,0h-.02s-.02,0-.03,0h-.02s0,0,0,0h-.02s0,0,0,0h-.02s0,0,0,0h-.02s0,0-.01,0h-.02s0,0,0,0h-.02s0,0,0,0c-.01,0-.02,0-.03,0h0s-.02,0-.03,0h0s-.01,0-.02,0h0s-.02,0-.03,0h0s-.01,0-.02,0h-.01s-.01,0-.02,0h-.02s-.01,0-.02,0l-.08.18Z"/>
          <path class="cls-15" d="m253.46,207.15h.04s.01,0,.02,0h.01s.01,0,.02,0h.01s.04,0,.06.01c.03,0,.05,0,.07.01h.01s0,0,0,0h.01s.03,0,.04,0h.01s0,0,0,0h.01s.07.02.1.02h.01s0,0,0,0h.01s.04.01.05.02c.05.01.09.02.13.04.02,0,.04,0,.06.01h.01s.03.01.05.01h.01s.04.01.06.02c.06.02.13.04.19.06.1.03.19.06.28.08.09.03.19.06.28.09.01,0,.02,0,.03,0h0s.06.02.09.03c.04.01.08.03.12.05,0,0-.01,0-.02,0-.01,0-.02,0-.03,0,0,0-.01,0-.02,0-.02,0-.04.02-.06.02,0,0-.02,0-.02,0h-.01s-.07.04-.11.06c0,0,0,0-.01,0h0s-.01,0-.01,0c0,0,0,0-.01,0h0s-.02.02-.03.03c0,0,0,0-.01,0h0s0,0-.01.01h0s0,0-.01,0h0s0,0-.01,0h0s-.02.02-.03.02c0,0,0,0,0,0-.01,0-.02.01-.03.02,0,0,0,0-.01,0h0s0,0,0,0c0,0,0,0-.01,0,0,0-.02.01-.02.02h0s-.02.02-.02.02h0s-.02.02-.02.02c-.01.01-.03.02-.04.03h0s-.04.04-.06.06h0s0,0,0,0c-.02.02-.04.04-.06.06h0s0,0,0,.01c0,0,0,0,0,0-.01.01-.02.03-.03.04h0s0,0,0,.01c-.01.01-.02.03-.03.04h0s0,.02,0,.02c0,0,0,0,0,.01h0s0,.02,0,.02c-.03.06-.06.11-.09.17-.05.1-.09.2-.14.3,0,0,0,.02-.01.02,0,0,0,0,0,.01-.01.03-.03.05-.04.09,0,0,0,0,0,.01h0s-.02.05-.03.07c0,0,0,0,0,.01-.01.02-.02.04-.03.06,0,0,0,0,0,.01h0s-.01.04-.02.06h0s-.02.04-.02.06c0,0,0,0,0,.01h0s-.01.03-.02.04h0s-.01.04-.02.06h0c-.02.05-.04.1-.06.15h0s-.01.03-.02.04c0,0,0,0,0,.01h0s-.02.06-.03.08c0,.03-.02.05-.03.08h0s0,0,0,.01c0,.01,0,.02,0,.03h0s0,0,0,.01c0,.01,0,.02,0,.03h0c-.02.06-.04.1-.06.15h0s0,0,0,.01c0,.02,0,.04-.02.06h0s0,0,0,.01c0,.01,0,.02,0,.03h0s0,0,0,0h-.01s-.02-.03-.03-.04h0s0-.01,0-.02h0s0,0,0-.01h0s0,0,0-.01c-.04-.04-.09-.09-.13-.13h0s0-.02-.01-.02h0s-.04-.05-.07-.07h0s-.03-.04-.04-.06h0s0-.01,0-.02h0s0,0,0-.01c-.01-.02-.03-.03-.04-.04-.02-.02-.03-.03-.04-.05-.01-.01-.02-.02-.03-.03h0s-.02-.03-.03-.04h0s0,0,0-.01c0-.01-.02-.02-.02-.03h0s-.02-.02-.02-.03h0s-.02-.02-.02-.03c0,0-.02-.03-.03-.04h0s-.02-.02-.02-.03h0s-.01-.02-.02-.03h0s-.01-.02-.02-.03h0s-.01-.02-.02-.03h0s0-.02-.01-.02c-.02-.03-.05-.06-.07-.09,0,0,0,0,0-.01h0s-.01-.02-.02-.03c0,0,0,0,0-.01h0s0-.01,0-.02h0s-.02-.04-.03-.05c0,0,0,0,0-.01h0c-.03-.06-.05-.1-.08-.16-.02-.04-.02-.08-.02-.12,0-.04,0-.08.02-.12v-.02s.02-.05.03-.07c0-.01,0-.02.01-.03,0,0,0-.01.01-.02.02-.06.05-.11.07-.16.02-.03.03-.06.05-.09h0s.03-.06.05-.09h0s.02-.03.03-.05h0s0-.01,0-.02h0s.05-.08.07-.11h0s0-.01,0-.02h0s.03-.04.04-.06h0s0,0,0-.01c.02-.02.03-.04.04-.06h0s0-.02.01-.02h0s0-.02.01-.02h0s0-.02.01-.02h0s.03-.04.04-.05h0s.03-.04.04-.05h0s.01-.02.02-.03h0s0,0,0-.01c0-.01.02-.02.02-.03,0,0,.01-.02.02-.02h0s0,0,0-.01c.01-.02.02-.03.04-.04.01-.02.02-.03.04-.04.02-.02.03-.03.04-.05h0s0-.01,0-.02l.04-.04s.04-.04.06-.06l-.3-.08Z"/>
          <path class="cls-15" d="m256.59,208.85s-.02.04-.04.06h0s-.02.05-.04.07h0s-.04.08-.07.11h0s-.02.04-.04.07h0s-.02.04-.04.07h0s-.02.05-.04.07h0s-.03.04-.04.07h0s-.04.08-.07.11h0s0,0,0,.01c-.02.02-.03.04-.04.06h0s-.02.04-.04.07h0s-.03.05-.04.07h0s-.03.04-.04.07h0s-.03.04-.04.07h0s-.02.04-.04.03h-.01c-.08-.03-.16-.05-.23-.08h-.01c-.08-.03-.16-.05-.23-.08h-.01c-.08-.03-.16-.05-.23-.08h-.01c-.08-.03-.16-.05-.23-.08h-.01s-.07-.02-.11-.03c0,0-.02,0-.01-.02h.02s.07-.02.1-.04c.05-.02.09-.06.14-.08.01,0,.02-.02.03-.02h0s.01,0,.02-.01h0s.04-.03.05-.04c.03-.03.04-.08.03-.11,0-.03-.01-.06-.02-.08v-.02s0,0,0,0c-.01-.03-.02-.05-.03-.07-.02-.04-.04-.08-.07-.13,0,0,0,0,0-.01h0s-.03-.06-.04-.08c0,0,0,0,0-.01h0s-.02-.04-.03-.06c0,0,0,0,0-.01h0s-.03-.05-.05-.07h0s0-.01,0-.02h0s-.01-.02-.02-.03c0,0,0,0,0-.01h0s0-.02-.01-.02h0s0-.02-.01-.02h0s0-.02-.01-.02h0s0-.02-.01-.02h0s0,0,0-.01c0,0,0,0,0-.01,0,0-.01-.02-.02-.02h0s0-.03,0-.04c0-.01.02-.02.02-.03h0s0,0,0-.01c.01-.01.02-.03.04-.04h0s0-.02,0-.02c.03-.03.05-.05.08-.08h0s.03-.04.05-.05c.02-.02.04-.04.06-.07h.01s.02-.02.03-.03c.01-.01.02-.02.04-.03h0s.04-.03.06-.05h0s.03-.02.05-.03h0s.01,0,.02,0c.04-.03.08-.05.12-.06h.01s.03,0,.04-.01h.01s.07-.01.11-.02h.06s.04,0,.06,0c.03,0,.06,0,.08.02.04,0,.07.02.11.03.06.02.12.05.18.08h0s0,0,.01,0c0,0,.02,0,.03.01.04.01.07.04.09.07h0s.01.02.02.03h0s.02.05.03.07c.02.06.04.11.05.17.01.05.02.09.03.14.01.05.02.09.03.14.01.08.02.16.03.24,0,.01.01.01.01,0,.02,0,.03,0,.04-.01h.01s.06-.02.09-.03h.01s.01,0,.02,0h.01s.06-.02.09-.03h.01s0,0,.01,0h.01s.04-.01.06-.02h0s0,0,0,0c0,.01,0,.02-.01.03h0s-.02.04-.04.06h0s-.02.05-.04.07h0s-.14-.09-.14-.09Z"/>
          <path class="cls-15" d="m255.31,213.37h-.02s-.03,0-.05-.01h-.01s-.03,0-.04-.01h-.01s-.02,0-.03-.01c0,0,0,0-.01,0,0,0,0,0-.01,0,0,0,0,0-.01,0,0,0,0,0-.01,0,0,0,0,0-.01,0-.01,0-.03-.01-.04-.02h0s0,0-.01,0c0,0-.01,0-.01,0h0s0,0-.01,0c-.01,0-.02,0-.03-.02h0s0,0-.01,0h0s0,0-.01,0h0s0,0-.01,0h0s0,0-.01,0c-.01,0-.02,0-.03-.02h0s0,0-.01,0c-.01,0-.02,0-.03-.02h0s-.01,0-.02,0h0s-.03-.02-.05-.03h0s-.02,0-.02-.01h0s-.02-.01-.03-.02c-.01,0-.02-.02-.03-.02h0s-.02-.02-.03-.03c-.01.02-.02.04-.03.06h0s0,.02,0,.02c0,.02-.03.04-.04.07h0s0,.02,0,.02c-.01.02-.03.04-.04.07h0s0,.02,0,.02c-.01.02-.03.04-.04.07h0s0,.02,0,.02c0,.01-.02.02-.03.04,0-.04-.01-.07-.02-.1-.01-.06-.02-.12-.03-.18,0-.05-.01-.09-.02-.14,0-.05-.02-.09-.03-.14,0-.05-.01-.09-.02-.14,0-.05-.02-.09-.03-.14,0-.03-.01-.06-.01-.1,0-.05-.02-.09-.02-.14,0-.03-.01-.07-.02-.1-.01-.06-.02-.12-.03-.18,0-.04-.01-.08-.02-.12h0s.06-.04.09-.05h.01s.05-.02.07-.04c.02-.01.04-.02.06-.04h.01s0,0,.01,0h.01s.08-.04.11-.06c.1-.05.19-.1.28-.15.06-.03.11-.06.17-.09.06-.03.11-.06.17-.09.03-.01.05-.02.07-.04h.01s-.01.02-.01.03h0s0,.02,0,.02h0s0,0,0,.01h0s0,.02,0,.02h0s0,.01,0,.02c0,.02,0,.04-.01.06h0s0,.02,0,.03c0,0-.02,0-.01.02,0,.03,0,.05-.01.08,0,0,0,.01,0,.02,0,.03,0,.06,0,.09,0,.05.02.08.06.11h0s.06.04.09.05c.05.02.09.04.13.05.09.02.18.04.26.05.05,0,.1.02.15.02.03,0,.07,0,.1,0,.04,0,.08,0,.11,0v.02s0,.05,0,.08c.01.15.01.3,0,.45,0,.04,0,.07-.01.11,0,.03,0,.05,0,.07-.04.23-.17.39-.37.49-.08.04-.16.07-.24.1-.03.01-.06.02-.08.03h-.07s-.11-.08-.11-.08Z"/>
        </g>
        <path class="cls-8" d="m228.58,242.63s11.69,4.71,25.13.58"/>
        <path class="cls-8" d="m255.82,242.6s8.95,2.65,19.84-4.21"/>
      </g>
      <g>
        <rect x="259.92" y="304.39" width="3.02" height="2.44"/>
        <rect x="256.91" y="301.95" width="3.01" height="2.44"/>
        <rect x="268.97" y="314.13" width="3.01" height="2.44"/>
        <rect x="268.97" y="311.7" width="3.01" height="2.43"/>
        <rect x="265.95" y="311.7" width="3.02" height="2.43"/>
        <rect x="265.95" y="309.26" width="3.02" height="2.44"/>
        <rect x="262.94" y="309.26" width="3.01" height="2.44"/>
        <rect x="262.94" y="306.83" width="3.01" height="2.43"/>
        <rect x="262.94" y="304.39" width="3.01" height="2.44"/>
        <rect x="250.88" y="301.95" width="3.01" height="2.44"/>
        <rect x="250.88" y="299.52" width="3.01" height="2.43"/>
        <rect x="250.88" y="297.08" width="3.01" height="2.44"/>
        <rect x="247.86" y="297.08" width="3.02" height="2.44"/>
        <rect x="247.86" y="294.65" width="3.02" height="2.43"/>
        <rect x="247.86" y="292.21" width="3.02" height="2.44"/>
        <rect x="247.86" y="289.78" width="3.02" height="2.43"/>
        <rect x="244.85" y="289.78" width="3.01" height="2.43"/>
        <rect x="244.85" y="287.34" width="3.01" height="2.44"/>
        <rect x="253.89" y="301.95" width="3.02" height="2.44"/>
        <rect x="332.29" y="301.95" width="3.01" height="2.44"/>
        <rect x="332.29" y="299.52" width="3.01" height="2.43"/>
        <rect x="332.29" y="297.08" width="3.01" height="2.44"/>
        <rect x="329.27" y="294.65" width="3.02" height="2.43"/>
        <rect x="338.32" y="304.39" width="3.02" height="2.44"/>
        <rect x="335.3" y="304.39" width="3.02" height="2.44"/>
        <rect x="335.3" y="301.95" width="3.02" height="2.44"/>
        <rect x="347.37" y="306.83" width="3.01" height="2.43"/>
        <rect x="344.35" y="306.83" width="3.02" height="2.43"/>
        <rect x="341.34" y="306.83" width="3.01" height="2.43"/>
        <rect x="341.34" y="304.39" width="3.01" height="2.44"/>
        <rect x="356.41" y="311.7" width="3.02" height="2.43"/>
        <rect x="356.41" y="309.26" width="3.02" height="2.44"/>
        <rect x="353.4" y="309.26" width="3.01" height="2.44"/>
        <rect x="350.38" y="309.26" width="3.02" height="2.44"/>
        <rect x="350.38" y="306.83" width="3.02" height="2.43"/>
        <rect x="362.44" y="314.13" width="3.02" height="2.44"/>
        <rect x="359.43" y="314.13" width="3.01" height="2.44"/>
        <rect x="359.43" y="311.7" width="3.01" height="2.43"/>
        <rect x="365.46" y="316.57" width="3.01" height="2.43"/>
        <rect x="386.56" y="238.64" width="3.02" height="2.44"/>
        <rect x="383.55" y="238.64" width="3.01" height="2.44"/>
        <rect x="392.59" y="238.64" width="3.02" height="2.44"/>
        <rect x="389.58" y="238.64" width="3.01" height="2.44"/>
        <rect x="356.41" y="224.03" width="3.02" height="2.44"/>
        <rect x="362.44" y="224.03" width="3.02" height="2.44"/>
        <rect x="359.43" y="224.03" width="3.01" height="2.44"/>
        <rect x="371.49" y="233.77" width="3.01" height="2.44"/>
        <rect x="371.49" y="231.34" width="3.01" height="2.43"/>
        <rect x="371.49" y="228.9" width="3.01" height="2.44"/>
        <rect x="368.47" y="228.9" width="3.02" height="2.44"/>
        <rect x="368.47" y="226.47" width="3.02" height="2.43"/>
        <rect x="365.46" y="226.47" width="3.01" height="2.43"/>
        <rect x="365.46" y="224.03" width="3.01" height="2.44"/>
        <rect x="380.53" y="238.64" width="3.02" height="2.44"/>
        <rect x="377.52" y="238.64" width="3.01" height="2.44"/>
        <rect x="377.52" y="236.21" width="3.01" height="2.43"/>
        <rect x="374.5" y="236.21" width="3.02" height="2.43"/>
        <rect x="374.5" y="233.77" width="3.02" height="2.44"/>
        <rect x="154.39" y="272.73" width="3.01" height="2.44"/>
        <rect x="154.39" y="270.3" width="3.01" height="2.43"/>
        <rect x="151.37" y="270.3" width="3.02" height="2.43"/>
        <rect x="148.36" y="270.3" width="3.01" height="2.43"/>
        <rect x="157.4" y="272.73" width="3.02" height="2.44"/>
        <rect x="187.56" y="294.65" width="3.01" height="2.43"/>
        <rect x="187.56" y="292.21" width="3.01" height="2.44"/>
        <rect x="193.59" y="297.08" width="3.01" height="2.44"/>
        <rect x="190.57" y="297.08" width="3.02" height="2.44"/>
        <rect x="190.57" y="294.65" width="3.02" height="2.43"/>
        <rect x="181.53" y="292.21" width="3.01" height="2.44"/>
        <rect x="178.51" y="289.78" width="3.02" height="2.43"/>
        <rect x="184.54" y="292.21" width="3.02" height="2.44"/>
        <rect x="172.48" y="289.78" width="3.02" height="2.43"/>
        <rect x="172.48" y="287.34" width="3.02" height="2.44"/>
        <rect x="175.5" y="289.78" width="3.01" height="2.43"/>
        <rect x="166.45" y="282.47" width="3.01" height="2.44"/>
        <rect x="166.45" y="280.04" width="3.01" height="2.43"/>
        <rect x="166.45" y="277.6" width="3.01" height="2.44"/>
        <rect x="163.43" y="277.6" width="3.02" height="2.44"/>
        <rect x="163.43" y="275.17" width="3.02" height="2.43"/>
        <rect x="169.46" y="287.34" width="3.02" height="2.44"/>
        <rect x="169.46" y="284.91" width="3.02" height="2.43"/>
        <rect x="169.46" y="282.47" width="3.02" height="2.44"/>
        <rect x="160.42" y="275.17" width="3.01" height="2.43"/>
        <rect x="326.26" y="38.96" width="3.01" height="2.44"/>
        <rect x="335.3" y="34.09" width="3.02" height="2.44"/>
        <rect x="332.29" y="34.09" width="3.01" height="2.44"/>
        <rect x="329.27" y="38.96" width="3.02" height="2.44"/>
        <rect x="329.27" y="36.53" width="3.02" height="2.43"/>
        <rect x="329.27" y="34.09" width="3.02" height="2.44"/>
        <rect x="341.34" y="31.66" width="3.01" height="2.43"/>
        <rect x="341.34" y="29.22" width="3.01" height="2.44"/>
        <rect x="338.32" y="34.09" width="3.02" height="2.44"/>
        <rect x="338.32" y="31.66" width="3.02" height="2.43"/>
        <rect x="347.37" y="24.35" width="3.01" height="2.44"/>
        <rect x="347.37" y="21.92" width="3.01" height="2.43"/>
        <rect x="347.37" y="19.48" width="3.01" height="2.44"/>
        <rect x="347.37" y="17.05" width="3.01" height="2.43"/>
        <rect x="344.35" y="29.22" width="3.02" height="2.44"/>
        <rect x="344.35" y="26.79" width="3.02" height="2.43"/>
        <rect x="344.35" y="24.35" width="3.02" height="2.44"/>
        <rect x="326.26" y="17.05" width="3.01" height="2.43"/>
        <rect x="335.3" y="17.05" width="3.02" height="2.43"/>
        <rect x="332.29" y="17.05" width="3.01" height="2.43"/>
        <rect x="329.27" y="17.05" width="3.02" height="2.43"/>
        <rect x="341.34" y="17.05" width="3.01" height="2.43"/>
        <rect x="338.32" y="17.05" width="3.02" height="2.43"/>
        <rect x="350.38" y="12.18" width="3.02" height="2.43"/>
        <rect x="347.37" y="14.61" width="3.01" height="2.44"/>
        <rect x="347.37" y="12.18" width="3.01" height="2.43"/>
        <rect x="344.35" y="14.61" width="3.02" height="2.44"/>
        <rect x="386.56" width="3.02" height="2.44"/>
        <rect x="383.55" y="2.44" width="3.01" height="2.43"/>
        <rect x="359.43" y="7.31" width="3.01" height="2.43"/>
        <rect x="356.41" y="9.74" width="3.02" height="2.44"/>
        <rect x="356.41" y="7.31" width="3.02" height="2.43"/>
        <rect x="353.4" y="9.74" width="3.01" height="2.44"/>
        <rect x="365.46" y="7.31" width="3.01" height="2.43"/>
        <rect x="362.44" y="7.31" width="3.02" height="2.43"/>
        <rect x="374.5" y="7.31" width="3.02" height="2.43"/>
        <rect x="374.5" y="4.87" width="3.02" height="2.44"/>
        <rect x="371.49" y="7.31" width="3.01" height="2.43"/>
        <rect x="368.47" y="7.31" width="3.02" height="2.43"/>
        <rect x="380.53" y="4.87" width="3.02" height="2.44"/>
        <rect x="380.53" y="2.44" width="3.02" height="2.43"/>
        <rect x="377.52" y="4.87" width="3.01" height="2.44"/>
        <rect x="392.59" y="187.5" width="3.02" height="2.44"/>
        <rect x="392.59" y="185.07" width="3.02" height="2.43"/>
        <rect x="392.59" y="168.02" width="3.02" height="2.44"/>
        <rect x="392.59" y="165.59" width="3.02" height="2.43"/>
        <rect x="392.59" y="138.8" width="3.02" height="2.44"/>
        <rect x="389.58" y="187.5" width="3.01" height="2.44"/>
        <rect x="389.58" y="168.02" width="3.01" height="2.44"/>
        <rect x="389.58" y="138.8" width="3.01" height="2.44"/>
        <rect x="386.56" y="189.94" width="3.02" height="2.43"/>
        <rect x="386.56" y="187.5" width="3.02" height="2.44"/>
        <rect x="386.56" y="175.33" width="3.02" height="2.43"/>
        <rect x="386.56" y="172.89" width="3.02" height="2.44"/>
        <rect x="386.56" y="170.46" width="3.02" height="2.43"/>
        <rect x="386.56" y="168.02" width="3.02" height="2.44"/>
        <rect x="386.56" y="138.8" width="3.02" height="2.44"/>
        <rect x="383.55" y="189.94" width="3.01" height="2.43"/>
        <rect x="383.55" y="177.76" width="3.01" height="2.44"/>
        <rect x="383.55" y="175.33" width="3.01" height="2.43"/>
        <rect x="383.55" y="138.8" width="3.01" height="2.44"/>
        <rect x="380.53" y="192.37" width="3.02" height="2.44"/>
        <rect x="380.53" y="189.94" width="3.02" height="2.43"/>
        <rect x="380.53" y="180.2" width="3.02" height="2.43"/>
        <rect x="380.53" y="177.76" width="3.02" height="2.44"/>
        <rect x="380.53" y="138.8" width="3.02" height="2.44"/>
        <rect x="377.52" y="192.37" width="3.01" height="2.44"/>
        <rect x="377.52" y="180.2" width="3.01" height="2.43"/>
        <rect x="377.52" y="141.24" width="3.01" height="2.43"/>
        <rect x="377.52" y="138.8" width="3.01" height="2.44"/>
        <rect x="377.52" y="136.37" width="3.01" height="2.43"/>
        <rect x="374.5" y="192.37" width="3.02" height="2.44"/>
        <rect x="374.5" y="180.2" width="3.02" height="2.43"/>
        <rect x="374.5" y="141.24" width="3.02" height="2.43"/>
        <rect x="374.5" y="136.37" width="3.02" height="2.43"/>
        <rect x="371.49" y="192.37" width="3.01" height="2.44"/>
        <rect x="371.49" y="182.63" width="3.01" height="2.44"/>
        <rect x="371.49" y="180.2" width="3.01" height="2.43"/>
        <rect x="371.49" y="143.67" width="3.01" height="2.44"/>
        <rect x="371.49" y="136.37" width="3.01" height="2.43"/>
        <rect x="368.47" y="192.37" width="3.02" height="2.44"/>
        <rect x="368.47" y="185.07" width="3.02" height="2.43"/>
        <rect x="368.47" y="182.63" width="3.02" height="2.44"/>
        <rect x="368.47" y="143.67" width="3.02" height="2.44"/>
        <rect x="368.47" y="136.37" width="3.02" height="2.43"/>
        <rect x="365.46" y="192.37" width="3.01" height="2.44"/>
        <rect x="365.46" y="187.5" width="3.01" height="2.44"/>
        <rect x="365.46" y="143.67" width="3.01" height="2.44"/>
        <rect x="365.46" y="136.37" width="3.01" height="2.43"/>
        <rect x="362.44" y="192.37" width="3.02" height="2.44"/>
        <rect x="362.44" y="189.94" width="3.02" height="2.43"/>
        <rect x="362.44" y="143.67" width="3.02" height="2.44"/>
        <rect x="362.44" y="136.37" width="3.02" height="2.43"/>
        <rect x="359.43" y="194.81" width="3.01" height="2.43"/>
        <rect x="359.43" y="192.37" width="3.01" height="2.44"/>
        <rect x="359.43" y="143.67" width="3.01" height="2.44"/>
        <rect x="359.43" y="136.37" width="3.01" height="2.43"/>
        <rect x="359.43" y="77.92" width="3.01" height="2.44"/>
        <rect x="359.43" y="75.49" width="3.01" height="2.43"/>
        <rect x="356.41" y="194.81" width="3.02" height="2.43"/>
        <rect x="356.41" y="143.67" width="3.02" height="2.44"/>
        <rect x="356.41" y="136.37" width="3.02" height="2.43"/>
        <rect x="356.41" y="77.92" width="3.02" height="2.44"/>
        <rect x="353.4" y="197.24" width="3.01" height="2.44"/>
        <rect x="353.4" y="194.81" width="3.01" height="2.43"/>
        <rect x="353.4" y="143.67" width="3.01" height="2.44"/>
        <rect x="353.4" y="136.37" width="3.01" height="2.43"/>
        <rect x="353.4" y="77.92" width="3.01" height="2.44"/>
        <rect x="350.38" y="197.24" width="3.02" height="2.44"/>
        <rect x="350.38" y="146.11" width="3.02" height="2.43"/>
        <rect x="350.38" y="136.37" width="3.02" height="2.43"/>
        <rect x="350.38" y="80.36" width="3.02" height="2.43"/>
        <rect x="347.37" y="199.68" width="3.01" height="2.44"/>
        <rect x="347.37" y="197.24" width="3.01" height="2.44"/>
        <rect x="347.37" y="146.11" width="3.01" height="2.43"/>
        <rect x="347.37" y="136.37" width="3.01" height="2.43"/>
        <rect x="347.37" y="80.36" width="3.01" height="2.43"/>
        <rect x="344.35" y="199.68" width="3.02" height="2.44"/>
        <rect x="344.35" y="136.37" width="3.02" height="2.43"/>
        <rect x="344.35" y="133.93" width="3.02" height="2.44"/>
        <rect x="344.35" y="80.36" width="3.02" height="2.43"/>
        <rect x="341.34" y="199.68" width="3.01" height="2.44"/>
        <rect x="341.34" y="133.93" width="3.01" height="2.44"/>
        <rect x="341.34" y="82.79" width="3.01" height="2.44"/>
        <rect x="338.32" y="199.68" width="3.02" height="2.44"/>
        <rect x="338.32" y="133.93" width="3.02" height="2.44"/>
        <rect x="338.32" y="82.79" width="3.02" height="2.44"/>
        <rect x="335.3" y="202.12" width="3.02" height="2.43"/>
        <rect x="335.3" y="133.93" width="3.02" height="2.44"/>
        <rect x="335.3" y="82.79" width="3.02" height="2.44"/>
        <rect x="332.29" y="204.55" width="3.01" height="2.44"/>
        <rect x="332.29" y="202.12" width="3.01" height="2.43"/>
        <rect x="332.29" y="131.5" width="3.01" height="2.43"/>
        <rect x="332.29" y="82.79" width="3.01" height="2.44"/>
        <rect x="329.27" y="204.55" width="3.02" height="2.44"/>
        <rect x="329.27" y="131.5" width="3.02" height="2.43"/>
        <rect x="329.27" y="129.06" width="3.02" height="2.44"/>
        <rect x="329.27" y="82.79" width="3.02" height="2.44"/>
        <rect x="326.26" y="226.47" width="3.01" height="2.43"/>
        <rect x="326.26" y="206.99" width="3.01" height="2.43"/>
        <rect x="326.26" y="204.55" width="3.01" height="2.44"/>
        <rect x="326.26" y="129.06" width="3.01" height="2.44"/>
        <rect x="326.26" y="82.79" width="3.01" height="2.44"/>
        <rect x="323.24" y="226.47" width="3.02" height="2.43"/>
        <rect x="323.24" y="206.99" width="3.02" height="2.43"/>
        <rect x="323.24" y="129.06" width="3.02" height="2.44"/>
        <rect x="323.24" y="82.79" width="3.02" height="2.44"/>
        <rect x="320.23" y="226.47" width="3.01" height="2.43"/>
        <rect x="320.23" y="209.42" width="3.01" height="2.44"/>
        <rect x="320.23" y="206.99" width="3.01" height="2.43"/>
        <rect x="320.23" y="129.06" width="3.01" height="2.44"/>
        <rect x="320.23" y="82.79" width="3.01" height="2.44"/>
        <rect x="317.21" y="226.47" width="3.02" height="2.43"/>
        <rect x="317.21" y="209.42" width="3.02" height="2.44"/>
        <rect x="317.21" y="129.06" width="3.02" height="2.44"/>
        <rect x="317.21" y="82.79" width="3.02" height="2.44"/>
        <rect x="314.2" y="226.47" width="3.01" height="2.43"/>
        <rect x="314.2" y="211.86" width="3.01" height="2.43"/>
        <rect x="314.2" y="126.63" width="3.01" height="2.43"/>
        <rect x="314.2" y="82.79" width="3.01" height="2.44"/>
        <rect x="311.18" y="226.47" width="3.02" height="2.43"/>
        <rect x="311.18" y="214.29" width="3.02" height="2.44"/>
        <rect x="311.18" y="211.86" width="3.02" height="2.43"/>
        <rect x="311.18" y="126.63" width="3.02" height="2.43"/>
        <rect x="311.18" y="82.79" width="3.02" height="2.44"/>
        <rect x="308.17" y="226.47" width="3.01" height="2.43"/>
        <rect x="308.17" y="224.03" width="3.01" height="2.44"/>
        <rect x="308.17" y="216.73" width="3.01" height="2.43"/>
        <rect x="308.17" y="214.29" width="3.01" height="2.44"/>
        <rect x="308.17" y="126.63" width="3.01" height="2.43"/>
        <rect x="308.17" y="82.79" width="3.01" height="2.44"/>
        <rect x="305.15" y="224.03" width="3.02" height="2.44"/>
        <rect x="305.15" y="216.73" width="3.02" height="2.43"/>
        <rect x="305.15" y="126.63" width="3.02" height="2.43"/>
        <rect x="305.15" y="90.1" width="3.02" height="2.44"/>
        <rect x="305.15" y="82.79" width="3.02" height="2.44"/>
        <rect x="302.14" y="224.03" width="3.01" height="2.44"/>
        <rect x="302.14" y="216.73" width="3.01" height="2.43"/>
        <rect x="302.14" y="126.63" width="3.01" height="2.43"/>
        <rect x="302.14" y="124.19" width="3.01" height="2.44"/>
        <rect x="302.14" y="90.1" width="3.01" height="2.44"/>
        <rect x="302.14" y="82.79" width="3.01" height="2.44"/>
        <rect x="299.12" y="221.6" width="3.02" height="2.43"/>
        <rect x="299.12" y="219.16" width="3.02" height="2.44"/>
        <rect x="299.12" y="216.73" width="3.02" height="2.43"/>
        <rect x="299.12" y="124.19" width="3.02" height="2.44"/>
        <rect x="299.12" y="90.1" width="3.02" height="2.44"/>
        <rect x="299.12" y="85.23" width="3.02" height="2.43"/>
        <rect x="296.11" y="221.6" width="3.01" height="2.43"/>
        <rect x="296.11" y="219.16" width="3.01" height="2.44"/>
        <rect x="296.11" y="90.1" width="3.01" height="2.44"/>
        <rect x="296.11" y="87.66" width="3.01" height="2.44"/>
        <rect x="296.11" y="85.23" width="3.01" height="2.43"/>
        <rect x="293.09" y="221.6" width="3.02" height="2.43"/>
        <rect x="293.09" y="219.16" width="3.02" height="2.44"/>
        <rect x="293.09" y="87.66" width="3.02" height="2.44"/>
        <rect x="293.09" y="85.23" width="3.02" height="2.43"/>
        <rect x="290.08" y="221.6" width="3.01" height="2.43"/>
        <rect x="290.08" y="219.16" width="3.01" height="2.44"/>
        <rect x="290.08" y="87.66" width="3.01" height="2.44"/>
        <rect x="287.06" y="221.6" width="3.02" height="2.43"/>
        <rect x="287.06" y="219.16" width="3.02" height="2.44"/>
        <rect x="287.06" y="87.66" width="3.02" height="2.44"/>
        <rect x="284.05" y="221.6" width="3.01" height="2.43"/>
        <rect x="284.05" y="219.16" width="3.01" height="2.44"/>
        <rect x="284.05" y="87.66" width="3.01" height="2.44"/>
        <rect x="281.03" y="221.6" width="3.02" height="2.43"/>
        <rect x="281.03" y="219.16" width="3.02" height="2.44"/>
        <rect x="281.03" y="87.66" width="3.02" height="2.44"/>
        <rect x="281.03" y="85.23" width="3.02" height="2.43"/>
        <rect x="281.03" y="7.31" width="3.02" height="2.43"/>
        <rect x="278.01" y="219.16" width="3.02" height="2.44"/>
        <rect x="278.01" y="85.23" width="3.02" height="2.43"/>
        <rect x="278.01" y="7.31" width="3.02" height="2.43"/>
        <rect x="275" y="219.16" width="3.01" height="2.44"/>
        <rect x="275" y="85.23" width="3.01" height="2.43"/>
        <rect x="275" y="46.27" width="3.01" height="2.43"/>
        <rect x="275" y="43.83" width="3.01" height="2.44"/>
        <rect x="275" y="7.31" width="3.01" height="2.43"/>
        <rect x="271.98" y="85.23" width="3.02" height="2.43"/>
        <rect x="271.98" y="46.27" width="3.02" height="2.43"/>
        <rect x="271.98" y="7.31" width="3.02" height="2.43"/>
        <rect x="268.97" y="85.23" width="3.01" height="2.43"/>
        <rect x="268.97" y="46.27" width="3.01" height="2.43"/>
        <rect x="268.97" y="7.31" width="3.01" height="2.43"/>
        <rect x="268.97" y="4.87" width="3.01" height="2.44"/>
        <rect x="265.95" y="85.23" width="3.02" height="2.43"/>
        <rect x="265.95" y="46.27" width="3.02" height="2.43"/>
        <rect x="262.94" y="85.23" width="3.01" height="2.43"/>
        <rect x="262.94" y="48.7" width="3.01" height="2.44"/>
        <rect x="259.92" y="87.66" width="3.02" height="2.44"/>
        <rect x="259.92" y="48.7" width="3.02" height="2.44"/>
        <rect x="256.91" y="87.66" width="3.01" height="2.44"/>
        <rect x="256.91" y="51.14" width="3.01" height="2.43"/>
        <rect x="256.91" y="48.7" width="3.01" height="2.44"/>
        <rect x="256.91" y="4.87" width="3.01" height="2.44"/>
        <rect x="253.89" y="87.66" width="3.02" height="2.44"/>
        <rect x="253.89" y="53.57" width="3.02" height="2.44"/>
        <rect x="253.89" y="51.14" width="3.02" height="2.43"/>
        <rect x="253.89" y="4.87" width="3.02" height="2.44"/>
        <rect x="253.89" y="2.44" width="3.02" height="2.43"/>
        <rect x="250.88" y="90.1" width="3.01" height="2.44"/>
        <rect x="250.88" y="56.01" width="3.01" height="2.43"/>
        <rect x="250.88" y="53.57" width="3.01" height="2.44"/>
        <rect x="250.88" y="2.44" width="3.01" height="2.43"/>
        <rect x="250.88" width="3.01" height="2.44"/>
        <rect x="247.86" y="90.1" width="3.02" height="2.44"/>
        <rect x="247.86" y="58.44" width="3.02" height="2.44"/>
        <rect x="247.86" y="56.01" width="3.02" height="2.43"/>
        <rect x="247.86" width="3.02" height="2.44"/>
        <rect x="244.85" y="92.54" width="3.01" height="2.43"/>
        <rect x="244.85" y="90.1" width="3.01" height="2.44"/>
        <rect x="244.85" y="58.44" width="3.01" height="2.44"/>
        <rect x="244.85" y="2.44" width="3.01" height="2.43"/>
        <rect x="244.85" width="3.01" height="2.44"/>
        <rect x="241.83" y="92.54" width="3.02" height="2.43"/>
        <rect x="241.83" y="58.44" width="3.02" height="2.44"/>
        <rect x="241.83" y="2.44" width="3.02" height="2.43"/>
        <rect x="238.82" y="92.54" width="3.01" height="2.43"/>
        <rect x="238.82" y="58.44" width="3.01" height="2.44"/>
        <rect x="238.82" y="2.44" width="3.01" height="2.43"/>
        <rect x="235.8" y="92.54" width="3.02" height="2.43"/>
        <rect x="235.8" y="58.44" width="3.02" height="2.44"/>
        <rect x="235.8" y="4.87" width="3.02" height="2.44"/>
        <rect x="235.8" y="2.44" width="3.02" height="2.43"/>
        <rect x="232.79" y="94.97" width="3.01" height="2.44"/>
        <rect x="232.79" y="58.44" width="3.01" height="2.44"/>
        <rect x="232.79" y="4.87" width="3.01" height="2.44"/>
        <rect x="229.77" y="262.99" width="3.02" height="2.44"/>
        <rect x="229.77" y="243.51" width="3.02" height="2.44"/>
        <rect x="229.77" y="94.97" width="3.02" height="2.44"/>
        <rect x="229.77" y="60.88" width="3.02" height="2.43"/>
        <rect x="229.77" y="58.44" width="3.02" height="2.44"/>
        <rect x="229.77" y="7.31" width="3.02" height="2.43"/>
        <rect x="229.77" y="4.87" width="3.02" height="2.44"/>
        <rect x="226.75" y="262.99" width="3.02" height="2.44"/>
        <rect x="226.75" y="243.51" width="3.02" height="2.44"/>
        <rect x="226.75" y="121.76" width="3.02" height="2.43"/>
        <rect x="226.75" y="94.97" width="3.02" height="2.44"/>
        <rect x="226.75" y="60.88" width="3.02" height="2.43"/>
        <rect x="226.75" y="7.31" width="3.02" height="2.43"/>
        <rect x="223.74" y="262.99" width="3.01" height="2.44"/>
        <rect x="223.74" y="245.95" width="3.01" height="2.43"/>
        <rect x="223.74" y="243.51" width="3.01" height="2.44"/>
        <rect x="223.74" y="121.76" width="3.01" height="2.43"/>
        <rect x="223.74" y="60.88" width="3.01" height="2.43"/>
        <rect x="223.74" y="7.31" width="3.01" height="2.43"/>
        <rect x="220.72" y="262.99" width="3.02" height="2.44"/>
        <rect x="220.72" y="250.82" width="3.02" height="2.43"/>
        <rect x="220.72" y="248.38" width="3.02" height="2.44"/>
        <rect x="220.72" y="245.95" width="3.02" height="2.43"/>
        <rect x="220.72" y="121.76" width="3.02" height="2.43"/>
        <rect x="220.72" y="119.32" width="3.02" height="2.44"/>
        <rect x="220.72" y="63.31" width="3.02" height="2.44"/>
        <rect x="220.72" y="60.88" width="3.02" height="2.43"/>
        <rect x="220.72" y="7.31" width="3.02" height="2.43"/>
        <rect x="217.71" y="262.99" width="3.01" height="2.44"/>
        <rect x="217.71" y="253.25" width="3.01" height="2.44"/>
        <rect x="217.71" y="250.82" width="3.01" height="2.43"/>
        <rect x="217.71" y="119.32" width="3.01" height="2.44"/>
        <rect x="217.71" y="63.31" width="3.01" height="2.44"/>
        <rect x="217.71" y="9.74" width="3.01" height="2.44"/>
        <rect x="214.69" y="262.99" width="3.02" height="2.44"/>
        <rect x="214.69" y="255.69" width="3.02" height="2.43"/>
        <rect x="214.69" y="253.25" width="3.02" height="2.44"/>
        <rect x="214.69" y="119.32" width="3.02" height="2.44"/>
        <rect x="214.69" y="65.75" width="3.02" height="2.43"/>
        <rect x="214.69" y="63.31" width="3.02" height="2.44"/>
        <rect x="214.69" y="9.74" width="3.02" height="2.44"/>
        <rect x="211.68" y="260.56" width="3.01" height="2.43"/>
        <rect x="211.68" y="258.12" width="3.01" height="2.44"/>
        <rect x="211.68" y="255.69" width="3.01" height="2.43"/>
        <rect x="211.68" y="121.76" width="3.01" height="2.43"/>
        <rect x="211.68" y="119.32" width="3.01" height="2.44"/>
        <rect x="211.68" y="80.36" width="3.01" height="2.43"/>
        <rect x="211.68" y="65.75" width="3.01" height="2.43"/>
        <rect x="211.68" y="9.74" width="3.01" height="2.44"/>
        <rect x="208.66" y="270.3" width="3.02" height="2.43"/>
        <rect x="208.66" y="255.69" width="3.02" height="2.43"/>
        <rect x="208.66" y="124.19" width="3.02" height="2.44"/>
        <rect x="208.66" y="121.76" width="3.02" height="2.43"/>
        <rect x="208.66" y="80.36" width="3.02" height="2.43"/>
        <rect x="208.66" y="65.75" width="3.02" height="2.43"/>
        <rect x="208.66" y="12.18" width="3.02" height="2.43"/>
        <rect x="205.65" y="270.3" width="3.01" height="2.43"/>
        <rect x="205.65" y="255.69" width="3.01" height="2.43"/>
        <rect x="205.65" y="126.63" width="3.01" height="2.43"/>
        <rect x="205.65" y="124.19" width="3.01" height="2.44"/>
        <rect x="205.65" y="80.36" width="3.01" height="2.43"/>
        <rect x="205.65" y="68.18" width="3.01" height="2.44"/>
        <rect x="205.65" y="14.61" width="3.01" height="2.44"/>
        <rect x="205.65" y="12.18" width="3.01" height="2.43"/>
        <rect x="202.63" y="270.3" width="3.02" height="2.43"/>
        <rect x="202.63" y="267.86" width="3.02" height="2.44"/>
        <rect x="202.63" y="255.69" width="3.02" height="2.43"/>
        <rect x="202.63" y="126.63" width="3.02" height="2.43"/>
        <rect x="202.63" y="80.36" width="3.02" height="2.43"/>
        <rect x="202.63" y="68.18" width="3.02" height="2.44"/>
        <rect x="202.63" y="14.61" width="3.02" height="2.44"/>
        <rect x="199.62" y="267.86" width="3.01" height="2.44"/>
        <rect x="199.62" y="255.69" width="3.01" height="2.43"/>
        <rect x="199.62" y="253.25" width="3.01" height="2.44"/>
        <rect x="199.62" y="126.63" width="3.01" height="2.43"/>
        <rect x="199.62" y="80.36" width="3.01" height="2.43"/>
        <rect x="199.62" y="68.18" width="3.01" height="2.44"/>
        <rect x="199.62" y="14.61" width="3.01" height="2.44"/>
        <rect x="196.6" y="265.43" width="3.02" height="2.43"/>
        <rect x="196.6" y="253.25" width="3.02" height="2.44"/>
        <rect x="196.6" y="126.63" width="3.02" height="2.43"/>
        <rect x="196.6" y="80.36" width="3.02" height="2.43"/>
        <rect x="196.6" y="68.18" width="3.02" height="2.44"/>
        <rect x="196.6" y="14.61" width="3.02" height="2.44"/>
        <rect x="193.59" y="265.43" width="3.01" height="2.43"/>
        <rect x="193.59" y="255.69" width="3.01" height="2.43"/>
        <rect x="193.59" y="126.63" width="3.01" height="2.43"/>
        <rect x="193.59" y="80.36" width="3.01" height="2.43"/>
        <rect x="193.59" y="68.18" width="3.01" height="2.44"/>
        <rect x="193.59" y="14.61" width="3.01" height="2.44"/>
        <rect x="190.57" y="262.99" width="3.02" height="2.44"/>
        <rect x="190.57" y="255.69" width="3.02" height="2.43"/>
        <rect x="190.57" y="129.06" width="3.02" height="2.44"/>
        <rect x="190.57" y="126.63" width="3.02" height="2.43"/>
        <rect x="190.57" y="80.36" width="3.02" height="2.43"/>
        <rect x="190.57" y="70.62" width="3.02" height="2.43"/>
        <rect x="190.57" y="14.61" width="3.02" height="2.44"/>
        <rect x="187.56" y="262.99" width="3.01" height="2.44"/>
        <rect x="187.56" y="258.12" width="3.01" height="2.44"/>
        <rect x="187.56" y="255.69" width="3.01" height="2.43"/>
        <rect x="187.56" y="131.5" width="3.01" height="2.43"/>
        <rect x="187.56" y="129.06" width="3.01" height="2.44"/>
        <rect x="187.56" y="82.79" width="3.01" height="2.44"/>
        <rect x="187.56" y="70.62" width="3.01" height="2.43"/>
        <rect x="184.54" y="262.99" width="3.02" height="2.44"/>
        <rect x="184.54" y="260.56" width="3.02" height="2.43"/>
        <rect x="184.54" y="258.12" width="3.02" height="2.44"/>
        <rect x="184.54" y="133.93" width="3.02" height="2.44"/>
        <rect x="184.54" y="131.5" width="3.02" height="2.43"/>
        <rect x="184.54" y="129.06" width="3.02" height="2.44"/>
        <rect x="184.54" y="82.79" width="3.02" height="2.44"/>
        <rect x="184.54" y="70.62" width="3.02" height="2.43"/>
        <rect x="181.53" y="258.12" width="3.01" height="2.44"/>
        <rect x="181.53" y="133.93" width="3.01" height="2.44"/>
        <rect x="181.53" y="129.06" width="3.01" height="2.44"/>
        <rect x="181.53" y="126.63" width="3.01" height="2.43"/>
        <rect x="178.51" y="260.56" width="3.02" height="2.43"/>
        <rect x="178.51" y="258.12" width="3.02" height="2.44"/>
        <rect x="178.51" y="136.37" width="3.02" height="2.43"/>
        <rect x="178.51" y="133.93" width="3.02" height="2.44"/>
        <rect x="178.51" y="129.06" width="3.02" height="2.44"/>
        <rect x="175.5" y="260.56" width="3.01" height="2.43"/>
        <rect x="175.5" y="138.8" width="3.01" height="2.44"/>
        <rect x="175.5" y="129.06" width="3.01" height="2.44"/>
        <rect x="172.48" y="262.99" width="3.02" height="2.44"/>
        <rect x="172.48" y="260.56" width="3.02" height="2.43"/>
        <rect x="172.48" y="131.5" width="3.02" height="2.43"/>
        <rect x="169.46" y="262.99" width="3.02" height="2.44"/>
        <rect x="169.46" y="133.93" width="3.02" height="2.44"/>
        <rect x="169.46" y="131.5" width="3.02" height="2.43"/>
        <rect x="166.45" y="262.99" width="3.01" height="2.44"/>
        <rect x="166.45" y="133.93" width="3.01" height="2.44"/>
        <rect x="163.43" y="262.99" width="3.02" height="2.44"/>
        <rect x="163.43" y="133.93" width="3.02" height="2.44"/>
        <rect x="160.42" y="265.43" width="3.01" height="2.43"/>
        <rect x="160.42" y="262.99" width="3.01" height="2.44"/>
        <rect x="160.42" y="133.93" width="3.01" height="2.44"/>
        <rect x="160.42" y="73.05" width="3.01" height="2.44"/>
        <rect x="160.42" y="4.87" width="3.01" height="2.44"/>
        <rect x="157.4" y="265.43" width="3.02" height="2.43"/>
        <rect x="157.4" y="133.93" width="3.02" height="2.44"/>
        <rect x="157.4" y="73.05" width="3.02" height="2.44"/>
        <rect x="157.4" y="7.31" width="3.02" height="2.43"/>
        <rect x="157.4" y="4.87" width="3.02" height="2.44"/>
        <rect x="154.39" y="265.43" width="3.01" height="2.43"/>
        <rect x="154.39" y="133.93" width="3.01" height="2.44"/>
        <rect x="154.39" y="73.05" width="3.01" height="2.44"/>
        <rect x="154.39" y="7.31" width="3.01" height="2.43"/>
        <rect x="151.37" y="267.86" width="3.02" height="2.44"/>
        <rect x="151.37" y="265.43" width="3.02" height="2.43"/>
        <rect x="151.37" y="133.93" width="3.02" height="2.44"/>
        <rect x="151.37" y="70.62" width="3.02" height="2.43"/>
        <rect x="151.37" y="9.74" width="3.02" height="2.44"/>
        <rect x="151.37" y="7.31" width="3.02" height="2.43"/>
        <rect x="148.36" y="267.86" width="3.01" height="2.44"/>
        <rect x="148.36" y="133.93" width="3.01" height="2.44"/>
        <rect x="148.36" y="70.62" width="3.01" height="2.43"/>
        <rect x="148.36" y="9.74" width="3.01" height="2.44"/>
        <rect x="145.34" y="270.3" width="3.02" height="2.43"/>
        <rect x="145.34" y="267.86" width="3.02" height="2.44"/>
        <rect x="145.34" y="136.37" width="3.02" height="2.43"/>
        <rect x="145.34" y="70.62" width="3.02" height="2.43"/>
        <rect x="145.34" y="9.74" width="3.02" height="2.44"/>
        <rect x="142.33" y="272.73" width="3.01" height="2.44"/>
        <rect x="142.33" y="270.3" width="3.01" height="2.43"/>
        <rect x="142.33" y="136.37" width="3.01" height="2.43"/>
        <rect x="142.33" y="70.62" width="3.01" height="2.43"/>
        <rect x="142.33" y="68.18" width="3.01" height="2.44"/>
        <rect x="142.33" y="9.74" width="3.01" height="2.44"/>
        <rect x="139.31" y="272.73" width="3.02" height="2.44"/>
        <rect x="139.31" y="136.37" width="3.02" height="2.43"/>
        <rect x="139.31" y="68.18" width="3.02" height="2.44"/>
        <rect x="139.31" y="9.74" width="3.02" height="2.44"/>
        <rect x="136.3" y="275.17" width="3.01" height="2.43"/>
        <rect x="136.3" y="272.73" width="3.01" height="2.44"/>
        <rect x="136.3" y="68.18" width="3.01" height="2.44"/>
        <rect x="136.3" y="9.74" width="3.01" height="2.44"/>
        <rect x="133.28" y="275.17" width="3.02" height="2.43"/>
        <rect x="133.28" y="272.73" width="3.02" height="2.44"/>
        <rect x="133.28" y="65.75" width="3.02" height="2.43"/>
        <rect x="133.28" y="9.74" width="3.02" height="2.44"/>
        <rect x="130.27" y="275.17" width="3.01" height="2.43"/>
        <rect x="130.27" y="272.73" width="3.01" height="2.44"/>
        <rect x="130.27" y="82.79" width="3.01" height="2.44"/>
        <rect x="130.27" y="65.75" width="3.01" height="2.43"/>
        <rect x="130.27" y="9.74" width="3.01" height="2.44"/>
        <rect x="127.25" y="294.65" width="3.02" height="2.43"/>
        <rect x="127.25" y="275.17" width="3.02" height="2.43"/>
        <rect x="127.25" y="272.73" width="3.02" height="2.44"/>
        <rect x="127.25" y="82.79" width="3.02" height="2.44"/>
        <rect x="127.25" y="63.31" width="3.02" height="2.44"/>
        <rect x="127.25" y="12.18" width="3.02" height="2.43"/>
        <rect x="127.25" y="9.74" width="3.02" height="2.44"/>
        <rect x="124.24" y="294.65" width="3.01" height="2.43"/>
        <rect x="124.24" y="292.21" width="3.01" height="2.44"/>
        <rect x="124.24" y="275.17" width="3.01" height="2.43"/>
        <rect x="124.24" y="272.73" width="3.01" height="2.44"/>
        <rect x="124.24" y="175.33" width="3.01" height="2.43"/>
        <rect x="124.24" y="82.79" width="3.01" height="2.44"/>
        <rect x="124.24" y="63.31" width="3.01" height="2.44"/>
        <rect x="124.24" y="60.88" width="3.01" height="2.43"/>
        <rect x="124.24" y="12.18" width="3.01" height="2.43"/>
        <rect x="121.22" y="292.21" width="3.02" height="2.44"/>
        <rect x="121.22" y="289.78" width="3.02" height="2.43"/>
        <rect x="121.22" y="277.6" width="3.02" height="2.44"/>
        <rect x="121.22" y="275.17" width="3.02" height="2.43"/>
        <rect x="121.22" y="272.73" width="3.02" height="2.44"/>
        <rect x="121.22" y="175.33" width="3.02" height="2.43"/>
        <rect x="121.22" y="172.89" width="3.02" height="2.44"/>
        <rect x="121.22" y="85.23" width="3.02" height="2.43"/>
        <rect x="121.22" y="82.79" width="3.02" height="2.44"/>
        <rect x="121.22" y="60.88" width="3.02" height="2.43"/>
        <rect x="121.22" y="12.18" width="3.02" height="2.43"/>
        <rect x="118.21" y="287.34" width="3.01" height="2.44"/>
        <rect x="118.21" y="277.6" width="3.01" height="2.44"/>
        <rect x="118.21" y="270.3" width="3.01" height="2.43"/>
        <rect x="118.21" y="204.55" width="3.01" height="2.44"/>
        <rect x="118.21" y="172.89" width="3.01" height="2.44"/>
        <rect x="118.21" y="87.66" width="3.01" height="2.44"/>
        <rect x="118.21" y="85.23" width="3.01" height="2.43"/>
        <rect x="118.21" y="60.88" width="3.01" height="2.43"/>
        <rect x="118.21" y="58.44" width="3.01" height="2.44"/>
        <rect x="118.21" y="12.18" width="3.01" height="2.43"/>
        <rect x="115.19" y="287.34" width="3.02" height="2.44"/>
        <rect x="115.19" y="284.91" width="3.02" height="2.43"/>
        <rect x="115.19" y="280.04" width="3.02" height="2.43"/>
        <rect x="115.19" y="270.3" width="3.02" height="2.43"/>
        <rect x="115.19" y="267.86" width="3.02" height="2.44"/>
        <rect x="115.19" y="204.55" width="3.02" height="2.44"/>
        <rect x="115.19" y="202.12" width="3.02" height="2.43"/>
        <rect x="115.19" y="172.89" width="3.02" height="2.44"/>
        <rect x="115.19" y="170.46" width="3.02" height="2.43"/>
        <rect x="115.19" y="87.66" width="3.02" height="2.44"/>
        <rect x="115.19" y="58.44" width="3.02" height="2.44"/>
        <rect x="115.19" y="12.18" width="3.02" height="2.43"/>
        <rect x="112.17" y="284.91" width="3.02" height="2.43"/>
        <rect x="112.17" y="282.47" width="3.02" height="2.44"/>
        <rect x="112.17" y="280.04" width="3.02" height="2.43"/>
        <rect x="112.17" y="267.86" width="3.02" height="2.44"/>
        <rect x="112.17" y="202.12" width="3.02" height="2.43"/>
        <rect x="112.17" y="170.46" width="3.02" height="2.43"/>
        <rect x="112.17" y="90.1" width="3.02" height="2.44"/>
        <rect x="112.17" y="58.44" width="3.02" height="2.44"/>
        <rect x="112.17" y="14.61" width="3.02" height="2.44"/>
        <rect x="112.17" y="12.18" width="3.02" height="2.43"/>
        <rect x="109.16" y="284.91" width="3.01" height="2.43"/>
        <rect x="109.16" y="282.47" width="3.01" height="2.44"/>
        <rect x="109.16" y="267.86" width="3.01" height="2.44"/>
        <rect x="109.16" y="265.43" width="3.01" height="2.43"/>
        <rect x="109.16" y="202.12" width="3.01" height="2.43"/>
        <rect x="109.16" y="170.46" width="3.01" height="2.43"/>
        <rect x="109.16" y="90.1" width="3.01" height="2.44"/>
        <rect x="109.16" y="58.44" width="3.01" height="2.44"/>
        <rect x="109.16" y="14.61" width="3.01" height="2.44"/>
        <rect x="106.14" y="284.91" width="3.02" height="2.43"/>
        <rect x="106.14" y="265.43" width="3.02" height="2.43"/>
        <rect x="106.14" y="204.55" width="3.02" height="2.44"/>
        <rect x="106.14" y="172.89" width="3.02" height="2.44"/>
        <rect x="106.14" y="170.46" width="3.02" height="2.43"/>
        <rect x="106.14" y="90.1" width="3.02" height="2.44"/>
        <rect x="106.14" y="58.44" width="3.02" height="2.44"/>
        <rect x="106.14" y="17.05" width="3.02" height="2.43"/>
        <rect x="106.14" y="14.61" width="3.02" height="2.44"/>
        <rect x="103.13" y="284.91" width="3.01" height="2.43"/>
        <rect x="103.13" y="265.43" width="3.01" height="2.43"/>
        <rect x="103.13" y="262.99" width="3.01" height="2.44"/>
        <rect x="103.13" y="206.99" width="3.01" height="2.43"/>
        <rect x="103.13" y="204.55" width="3.01" height="2.44"/>
        <rect x="103.13" y="172.89" width="3.01" height="2.44"/>
        <rect x="103.13" y="90.1" width="3.01" height="2.44"/>
        <rect x="103.13" y="58.44" width="3.01" height="2.44"/>
        <rect x="103.13" y="17.05" width="3.01" height="2.43"/>
        <rect x="100.11" y="284.91" width="3.02" height="2.43"/>
        <rect x="100.11" y="262.99" width="3.02" height="2.44"/>
        <rect x="100.11" y="260.56" width="3.02" height="2.43"/>
        <rect x="100.11" y="206.99" width="3.02" height="2.43"/>
        <rect x="100.11" y="175.33" width="3.02" height="2.43"/>
        <rect x="100.11" y="172.89" width="3.02" height="2.44"/>
        <rect x="100.11" y="90.1" width="3.02" height="2.44"/>
        <rect x="100.11" y="17.05" width="3.02" height="2.43"/>
        <rect x="97.1" y="284.91" width="3.01" height="2.43"/>
        <rect x="97.1" y="260.56" width="3.01" height="2.43"/>
        <rect x="97.1" y="258.12" width="3.01" height="2.44"/>
        <rect x="97.1" y="206.99" width="3.01" height="2.43"/>
        <rect x="97.1" y="175.33" width="3.01" height="2.43"/>
        <rect x="97.1" y="92.54" width="3.01" height="2.43"/>
        <rect x="97.1" y="90.1" width="3.01" height="2.44"/>
        <rect x="97.1" y="19.48" width="3.01" height="2.44"/>
        <rect x="94.08" y="287.34" width="3.02" height="2.44"/>
        <rect x="94.08" y="284.91" width="3.02" height="2.43"/>
        <rect x="94.08" y="258.12" width="3.02" height="2.44"/>
        <rect x="94.08" y="209.42" width="3.02" height="2.44"/>
        <rect x="94.08" y="206.99" width="3.02" height="2.43"/>
        <rect x="94.08" y="177.76" width="3.02" height="2.44"/>
        <rect x="94.08" y="175.33" width="3.02" height="2.43"/>
        <rect x="94.08" y="92.54" width="3.02" height="2.43"/>
        <rect x="94.08" y="19.48" width="3.02" height="2.44"/>
        <rect x="91.07" y="284.91" width="3.01" height="2.43"/>
        <rect x="91.07" y="258.12" width="3.01" height="2.44"/>
        <rect x="91.07" y="209.42" width="3.01" height="2.44"/>
        <rect x="91.07" y="177.76" width="3.01" height="2.44"/>
        <rect x="91.07" y="94.97" width="3.01" height="2.44"/>
        <rect x="91.07" y="92.54" width="3.01" height="2.43"/>
        <rect x="91.07" y="19.48" width="3.01" height="2.44"/>
        <rect x="88.05" y="284.91" width="3.02" height="2.43"/>
        <rect x="88.05" y="258.12" width="3.02" height="2.44"/>
        <rect x="88.05" y="209.42" width="3.02" height="2.44"/>
        <rect x="88.05" y="180.2" width="3.02" height="2.43"/>
        <rect x="88.05" y="177.76" width="3.02" height="2.44"/>
        <rect x="88.05" y="94.97" width="3.02" height="2.44"/>
        <rect x="88.05" y="31.66" width="3.02" height="2.43"/>
        <rect x="88.05" y="19.48" width="3.02" height="2.44"/>
        <rect x="85.04" y="284.91" width="3.01" height="2.43"/>
        <rect x="85.04" y="258.12" width="3.01" height="2.44"/>
        <rect x="85.04" y="209.42" width="3.01" height="2.44"/>
        <rect x="85.04" y="180.2" width="3.01" height="2.43"/>
        <rect x="85.04" y="97.41" width="3.01" height="2.43"/>
        <rect x="85.04" y="94.97" width="3.01" height="2.44"/>
        <rect x="85.04" y="31.66" width="3.01" height="2.43"/>
        <rect x="85.04" y="29.22" width="3.01" height="2.44"/>
        <rect x="85.04" y="19.48" width="3.01" height="2.44"/>
        <rect x="82.02" y="284.91" width="3.02" height="2.43"/>
        <rect x="82.02" y="258.12" width="3.02" height="2.44"/>
        <rect x="82.02" y="255.69" width="3.02" height="2.43"/>
        <rect x="82.02" y="209.42" width="3.02" height="2.44"/>
        <rect x="82.02" y="180.2" width="3.02" height="2.43"/>
        <rect x="82.02" y="97.41" width="3.02" height="2.43"/>
        <rect x="82.02" y="29.22" width="3.02" height="2.44"/>
        <rect x="82.02" y="19.48" width="3.02" height="2.44"/>
        <rect x="79.01" y="287.34" width="3.01" height="2.44"/>
        <rect x="79.01" y="284.91" width="3.01" height="2.43"/>
        <rect x="79.01" y="255.69" width="3.01" height="2.43"/>
        <rect x="79.01" y="209.42" width="3.01" height="2.44"/>
        <rect x="79.01" y="180.2" width="3.01" height="2.43"/>
        <rect x="79.01" y="26.79" width="3.01" height="2.43"/>
        <rect x="79.01" y="19.48" width="3.01" height="2.44"/>
        <rect x="75.99" y="287.34" width="3.02" height="2.44"/>
        <rect x="75.99" y="255.69" width="3.02" height="2.43"/>
        <rect x="75.99" y="209.42" width="3.02" height="2.44"/>
        <rect x="75.99" y="180.2" width="3.02" height="2.43"/>
        <rect x="75.99" y="26.79" width="3.02" height="2.43"/>
        <rect x="75.99" y="24.35" width="3.02" height="2.44"/>
        <rect x="75.99" y="19.48" width="3.02" height="2.44"/>
        <rect x="72.98" y="289.78" width="3.01" height="2.43"/>
        <rect x="72.98" y="287.34" width="3.01" height="2.44"/>
        <rect x="72.98" y="255.69" width="3.01" height="2.43"/>
        <rect x="72.98" y="253.25" width="3.01" height="2.44"/>
        <rect x="72.98" y="209.42" width="3.01" height="2.44"/>
        <rect x="72.98" y="180.2" width="3.01" height="2.43"/>
        <rect x="72.98" y="24.35" width="3.01" height="2.44"/>
        <rect x="72.98" y="19.48" width="3.01" height="2.44"/>
        <rect x="69.96" y="289.78" width="3.02" height="2.43"/>
        <rect x="69.96" y="253.25" width="3.02" height="2.44"/>
        <rect x="69.96" y="209.42" width="3.02" height="2.44"/>
        <rect x="69.96" y="180.2" width="3.02" height="2.43"/>
        <rect x="69.96" y="24.35" width="3.02" height="2.44"/>
        <rect x="69.96" y="21.92" width="3.02" height="2.43"/>
        <rect x="66.95" y="292.21" width="3.01" height="2.44"/>
        <rect x="66.95" y="289.78" width="3.01" height="2.43"/>
        <rect x="66.95" y="253.25" width="3.01" height="2.44"/>
        <rect x="66.95" y="211.86" width="3.01" height="2.43"/>
        <rect x="66.95" y="209.42" width="3.01" height="2.44"/>
        <rect x="66.95" y="180.2" width="3.01" height="2.43"/>
        <rect x="66.95" y="21.92" width="3.01" height="2.43"/>
        <rect x="63.93" y="292.21" width="3.02" height="2.44"/>
        <rect x="63.93" y="250.82" width="3.02" height="2.43"/>
        <rect x="63.93" y="211.86" width="3.02" height="2.43"/>
        <rect x="63.93" y="182.63" width="3.02" height="2.44"/>
        <rect x="63.93" y="21.92" width="3.02" height="2.43"/>
        <rect x="60.92" y="292.21" width="3.01" height="2.44"/>
        <rect x="60.92" y="250.82" width="3.01" height="2.43"/>
        <rect x="60.92" y="216.73" width="3.01" height="2.43"/>
        <rect x="60.92" y="214.29" width="3.01" height="2.44"/>
        <rect x="60.92" y="182.63" width="3.01" height="2.44"/>
        <rect x="60.92" y="131.5" width="3.01" height="2.43"/>
        <rect x="60.92" y="21.92" width="3.01" height="2.43"/>
        <rect x="57.9" y="292.21" width="3.02" height="2.44"/>
        <rect x="57.9" y="250.82" width="3.02" height="2.43"/>
        <rect x="57.9" y="219.16" width="3.02" height="2.44"/>
        <rect x="57.9" y="216.73" width="3.02" height="2.43"/>
        <rect x="57.9" y="182.63" width="3.02" height="2.44"/>
        <rect x="57.9" y="131.5" width="3.02" height="2.43"/>
        <rect x="57.9" y="21.92" width="3.02" height="2.43"/>
        <rect x="54.88" y="292.21" width="3.02" height="2.44"/>
        <rect x="54.88" y="250.82" width="3.02" height="2.43"/>
        <rect x="54.88" y="182.63" width="3.02" height="2.44"/>
        <rect x="54.88" y="131.5" width="3.02" height="2.43"/>
        <rect x="54.88" y="21.92" width="3.02" height="2.43"/>
        <rect x="51.87" y="292.21" width="3.01" height="2.44"/>
        <rect x="51.87" y="182.63" width="3.01" height="2.44"/>
        <rect x="51.87" y="153.41" width="3.01" height="2.44"/>
        <rect x="51.87" y="131.5" width="3.01" height="2.43"/>
        <rect x="51.87" y="24.35" width="3.01" height="2.44"/>
        <rect x="51.87" y="21.92" width="3.01" height="2.43"/>
        <rect x="48.85" y="292.21" width="3.02" height="2.44"/>
        <rect x="48.85" y="185.07" width="3.02" height="2.43"/>
        <rect x="48.85" y="153.41" width="3.02" height="2.44"/>
        <rect x="48.85" y="150.98" width="3.02" height="2.43"/>
        <rect x="48.85" y="131.5" width="3.02" height="2.43"/>
        <rect x="48.85" y="51.14" width="3.02" height="2.43"/>
        <rect x="48.85" y="24.35" width="3.02" height="2.44"/>
        <rect x="45.84" y="292.21" width="3.01" height="2.44"/>
        <rect x="45.84" y="185.07" width="3.01" height="2.43"/>
        <rect x="45.84" y="150.98" width="3.01" height="2.43"/>
        <rect x="45.84" y="131.5" width="3.01" height="2.43"/>
        <rect x="45.84" y="51.14" width="3.01" height="2.43"/>
        <rect x="42.82" y="292.21" width="3.02" height="2.44"/>
        <rect x="42.82" y="150.98" width="3.02" height="2.43"/>
        <rect x="42.82" y="131.5" width="3.02" height="2.43"/>
        <rect x="42.82" y="51.14" width="3.02" height="2.43"/>
        <rect x="39.81" y="292.21" width="3.01" height="2.44"/>
        <rect x="39.81" y="150.98" width="3.01" height="2.43"/>
        <rect x="39.81" y="148.54" width="3.01" height="2.44"/>
        <rect x="39.81" y="131.5" width="3.01" height="2.43"/>
        <rect x="39.81" y="51.14" width="3.01" height="2.43"/>
        <rect x="39.81" y="48.7" width="3.01" height="2.44"/>
        <rect x="36.79" y="292.21" width="3.02" height="2.44"/>
        <rect x="36.79" y="146.11" width="3.02" height="2.43"/>
        <rect x="36.79" y="143.67" width="3.02" height="2.44"/>
        <rect x="36.79" y="131.5" width="3.02" height="2.43"/>
        <rect x="36.79" y="48.7" width="3.02" height="2.44"/>
        <rect x="36.79" y="46.27" width="3.02" height="2.43"/>
        <rect x="33.78" y="292.21" width="3.01" height="2.44"/>
        <rect x="33.78" y="289.78" width="3.01" height="2.43"/>
        <rect x="33.78" y="228.9" width="3.01" height="2.44"/>
        <rect x="33.78" y="141.24" width="3.01" height="2.43"/>
        <rect x="33.78" y="138.8" width="3.01" height="2.44"/>
        <rect x="33.78" y="129.06" width="3.01" height="2.44"/>
        <rect x="33.78" y="46.27" width="3.01" height="2.43"/>
        <rect x="33.78" y="43.83" width="3.01" height="2.44"/>
        <rect x="30.76" y="289.78" width="3.02" height="2.43"/>
        <rect x="30.76" y="287.34" width="3.02" height="2.44"/>
        <rect x="30.76" y="228.9" width="3.02" height="2.44"/>
        <rect x="30.76" y="138.8" width="3.02" height="2.44"/>
        <rect x="30.76" y="136.37" width="3.02" height="2.43"/>
        <rect x="30.76" y="133.93" width="3.02" height="2.44"/>
        <rect x="30.76" y="129.06" width="3.02" height="2.44"/>
        <rect x="30.76" y="43.83" width="3.02" height="2.44"/>
        <rect x="27.75" y="289.78" width="3.01" height="2.43"/>
        <rect x="27.75" y="287.34" width="3.01" height="2.44"/>
        <rect x="27.75" y="228.9" width="3.01" height="2.44"/>
        <rect x="27.75" y="226.47" width="3.01" height="2.43"/>
        <rect x="27.75" y="133.93" width="3.01" height="2.44"/>
        <rect x="27.75" y="131.5" width="3.01" height="2.43"/>
        <rect x="27.75" y="129.06" width="3.01" height="2.44"/>
        <rect x="27.75" y="43.83" width="3.01" height="2.44"/>
        <rect x="27.75" y="36.53" width="3.01" height="2.43"/>
        <rect x="24.73" y="292.21" width="3.02" height="2.44"/>
        <rect x="24.73" y="289.78" width="3.02" height="2.43"/>
        <rect x="24.73" y="226.47" width="3.02" height="2.43"/>
        <rect x="24.73" y="224.03" width="3.02" height="2.44"/>
        <rect x="24.73" y="129.06" width="3.02" height="2.44"/>
        <rect x="24.73" y="126.63" width="3.02" height="2.43"/>
        <rect x="24.73" y="43.83" width="3.02" height="2.44"/>
        <rect x="24.73" y="36.53" width="3.02" height="2.43"/>
        <rect x="21.72" y="294.65" width="3.01" height="2.43"/>
        <rect x="21.72" y="292.21" width="3.01" height="2.44"/>
        <rect x="21.72" y="224.03" width="3.01" height="2.44"/>
        <rect x="21.72" y="221.6" width="3.01" height="2.43"/>
        <rect x="21.72" y="126.63" width="3.01" height="2.43"/>
        <rect x="21.72" y="36.53" width="3.01" height="2.43"/>
        <rect x="18.7" y="294.65" width="3.02" height="2.43"/>
        <rect x="18.7" y="292.21" width="3.02" height="2.44"/>
        <rect x="18.7" y="221.6" width="3.02" height="2.43"/>
        <rect x="18.7" y="219.16" width="3.02" height="2.44"/>
        <rect x="18.7" y="216.73" width="3.02" height="2.43"/>
        <rect x="18.7" y="126.63" width="3.02" height="2.43"/>
        <rect x="18.7" y="124.19" width="3.02" height="2.44"/>
        <rect x="18.7" y="121.76" width="3.02" height="2.43"/>
        <rect x="18.7" y="36.53" width="3.02" height="2.43"/>
        <rect x="15.69" y="294.65" width="3.01" height="2.43"/>
        <rect x="15.69" y="216.73" width="3.01" height="2.43"/>
        <rect x="15.69" y="214.29" width="3.01" height="2.44"/>
        <rect x="15.69" y="121.76" width="3.01" height="2.43"/>
        <rect x="15.69" y="36.53" width="3.01" height="2.43"/>
        <rect x="12.67" y="294.65" width="3.02" height="2.43"/>
        <rect x="12.67" y="214.29" width="3.02" height="2.44"/>
        <rect x="12.67" y="121.76" width="3.02" height="2.43"/>
        <rect x="12.67" y="119.32" width="3.02" height="2.44"/>
        <rect x="12.67" y="36.53" width="3.02" height="2.43"/>
        <rect x="9.66" y="294.65" width="3.01" height="2.43"/>
        <rect x="9.66" y="214.29" width="3.01" height="2.44"/>
        <rect x="9.66" y="119.32" width="3.01" height="2.44"/>
        <rect x="9.66" y="38.96" width="3.01" height="2.44"/>
        <rect x="9.66" y="36.53" width="3.01" height="2.43"/>
        <rect x="6.64" y="294.65" width="3.02" height="2.43"/>
        <rect x="6.64" y="214.29" width="3.02" height="2.44"/>
        <rect x="6.64" y="211.86" width="3.02" height="2.43"/>
        <rect x="6.64" y="119.32" width="3.02" height="2.44"/>
        <rect x="6.64" y="41.4" width="3.02" height="2.43"/>
        <rect x="6.64" y="38.96" width="3.02" height="2.44"/>
        <rect x="3.63" y="294.65" width="3.01" height="2.43"/>
        <rect x="3.63" y="211.86" width="3.01" height="2.43"/>
        <rect x="3.63" y="121.76" width="3.01" height="2.43"/>
        <rect x="3.63" y="119.32" width="3.01" height="2.44"/>
        <rect x="3.63" y="41.4" width="3.01" height="2.43"/>
        <rect x=".61" y="294.65" width="3.02" height="2.43"/>
        <rect x=".61" y="209.42" width="3.02" height="2.44"/>
        <rect x=".61" y="121.76" width="3.02" height="2.43"/>
        <rect x=".61" y="43.83" width="3.02" height="2.44"/>
        <rect x=".61" y="41.4" width="3.02" height="2.43"/>
      </g>
    </g>
  </g>
</svg>